<svg version="1.2" xmlns="http://www.w3.org/2000/svg" viewBox="0 0 512 512" width="100" height="100"><style>.a{opacity:1;fill:#3177de}.b{opacity:.2;fill:#266bd6}.c{fill:#478cf7}.d{fill:#5f9cf6}.e{fill:#fafcff}.f{fill:#fba81f}</style><path class="a" d="m304.5 164.6c-1.3 1.2-1.6 3.4-1.6 10.5l0.1 8.9c-8.1 0-12.2 0.4-14.3 0.8l-3.7 0.7c0.1-13.3-0.3-16.4-1.2-17.3-0.7-0.7-2.4-1.1-3.8-1-2.4 0.3-2.5 0.5-2.7 9.6-0.2 5-0.4 9.2-0.5 9.2-0.2 0-4.1 0.7-8.8 1.5-4.7 0.8-8.8 1.5-9.2 1.5-0.5 0-0.9-3.5-1-7.7l-0.3-7.8h-6l-0.5 17.5c-6.6 1.7-10.7 2.8-13.5 3.6-2.7 0.8-5.1 1.4-5.2 1.4-0.2 0-0.4-4.2-0.5-9.2l-0.3-9.3h-6l-0.5 20.5c-7.4 1.4-11.6 2.1-14.2 2.4l-4.8 0.6c0-14.5-0.4-17.9-1.2-18.8-0.7-0.7-2.1-1.2-3-1.2-1 0-2.2 0.9-2.8 2-0.6 1.1-1 5.8-1 10.5v8.5h-16c0-13.9-0.4-18.9-1-20-0.6-1.2-2-2-3.5-2-1.4 0-2.7 0.7-3 1.5-0.3 0.8-0.5 5.7-0.5 10.8v9.2c-11.2-1.2-15.1-1.8-15.8-2-0.8-0.3-1.3-3.5-1.4-9.7l-0.3-9.3h-6c-0.5 16.1-0.6 16.5-2.7 16.5-1.3-0.1-5-0.6-8.3-1.3l-6-1.3c-0.9-17.8-1.3-19.9-2.7-20.8-1.3-0.8-2.3-0.8-3.5 0-1.5 0.9-1.9 2.8-2.1 10l-0.3 8.9c-7.3-1.1-11.5-1.4-14.1-1.4l-4.8-0.1c-10.6-20.2-11.2-21-13.7-20.7-2.2 0.1-2.9 0.8-3.1 2.7-0.2 1.5 1.5 5.8 4.3 10.8 2.5 4.5 4.5 8.4 4.5 8.7 0 0.3-1.5 0.7-3.2 1-1.8 0.3-6.8 2.2-11 4.2l-7.7 3.8c-12.9-10.4-17.3-13.5-18.1-13.5-0.9 0-2.1 0.6-2.8 1.3-0.7 0.6-1.2 1.9-1.2 2.7 0 0.8 3 4 6.6 7 3.7 3 7.5 6 8.3 6.6 1.4 1 1 1.8-2.8 6-2.4 2.7-5.6 7.2-7.2 9.9l-2.9 5c-19.8-6.6-21.1-6.8-22.5-5.5-1 0.9-1.4 2.3-1.1 3.5 0.4 1.5 3.1 3 10.3 5.6l9.8 3.6c-0.7 8.4-0.9 13.5-1 16.8 0 3.3 0.3 8.6 0.8 11.8l0.7 5.7c-14.3 4.6-19.1 6.6-19.8 7.5-0.6 0.8-1 2.4-0.7 3.5 0.3 1.1 1.1 2.2 1.8 2.4 0.6 0.2 5.7-1.1 11.2-3 5.5-1.9 10.2-3.4 10.5-3.4 0.3 0 1.5 1.9 2.6 4.2 1.2 2.4 4.2 6.9 6.8 10.1l4.6 5.7c-13.2 10.7-16 13.7-16 15 0 1.1 0.9 2.4 2 3 1.1 0.6 2.6 0.7 3.3 0.3 0.6-0.3 4.7-3.5 9-7l7.7-6.3c12.8 6.2 17.2 8 18 8 0.8 0 2.1 0.4 2.8 0.8 0.9 0.5 0.1 2.8-3.3 9-2.5 4.5-4.5 9.3-4.5 10.7q0 2.5 2 3c1.1 0.3 2.7-0.1 3.6-0.7 0.9-0.7 3.9-5.7 6.7-11.1l5.2-9.7c9.3 0 13.5-0.3 15.3-0.7l3.2-0.8c0 15 0.4 18.4 1.2 19.3 0.7 0.7 1.8 1.2 2.5 1.2 0.6 0 1.9-0.7 2.7-1.5 1.2-1.2 1.6-3.6 1.6-10.7v-9.3c9.7-2 13.5-2.8 14.8-3.1 2.1-0.4 2.2-0.2 2.2 8.1 0 7.7 0.2 8.5 2 9 1.1 0.3 2.7-0.1 3.5-0.7 1.2-1 1.6-3.3 1.5-10v-8.8c5-0.7 8.9-1.3 11.8-1.7l5.2-0.8c0 16.8 0.4 20.4 1.2 21.3 0.7 0.7 1.8 1.2 2.5 1.2 0.6 0 1.9-0.7 2.7-1.5 1.3-1.2 1.6-3.7 1.6-11.5v-10c7.4 0 11 0.3 12.8 0.7l3.2 0.8c0 15.2 0.4 17.9 1.5 19 0.8 0.8 1.7 1.5 2 1.5 0.3 0 1.4-0.4 2.5-1 1.8-0.9 2-2 2-10v-9c5.8 0.1 10 0.7 13 1.3l5.5 1.2c0.9 17.6 1.4 20 2.7 20.9 1.2 0.8 2 0.7 3.3-0.4 1.2-1.2 1.6-3.4 1.5-9.7 0-6 0.3-8.3 1.2-8.3 0.7 0 4.9 1.1 9.3 2.4l8 2.3c0.9 14.5 1.4 16.9 2.7 17.7 1.2 0.8 2 0.7 3.3-0.4 1.2-1.1 1.6-3.2 1.5-8.2 0-6.4 0.1-6.8 2.2-6.7 1.3 0 5.4 0.6 9.3 1.2l7 1.2c0.5 13.3 1.1 17.6 1.8 18.3 0.7 0.7 2 1.3 2.9 1.2 1 0 2.2-0.9 2.8-2 0.6-1.1 1-5.1 1-9 0-7 0-7 2.7-7 1.6 0 5.6 0.3 9 0.7l6.3 0.8c0.4 16.1 0.8 18 2.2 18.9 1.3 0.8 2.3 0.8 3.5 0 1.5-0.9 1.8-2.8 2-10.3 0.3-8.9 0.4-9.1 2.5-8.6 1.3 0.3 5.3 0.5 9 0.5h6.8c-0.1 13.3 0.3 14.8 2 16.3 1.5 1.3 2.5 1.5 4 0.7 1.8-0.9 2-2 2-9.5v-8.5c6.6 0 10.9-0.4 13.7-0.8l5.2-0.7 0.6 19h6l0.5-19c12-2.1 16.6-2.9 18-3.2 2.4-0.5 2.6-0.2 4.3 8.4 1.1 4.8 2.4 9.4 3 10.1 0.7 0.7 2 1.3 2.9 1.2 1 0 2.2-0.8 2.7-1.7 0.6-1.2 0.3-4.9-0.9-10.8-1-4.9-1.8-9.1-1.7-9.1 0.1-0.1 4.5-1.3 9.7-2.7 5.2-1.4 9.7-2.4 10-2.3 0.3 0.2 1.8 3.9 3.4 8.2 1.5 4.4 3.3 8.5 4 9.2 0.6 0.7 1.9 1.3 2.8 1.2 1 0 2.2-0.9 2.8-2 0.8-1.5 0.3-4-2-10.2-1.7-4.6-2.9-8.6-2.8-9.1 0.2-0.4 3.9-2.4 8.3-4.3 4.4-2 8.9-3.7 9.9-3.8 1.4-0.1 3.2 2.2 6.7 8.2 4.4 7.4 5.2 8.2 7.6 8 2.1-0.2 2.9-0.9 3-2.5 0.2-1.3-1.7-5.8-4.2-10-2.5-4.3-4.5-8.1-4.5-8.5 0-0.5 2.1-2.3 4.7-4 2.7-1.8 6.4-4.7 8.3-6.5l3.5-3.2c9.2 12.8 11.8 15.5 13.3 15.7 1.4 0.1 2.6-0.6 3.3-2 0.9-2 0.3-3.4-5.1-11.3l-6.2-9c5.2-11 5.7-13.3 5.7-20 0-6.7-0.5-8.9-2.8-14l-2.9-6c9.5-13.6 12.2-17.9 12.2-18.5 0-0.6-0.7-1.7-1.5-2.5-0.8-0.8-1.8-1.5-2.3-1.5-0.4 0-1.4 0.5-2.3 1.2-0.9 0.7-3.7 4.3-6.2 8.1-2.6 3.7-4.9 6.7-5.2 6.7-0.3 0-2.9-2.1-5.8-4.6-2.8-2.5-6.4-5.4-8-6.3-1.5-0.9-2.7-1.9-2.7-2.3 0-0.5 2-4.3 4.5-8.5 2.5-4.3 4.5-8.5 4.5-9.3 0.1-0.8-0.6-2.1-1.5-2.7-0.8-0.7-2.3-1.1-3.3-0.8-0.9 0.3-3.8 4.4-6.5 9-2.6 4.7-4.8 8.5-5 8.5-0.1 0-4.1-1.8-9-4-4.8-2.2-9.1-4-9.7-4-0.6 0-1-0.6-1-1.2 0-0.7 1.4-5 3-9.5 2.5-6.8 2.8-8.6 1.7-9.8-0.6-0.9-2.2-1.6-3.5-1.5-1.8 0-2.6 1.2-4.7 6.8-1.3 3.7-2.9 7.8-3.4 9.2l-0.9 2.5c-13-3.5-17.3-4.5-18-4.5-0.6 0-1.4-0.3-1.6-0.7-0.2-0.5 0.4-4.8 1.4-9.8 1.9-8.9 1.9-9 0-10.7-1.4-1.3-2.5-1.5-3.8-0.9-1.2 0.6-2.3 3.6-3.5 9.7-1.1 4.9-2 9.1-2.2 9.4-0.2 0.3-4.8-0.2-10.2-1.1l-9.8-1.5c-0.9-16.6-1.4-18.9-2.7-19.8-1.2-0.8-2-0.7-3.3 0.4-1.2 1.2-1.6 3.4-1.5 9.8v8.2c-9.7 0-14-0.3-15.8-0.7l-3.2-0.8c0-12.3-0.4-15.5-1.2-16.3-0.7-0.7-2.1-1.2-3.1-1.2-0.9 0-2.1 0.9-2.7 2-0.6 1.1-1 5.2-1 9v7h-18c0-14.7-0.4-17.4-1.5-18.5-0.8-0.8-1.9-1.5-2.4-1.5-0.5 0-1.7 0.7-2.6 1.6z"/>
<path fill-rule="evenodd" class="b" d="m357.8 165c0.3 0 0.1 0.6-0.6 1.3-0.7 0.7-1.3 4.6-1.6 18.2l-0.5-8.3c-0.5-6.3-0.3-8.7 0.8-9.8 0.7-0.8 1.6-1.4 1.9-1.4zm4.7 0.9c1.7 1.2 1.9 2.3 1.7 10.2-0.2 8.2 0 8.9 1.8 9.4 1.6 0.4 1.5 0.4-0.3 0.3-2.1-0.3-2.2-0.8-2.5-9.3-0.2-5-0.8-9.7-1.5-10.5-1.1-1.3-1-1.3 0.8-0.1zm-24.8 5.1c0.2 1.9 0.2 5.5 0 8-0.2 2.5-0.4 0.9-0.4-3.5 0-4.4 0.2-6.4 0.4-4.5zm-245.3-1.9c1.8 0.1 1.7 0.2-0.4 0.8-1.6 0.4-2.6 1.5-2.8 2.9-0.1 1.2 0.3 3.2 0.9 4.5 1 2.1 1 2.2-0.6 0.2-0.8-1.1-1.6-2.9-1.7-4.1-0.1-1.1 0.4-2.5 1.2-3.2 0.8-0.7 2.3-1.2 3.4-1.1zm184.3 4.4c0.2 2.8 0.2 6.8 0 9-0.2 2.2-0.3-0.1-0.3-5 0-4.9 0.1-6.7 0.3-4zm-22.2-1.4c1.1-0.1 2.6 0.4 3.3 1.1 0.7 0.8 1.2 3.9 1.2 8.1 0 5.6 0.3 6.8 1.7 7.1 1.3 0.3 1.1 0.4-0.5 0.5-2.1 0.1-2.2-0.4-2.6-7.6-0.3-7-0.6-7.7-2.7-8.4-2.1-0.6-2.1-0.7-0.4-0.8zm-3.8 6.4c0.2 2.2 0.2 6 0 8.5-0.2 2.5-0.4 0.7-0.4-4 0-4.7 0.2-6.7 0.4-4.5zm-126 2c0.2 2.2 0.2 6 0 8.5-0.2 2.5-0.4 0.7-0.4-4 0-4.7 0.2-6.7 0.4-4.5zm28.7-1.4c1.8 0.1 1.7 0.2-0.4 0.8-2.4 0.6-2.5 1.2-3.6 17.6l-0.4-8.1c-0.3-6-0.1-8.3 1-9.2 0.8-0.7 2.3-1.2 3.4-1.1zm71.3 3.9c0.2 2.5 0.2 7 0 10-0.2 3-0.3 1-0.3-4.5 0-5.5 0.1-8 0.3-5.5zm7.9-2c0.2 1.4 0.5 5.3 0.6 8.8 0.2 3.4 0 6.2-0.5 6.2-0.4 0-0.6-3.9-0.6-8.8 0.1-4.8 0.3-7.6 0.5-6.2zm-58.1-0.8c0 0.2-0.2 5.2-1.1 22.3l-0.2-9.8c-0.1-5.3 0.1-10.4 0.5-11.2 0.4-0.9 0.7-1.5 0.8-1.3zm27.5-0.2c0.8 0 2.3 0.8 3.3 1.8 1.4 1.4 1.8 3.3 1.7 9.9 0 7.8 0.1 8.3 2.2 8.7 1.9 0.3 1.8 0.4-3.2 0.6l-0.3-9.1c-0.2-8.6-0.4-9.3-2.7-10.5-1.4-0.8-1.8-1.4-1-1.4zm-44.6 1.5l0.3 8.8c0.3 7.3 0.6 8.8 2 9q1.9 0.4-0.2 0.3c-1.8-0.1-2-0.8-2.1-9.1zm162.7 0.9c5.2 0 7.2 0.1 4.5 0.3-2.8 0.2-7.1 0.2-9.5 0-2.5-0.2-0.3-0.3 5-0.3zm-21.5 0.9c2.7 0 4 0.2 2.9 0.4-1.1 0.2-3.4 0.2-5 0-1.6-0.2-0.7-0.4 2.1-0.4zm47 0c2.7 0 4 0.2 2.9 0.4-1.1 0.2-3.4 0.2-5 0-1.6-0.2-0.7-0.4 2.1-0.4zm109 6.6c1.1 0.7 1.8 2.1 1.7 3-0.1 0.9-0.9 2.5-1.7 3.6-1.5 1.9-1.5 1.8-0.3-0.8 1-2.3 1-3.2-0.1-5-1.4-2.1-1.3-2.1 0.4-0.8zm-23.3 13.1c0.4 0 2.1 0.7 3.8 1.5 1.6 0.8 3.5 1.2 4.2 0.9 0.9-0.5 1-0.3 0.3 0.5-0.8 1-1.9 0.8-5-0.8-2.2-1.1-3.7-2-3.3-2.1zm-362.1 2.7c1.1 1 0.7 1.9-2.5 5.5-2.2 2.4-4.4 4.7-5 5.3-0.6 0.6-0.4 0.1 0.4-1 0.7-1.1 2.7-3.3 4.3-5q2.9-3 2.1-4.5c-0.6-1.2-0.5-1.3 0.7-0.3zm406.4 14.3c0.2 0-0.9 2-2.6 4.5-1.6 2.5-3.2 4.5-3.4 4.5-0.3 0 0.8-2 2.5-4.5 1.7-2.5 3.2-4.5 3.5-4.5zm-420.3 55c0.7 0 2 1.7 3 3.7 1 2.1 1.2 2.9 0.5 1.9-0.7-1.1-2-2.8-3-3.8q-1.7-1.8-0.5-1.8zm132.8 24.3c3.5 0 4.9 0.2 3 0.4-2 0.2-4.9 0.2-6.5 0-1.7-0.2-0.1-0.4 3.5-0.4zm-112.3 0.7c0.2 0 0.3 0.2 0.3 0.5 0 0.3-2.4 2.3-10.5 8.7l5-4.6c2.7-2.5 5.1-4.6 5.2-4.6zm98.3 0l-0.4 19.5-0.6-18.5-2.8-0.4c-2.5-0.3-2.4-0.3 3.8-0.6zm32.7 5.5c0.2 2.7 0.2 6.8 0 9-0.2 2.2-0.4-0.1-0.4-5 0-4.9 0.2-6.8 0.4-4zm-49-3.5c0.4 0 0.7 3.9 0.5 8.7-0.2 7-0.6 9.1-2 10.3-1.5 1.2-1.6 1.2-0.5 0 0.9-1 1.3-4.6 1.3-10.3 0-4.8 0.3-8.7 0.7-8.7zm64.8 1.3c1.8 0.2 2 1.1 2.3 9.7 0.1 5.4 0.8 10.2 1.5 11 1 1.3 1 1.3-0.6 0-1.5-1.2-1.8-3-1.8-10.8 0.1-7.9-0.2-9.3-1.7-9.6q-1.9-0.5 0.3-0.3zm-74.3 0.7c1.6 0 1.7 1 1.4 16.5l-0.4-7.5c-0.2-4.4-0.9-7.8-1.5-8.2q-1.2-0.8 0.5-0.8zm86 2.1c1.6 0.1 1.8 0.2 0.5 0.5-1.5 0.3-1.7 1.6-1.7 8.1 0 6.3-0.3 8.1-1.7 9.3-1.6 1.2-1.7 1.2-0.6 0 0.8-1 1.3-4.5 1.3-9.8 0-7.9 0.1-8.2 2.2-8.1zm221.4 2.1c0.2 1-0.2 2.5-0.9 3.4-0.7 0.8-2.3 1.4-3.6 1.2-1.3-0.2-3.1-1.4-5.4-5.3l1.9 2.3q1.9 2.4 4.4 2c1.7-0.2 2.6-1 2.9-2.8 0.3-1.7 0.5-2 0.7-0.8zm-332.9 0.9c2.2-0.1 2.3 0.2 1.9 16.4l-0.3-7.8c-0.3-6.4-0.6-7.8-2.1-8.1-1.2-0.3-1.1-0.4 0.5-0.5zm-10.2 1.2c3.8 0 5.2 0.2 3 0.4-2.2 0.2-5.4 0.2-7 0-1.7-0.2 0.1-0.4 4-0.4zm136.5 0c1.1 0.3 1.5 2.2 1.8 8.3 0.1 4.3 0.8 8.6 1.5 9.4 1 1.3 1 1.3-0.6 0-1.5-1.2-1.8-3-1.8-9.3 0.1-5.3-0.3-7.9-1.2-8.2-0.7-0.3-0.6-0.4 0.3-0.2zm9.4 2.2l0.3 7c0.2 5.3 0 7.3-1.2 8.2-1.2 1-1.3 1-0.5 0 0.5-0.6 1.1-4.3 1.2-8.2zm16.1 2.8c1.8 0.2 2 1 2 16.7l-0.3-8c-0.2-6.7-0.5-8.1-2-8.4q-1.9-0.5 0.3-0.3zm89.2 0.7c0.4 0 0.7 2.8 0.5 6.2-0.1 3.5-0.4 7.7-0.6 9.3-0.2 1.6-0.4-1.2-0.5-6.3 0-5 0.2-9.2 0.6-9.2zm-7.7 1l0.2 9.2c0.3 8.9 0.4 9.2 2.8 9.9 2 0.6 2.1 0.7 0.5 0.8-1.1 0.1-2.6-0.4-3.3-1.1-0.8-0.9-1.2-4.2-1.2-17.8l-3.3-0.3c-3.1-0.4-3.1-0.4 4.3-0.7zm-19 1l8.5 0.3-7.5 0.7-0.6 15.5z"/>

<path class="c" d="m295.5 199.1c-5.5 0.5-14.5 1.5-20 2.4-5.5 0.9-13.1 2.3-17 3.1-3.9 0.9-11.7 2.9-17.5 4.6-5.8 1.7-14.8 3.9-20 4.9-5.9 1.2-16 2.2-26.5 2.6-11 0.4-20.5 0.2-27-0.6-5.5-0.7-14.7-2.3-20.5-3.6-5.8-1.3-16.1-3.3-23-4.6-11-1.9-13.4-2.1-19.5-1.1-3.8 0.6-9.8 2.5-13.3 4.2-3.5 1.7-8.5 5.3-11.7 8.5-3.2 3.2-6.8 8.1-8.5 11.8-1.7 3.4-3.5 9.3-4.1 13.2-0.8 5.1-0.8 8.7 0.1 13.5 0.6 3.6 2.6 9.4 4.3 12.9 1.9 3.8 5.4 8.5 8.7 11.6 3.2 3.1 8.4 6.7 12.5 8.6 5.8 2.7 8.5 3.4 15.5 3.7 7.2 0.4 11.9-0.3 31-4.2 12.4-2.5 28.3-5.1 35.5-5.7 9.9-0.9 16.2-0.9 26.5 0 7.4 0.7 16.7 1.9 20.5 2.7 3.8 0.8 12.6 3 19.5 4.9 6.9 1.9 17 4.3 22.5 5.4 5.5 1.1 16.1 2.8 23.5 3.6 8.3 1 21.7 1.6 35 1.7 13.8 0 26.5-0.6 35.5-1.7 7.7-0.9 19.4-2.8 26-4.1 6.6-1.4 17.2-4.2 23.5-6.3 6.3-2.1 14.9-5.4 19-7.3 4.1-1.8 11.1-5.8 15.4-8.8 4.3-3 9.4-7.3 11.2-9.5 1.8-2.2 4-5.7 4.8-7.7 0.9-2.1 1.6-5.3 1.6-7 0-1.8-1.1-5.5-2.3-8.3-1.5-3-4.7-7.1-8.3-10.4-3.2-2.9-8.8-7.1-12.4-9.2-3.6-2.1-11.4-5.9-17.5-8.3-6.1-2.5-16.4-5.9-23-7.6-6.6-1.7-17.4-4-24-5-6.6-1.1-17.4-2.4-24-3-6.6-0.5-18.7-0.9-27-0.8-8.2 0-19.5 0.5-25 0.9z"/><path class="d" d="m304 206.7c-3 0.2-11.4 1-18.5 1.8-7.1 0.9-17.7 2.6-23.5 3.9-5.8 1.3-17.5 4.2-26 6.4-8.5 2.2-20.2 4.5-26 5.2-6.5 0.8-17.4 1.1-28.5 0.8-16.5-0.5-19.9-0.9-41-5.3-14.9-3.1-25.5-4.7-30-4.7-4.5 0-9 0.7-12.5 2-3.2 1.2-7.8 4.1-10.9 6.9-2.9 2.6-6.2 6.3-7.2 8.1-1.4 2.4-1.7 3.7-0.9 5.2 0.6 1.2 2 2 3.5 2 1.7 0 2.9-0.9 3.9-2.7 0.8-1.6 2.9-4.2 4.8-6 1.8-1.8 5.3-4.1 7.8-5.1 2.5-1.1 6.3-2.3 8.5-2.7 2.9-0.4 10.3 0.6 26.5 3.9 12.4 2.4 26.6 5 31.5 5.7 5.7 0.7 15.8 1 27.5 0.6 10.4-0.3 22.5-1.2 27.5-2.1 4.9-0.9 16.4-3.7 25.5-6.1 9.1-2.5 21.9-5.4 28.5-6.5 6.6-1.1 19.9-2.6 29.5-3.2 13.5-0.9 21.7-0.9 36 0 10.2 0.7 23.4 2.1 29.5 3.1 6.1 1.1 14.8 2.9 19.5 4 4.7 1.2 12.6 3.6 17.6 5.4 8.2 2.9 9.4 3 10.8 1.7 0.9-0.8 1.7-2.2 1.7-3 0-0.8-0.6-2-1.3-2.6-0.7-0.7-5.4-2.5-10.3-4.2-4.9-1.7-12.6-4-17-5.1-4.4-1.1-13.6-2.9-20.5-4-6.9-1.1-18.6-2.5-26-3.1-7.4-0.5-18.2-0.9-24-0.8-5.8 0.1-13 0.3-16 0.5zm-228.5 40.9c-0.4 0.4-0.8 1.7-0.7 2.8 0.1 1.2 0.8 2.8 1.7 3.6 1.3 1.1 2.1 1.2 3.3 0.4 1-0.6 1.7-2.4 1.7-4 0-2.4-0.5-3-2.5-3.2-1.4-0.2-3 0-3.5 0.4z"/><path class="e" d="m130.5 232.7c-0.5 0.3-0.8 1.5-0.7 2.5 0.1 1-0.8 2.4-2 3.2-1.5 0.9-2.8 1.1-3.8 0.5-0.8-0.5-2.1-0.9-2.8-0.9-0.6 0-1.2 0.6-1.2 1.3-0.1 0.6 0.6 1.9 1.5 2.7 0.9 0.8 1.6 2.6 1.6 4 0 1.4-0.7 3.2-1.6 4-0.9 0.8-1.6 2.1-1.5 2.8 0 0.6 0.6 1.2 1.2 1.2 0.7 0 2-0.4 2.8-0.9q1.5-0.9 3.8 0.7c1.2 1 2.3 2.6 2.5 3.7 0.1 1.1 1 2.1 1.9 2.2 1.3 0.2 1.8-0.4 1.8-2.2 0-1.7 0.9-2.9 2.8-3.9 2-1 3.1-1.1 4.4-0.2 1.3 0.8 2 0.8 3-0.2 1.1-1.1 0.9-1.7-1-3-1.3-1-2.3-2.7-2.3-4.2 0-1.5 1-3.2 2.3-4.2 1.9-1.3 2.1-1.9 1-3-1-1-1.6-1.1-3.2 0-1.6 1-2.5 0.9-4.5-0.3-1.6-1-2.5-2.4-2.5-4 0-1.4-0.6-2.5-1.3-2.5-0.8 0-1.7 0.3-2.2 0.7zm110 3c-0.5 0.3-0.7 1.6-0.6 2.7 0.1 1.4-0.7 2.5-2.4 3.4-1.5 0.7-3.6 0.9-5.5 0.5-2.4-0.6-3-0.5-3 0.7 0 0.8 0.9 2.1 2 2.8 1.1 0.7 2 2.3 2 3.7 0 1.4-1 3.4-2.3 4.4-1.5 1.4-1.9 2.3-1.2 3.1 0.7 0.9 1.6 0.9 3.3 0.1 1.7-0.9 2.7-0.7 4.7 0.7 1.4 0.9 2.6 2.6 2.8 3.7 0.1 1.1 0.9 2 1.7 2 0.9 0 1.6-1.1 1.8-2.5 0.1-1.5 1.2-3 2.7-3.7 1.7-0.9 3-1 4-0.3 0.8 0.6 1.9 0.8 2.5 0.5 0.6-0.3 1-1.2 1-2 0-0.8-0.7-1.7-1.5-2-1-0.3-1.5-1.8-1.5-4 0-2.2 0.5-3.7 1.5-4 0.8-0.3 1.5-1.3 1.5-2.2 0-1.5-0.5-1.7-3-1-1.9 0.4-3.7 0.2-5-0.5-1.1-0.7-1.9-2-1.8-2.9 0.2-0.9-0.4-2.2-1.3-2.8-0.9-0.6-2-0.8-2.4-0.4zm175 3.9c-0.5 0.4-0.8 1.7-0.7 2.8q0.2 2.1-2.6 3.3c-1.9 0.9-3.3 0.9-4.7 0.2-1.4-0.8-2.3-0.7-3 0.1-0.7 0.8-0.3 1.7 1.3 3.1 1.2 1 2.2 2.9 2.2 4.2 0.1 1.2-0.8 3.1-1.9 4.2-1.2 1.1-1.8 2.3-1.6 2.8 0.3 0.4 1.6 0.5 3 0.2 1.4-0.3 3.6 0.1 5 0.8 1.5 0.7 2.5 2 2.5 3.2 0 1.1 0.3 2.3 0.7 2.7 0.4 0.4 1.4 0.5 2 0.2 0.7-0.2 1.3-1.4 1.3-2.6 0-1.3 0.9-2.9 2-3.5 1.3-0.8 3.1-1 5-0.5 2.5 0.6 3 0.4 3-1 0-1-0.7-2-1.5-2.3-1-0.3-1.5-1.8-1.5-4q0-3.5 1.8-4.4 1.7-0.9 0.9-2.5c-0.5-1.2-1.2-1.4-2.7-0.6-1.4 0.7-2.7 0.6-4.5-0.2-1.5-0.8-2.6-2.3-2.7-3.7-0.2-1.4-0.8-2.6-1.4-2.8-0.6-0.2-1.4 0-1.9 0.3zm-218.2 5.3c-1.1 0.5-4.1 3.1-6.5 5.9l-4.3 5.1c-8.4-2.5-11.1-2.7-13.5-2.1-3.1 0.7-3.5 1.2-3.8 4.3-0.2 2.6 0.4 4.1 2.5 6.3 1.5 1.6 5 3.9 7.8 5.2 2.8 1.3 6.9 2.4 9.2 2.4 3.6 0 5-0.6 8.4-3.7 2.5-2.4 4.8-5.8 6-9 1-2.9 1.9-6.6 1.9-8.3 0-1.7-0.9-3.9-2-5-1.1-1.1-2.3-2-2.8-1.9-0.4 0-1.7 0.4-2.9 0.8zm157.8 15.4c-1.9 0.7-4.8 2.4-6.3 4-1.8 1.8-3 4.2-3.4 7-0.3 2.3-0.3 5.8 0.1 7.7 0.4 1.9 1.5 5.4 2.6 7.8 1.2 2.6 2.8 4.4 4.1 4.8 1.3 0.4 3.1 0.4 4 0 1-0.3 2.5-2.2 3.3-4.1 0.8-1.9 1.5-5.2 1.5-7.2-0.1-2.1 0.5-4.3 1.2-4.9 0.7-0.6 2.9-1.6 4.8-2.2 1.9-0.6 4.7-2 6.2-3.2 1.6-1.1 2.8-3 2.8-4.2 0.1-1.3-0.9-3.2-2.1-4.3-1.6-1.5-3.7-2-8.8-2.2-3.6-0.1-8.2 0.3-10 1z"/><path class="f" d="m321.3 224.3c-1.6 1.2-4.2 3.8-5.7 5.7-2 2.6-2.7 4.7-2.7 8 0 3 0.8 5.6 2.3 7.9 1.3 1.9 3.6 4.4 5.1 5.5 2.1 1.6 4.3 2.1 8.7 2.1 4.4 0 6.5-0.5 8.7-2.1 1.5-1.2 3.7-3.4 4.8-4.8 1.5-2 2-4.3 2-8.6 0-4.4-0.5-6.6-2.1-8.7-1.1-1.5-3.6-3.8-5.5-5.1-2.3-1.5-4.8-2.2-8-2.2-3.1 0-5.5 0.7-7.6 2.3zm-230.8 34.1c-2.7 2.8-3.3 4.2-3.4 8-0.1 3.5 0.5 5.3 2.4 7.6 1.4 1.6 4 3.4 5.8 3.8 1.7 0.5 4.5 0.5 6.2 0.1 1.7-0.5 4.2-2.2 5.8-3.9 2.1-2.3 2.7-4 2.7-7.5 0-3.8-0.5-5-3.5-8-3-3-4.2-3.5-8.1-3.5-3.9 0-5.1 0.5-7.9 3.4zm187.3 1.1c-1.6 0.8-3.5 2.9-4.3 4.5-0.8 1.6-1.5 4.8-1.5 7 0 3.2 0.7 4.7 3.5 7.5 2.8 2.8 4.3 3.5 7.5 3.5 2.2 0 5.4-0.7 7-1.5 1.6-0.8 3.7-3 4.6-4.8 1.1-2.1 1.5-4.5 1.1-7.2-0.4-2.5-1.7-5.1-3.4-6.8-2-2-4.1-2.9-7.3-3.3-2.9-0.3-5.5 0.1-7.3 1.1z"/>
</svg>