<svg xmlns="http://www.w3.org/2000/svg" width="8.721" height="11.158" viewBox="0 0 8.721 11.158">
  <path id="Path_0" data-name="Path 0" d="M56.545.061a1.012,1.012,0,0,0-.24.148,1.193,1.193,0,0,0-.168.2,1.113,1.113,0,0,0-.1.227A1.012,1.012,0,0,0,56,.872a.965.965,0,0,0,.024.207c.013.048.425,1.081.916,2.3l.892,2.206c-1.384,3.429-1.8,4.472-1.812,4.53a.864.864,0,0,0-.015.244,1.153,1.153,0,0,0,.063.273.762.762,0,0,0,.192.275.7.7,0,0,0,.307.2.666.666,0,0,0,.338.052A.708.708,0,0,0,57.2,11.1c.065-.031.469-.292.894-.58s2.01-1.354,3.521-2.372S64.4,6.255,64.455,6.205a.854.854,0,0,0,.144-.177,1.138,1.138,0,0,0,.087-.207.842.842,0,0,0,0-.48,1.138,1.138,0,0,0-.087-.207.854.854,0,0,0-.144-.177C64.4,4.908,62.776,3.8,60.84,2.5S57.265.1,57.2.068a.662.662,0,0,0-.316-.061.584.584,0,0,0-.338.055Z" transform="translate(64.721 11.163) rotate(180)" fill="#00a7ff"/>
</svg>
