<svg version="1.2" xmlns="http://www.w3.org/2000/svg" viewBox="0 0 512 512" width="512" height="512"><style>.a{opacity:1;fill:#006fa7}</style><path class="a" d="m244.3 1.6c-2.9 0.8-7.7 2.6-10.6 4-4.2 2.1-25.7 23-114 111.2-59.8 59.8-110.1 110.7-111.8 113.2-1.6 2.5-3.9 7-5 10-1.2 3-2.3 9.1-2.6 13.5-0.4 5.9-0.1 9.6 1.2 14 0.9 3.3 2.9 8.2 4.3 11 1.4 2.7 5 7.5 8.1 10.6 3.1 3.1 8 6.8 10.8 8.2 2.9 1.5 7.9 3.4 11 4.2 3.2 0.8 8.8 1.5 12.5 1.5h6.8c0 149.1 0.2 161.4 1.6 167 0.8 3.6 2.9 9.2 4.7 12.5 1.7 3.3 6.3 9.2 10.2 13.1 4.7 4.7 9.1 8.1 13.5 10.2 3.6 1.7 9.2 3.8 12.5 4.7 4.9 1.2 14.1 1.5 52 1.5l46 0.1c5.3-3.6 7.8-5.9 8.9-7.4 2.1-2.8 2.1-3.8 2.6-69.6l0.5-66.8c5.1-8.2 7.8-10.8 11.5-13 3.3-2 7.5-3.5 10.5-3.9 2.7-0.3 16.7-0.4 31-0.2l26 0.3c8.3 4.6 11.7 7.4 12.9 9 1.3 1.6 2.9 4.1 3.7 5.5 1.1 2.1 1.5 14.4 1.9 69.2 0.5 65.7 0.5 66.7 2.6 69.5 1.1 1.5 3.6 3.8 5.5 5.1l3.4 2.3c90.8-0.1 92.2-0.1 100-2.3 4.4-1.3 10.6-3.9 13.9-5.8 3.2-1.9 8.5-6.3 11.7-9.8 3.7-3.9 7.2-8.9 9.3-13.5 1.9-3.9 3.9-9.6 4.5-12.5 0.7-3.5 1.1-31 1.1-85.2v-80c10.5 0 16.1-0.7 19.2-1.5 3.2-0.8 8.2-2.7 11-4.2 2.9-1.4 7.8-5.1 10.8-8.2 3-3.1 6.7-7.9 8.2-10.6 1.5-2.8 3.4-7.7 4.2-11 0.9-3.3 1.6-8.5 1.6-11.5 0-3-0.7-8.2-1.6-11.5-0.8-3.3-2.7-8.3-4.1-11-2-3.7-29.7-32.1-110.7-113.4-71.6-71.7-110.1-109.7-114.1-112.3-3.3-2.1-8.9-4.8-12.5-5.9-3.9-1.1-9.1-1.9-13-1.9-3.6 0.1-8.9 0.8-11.8 1.6z"/></svg>