<svg xmlns="http://www.w3.org/2000/svg" xmlns:xlink="http://www.w3.org/1999/xlink" width="39" height="20" viewBox="0 0 39 20"><defs><clipPath id="a"><rect width="20" height="20" transform="translate(153.71 66.71)" fill="#b0b6b9" stroke="#707070" stroke-width="1"/></clipPath></defs><g transform="translate(-154 -61)"><g transform="translate(0.29 -5.71)" clip-path="url(#a)"><path d="M5.4,0h2.2C8.978,0,9.813.015,9.862.038a.4.4,0,0,1,.133.171,29.521,29.521,0,0,1,.053,3.869l.087-.083a18.784,18.784,0,0,1,2.5-.724c1.324-.353,2.454-.652,2.515-.668a.354.354,0,0,1,.2.03.343.343,0,0,1,.152.159c.027.061.9,3.395,1.946,7.412s1.916,7.332,1.935,7.37a.48.48,0,0,1,.038.2.282.282,0,0,1-.083.228,17.048,17.048,0,0,1-2.5.736c-1.324.357-2.477.656-2.56.668a.254.254,0,0,1-.224-.053.639.639,0,0,1-.1-.125c-.019-.03-.888-3.342-1.935-7.359S10.1,4.544,10.086,4.514s-.034,3.167-.034,7.252c0,6.414-.008,7.328-.057,7.446a.377.377,0,0,1-.133.171c-.049.027-1.752.038-9.673.038L0,19.193V2.807L.182,2.6,5.2,2.579,5.185.186Zm.444,1.935H9.369V.645H5.841Zm0,1.631H9.369V2.579H5.841Zm-5.2.645,4.533-.019V3.243L.649,3.224Zm10.139.239a3.162,3.162,0,0,0,.14.671,2.146,2.146,0,0,0,.216.645c.027,0,.975-.247,2.105-.55s2.063-.554,2.067-.561-.064-.307-.159-.671-.178-.664-.186-.668-.944.247-2.082.55S10.8,4.43,10.784,4.449Zm-4.942,11.1H9.369V4.21H5.841Zm-5.2-.986H5.2V4.855H.645ZM11.311,6.41c-.038.015-.03.08.03.284a2.014,2.014,0,0,0,.095.284c.011.011.952-.235,2.094-.542s2.082-.561,2.09-.569a1.481,1.481,0,0,0-.049-.284c-.053-.243-.068-.273-.144-.269-.046,0-.982.247-2.075.542s-2.014.546-2.041.554Zm.3,1.237c-.008.019.4,1.62.9,3.562s.929,3.547.941,3.569a17.53,17.53,0,0,0,2.1-.512c1.142-.3,2.086-.561,2.1-.573s-.391-1.608-.891-3.547-.929-3.554-.948-3.588a8.626,8.626,0,0,0-2.109.5c-1.146.3-2.086.569-2.09.588Zm2.041,7.814a3.935,3.935,0,0,0,.125.6c.083.319.159.6.171.618a17.706,17.706,0,0,0,2.109-.512c1.146-.3,2.086-.573,2.094-.592a4.734,4.734,0,0,0-.137-.626c-.087-.322-.156-.592-.156-.6s-.019-.008-.046,0-.967.247-2.094.55-2.06.558-2.067.569ZM.645,16.2l4.533-.019v-.948L.645,15.211Zm5.2.645H9.369V16.2H5.841Zm8.307.516a4.964,4.964,0,0,0,.152.679c.133.523.182.66.228.645.03-.008.967-.258,2.086-.554s2.041-.55,2.056-.561a4.154,4.154,0,0,0-.144-.668c-.091-.357-.167-.649-.167-.656s-.023-.008-.049-.008-.967.25-2.094.554-2.06.558-2.067.569ZM.645,18.776l4.533-.019.008-1.916H.645Zm5.2,0H9.369v-1.29H5.841ZM2.917,5.841c1.422,0,1.426,0,1.6.171v1.43c0,1.381,0,1.434-.076,1.51a.4.4,0,0,1-.163.095c-.046.011-.694.015-1.441.011-1.35-.011-1.354-.011-1.441-.1S1.309,8.872,1.3,7.518c-.008-.747,0-1.392.008-1.441a.4.4,0,0,1,.106-.159c.08-.076.133-.076,1.506-.076ZM1.935,8.421H3.869V6.486H1.935Z" transform="translate(154 67)" fill="#b0b6b9" stroke="#707070" stroke-width="0.023" fill-rule="evenodd"/></g><g transform="translate(19.29 -5.71)" clip-path="url(#a)"><path d="M5.4,0h2.2C8.978,0,9.813.015,9.862.038a.4.4,0,0,1,.133.171,29.521,29.521,0,0,1,.053,3.869l.087-.083a18.784,18.784,0,0,1,2.5-.724c1.324-.353,2.454-.652,2.515-.668a.354.354,0,0,1,.2.03.343.343,0,0,1,.152.159c.027.061.9,3.395,1.946,7.412s1.916,7.332,1.935,7.37a.48.48,0,0,1,.038.2.282.282,0,0,1-.083.228,17.048,17.048,0,0,1-2.5.736c-1.324.357-2.477.656-2.56.668a.254.254,0,0,1-.224-.053.639.639,0,0,1-.1-.125c-.019-.03-.888-3.342-1.935-7.359S10.1,4.544,10.086,4.514s-.034,3.167-.034,7.252c0,6.414-.008,7.328-.057,7.446a.377.377,0,0,1-.133.171c-.049.027-1.752.038-9.673.038L0,19.193V2.807L.182,2.6,5.2,2.579,5.185.186Zm.444,1.935H9.369V.645H5.841Zm0,1.631H9.369V2.579H5.841Zm-5.2.645,4.533-.019V3.243L.649,3.224Zm10.139.239a3.162,3.162,0,0,0,.14.671,2.146,2.146,0,0,0,.216.645c.027,0,.975-.247,2.105-.55s2.063-.554,2.067-.561-.064-.307-.159-.671-.178-.664-.186-.668-.944.247-2.082.55S10.8,4.43,10.784,4.449Zm-4.942,11.1H9.369V4.21H5.841Zm-5.2-.986H5.2V4.855H.645ZM11.311,6.41c-.038.015-.03.08.03.284a2.014,2.014,0,0,0,.095.284c.011.011.952-.235,2.094-.542s2.082-.561,2.09-.569a1.481,1.481,0,0,0-.049-.284c-.053-.243-.068-.273-.144-.269-.046,0-.982.247-2.075.542s-2.014.546-2.041.554Zm.3,1.237c-.008.019.4,1.62.9,3.562s.929,3.547.941,3.569a17.53,17.53,0,0,0,2.1-.512c1.142-.3,2.086-.561,2.1-.573s-.391-1.608-.891-3.547-.929-3.554-.948-3.588a8.626,8.626,0,0,0-2.109.5c-1.146.3-2.086.569-2.09.588Zm2.041,7.814a3.935,3.935,0,0,0,.125.6c.083.319.159.6.171.618a17.706,17.706,0,0,0,2.109-.512c1.146-.3,2.086-.573,2.094-.592a4.734,4.734,0,0,0-.137-.626c-.087-.322-.156-.592-.156-.6s-.019-.008-.046,0-.967.247-2.094.55-2.06.558-2.067.569ZM.645,16.2l4.533-.019v-.948L.645,15.211Zm5.2.645H9.369V16.2H5.841Zm8.307.516a4.964,4.964,0,0,0,.152.679c.133.523.182.66.228.645.03-.008.967-.258,2.086-.554s2.041-.55,2.056-.561a4.154,4.154,0,0,0-.144-.668c-.091-.357-.167-.649-.167-.656s-.023-.008-.049-.008-.967.25-2.094.554-2.06.558-2.067.569ZM.645,18.776l4.533-.019.008-1.916H.645Zm5.2,0H9.369v-1.29H5.841ZM2.917,5.841c1.422,0,1.426,0,1.6.171v1.43c0,1.381,0,1.434-.076,1.51a.4.4,0,0,1-.163.095c-.046.011-.694.015-1.441.011-1.35-.011-1.354-.011-1.441-.1S1.309,8.872,1.3,7.518c-.008-.747,0-1.392.008-1.441a.4.4,0,0,1,.106-.159c.08-.076.133-.076,1.506-.076ZM1.935,8.421H3.869V6.486H1.935Z" transform="translate(154 67)" fill="#b0b6b9" stroke="#707070" stroke-width="0.023" fill-rule="evenodd"/></g></g></svg>