<svg version="1.2" xmlns="http://www.w3.org/2000/svg" viewBox="0 0 1024 1024" width="100" height="100"><style>.a{fill:#1b1c1b}</style><path fill-rule="evenodd" class="a" d="m510.3 163c45.4 0 53.2 0.2 56.4 1.6 2.1 0.8 5.1 2.7 6.6 4.2 1.6 1.5 3.7 4.4 4.8 6.4 1.5 3.1 1.9 6 1.9 15 0 6.2 0.3 17.8 0.7 25.8 0.6 12.8 1 14.8 2.9 17 1.1 1.4 4.1 3.1 6.5 3.8 2.4 0.8 8.7 3 13.9 4.9 5.2 2 13.9 5.5 19.2 7.9 5.4 2.4 11.2 4.4 12.8 4.4 1.6 0 3.9-0.4 5-1 1.1-0.6 6.9-8.1 13-16.8 6-8.6 13.1-18.4 15.7-21.7 3.4-4.2 6.1-6.4 8.8-7.4 2.4-0.8 5.4-1.1 7.5-0.8 1.9 0.4 6.3 2.4 9.7 4.4 3.5 2.1 11.6 7.5 18 12 6.5 4.5 15.6 11.3 20.3 15 4.7 3.7 15 13.1 22.9 20.8 7.9 7.7 18.3 18.7 23.1 24.5 4.8 5.8 11.1 13.9 14.2 18 3 4.1 9.1 13.4 13.7 20.5 4.5 7.1 8.7 14.6 9.3 16.5 0.6 1.9 0.8 5.2 0.4 7.2-0.3 2.1-1.9 5.3-3.5 7-1.5 1.8-11.3 8.9-21.6 15.8-12.2 8.1-19.2 13.5-20.1 15.2-0.8 1.6-1.4 3.9-1.4 5.3 0 1.4 2 7.8 4.4 14.2 2.4 6.5 5.3 15.2 6.5 19.3 1.2 4.1 2.9 9.6 3.7 12.2 0.8 2.9 2.3 5.3 3.6 6 1.6 0.9 10.4 1.5 29.3 1.8 26.3 0.5 27.1 0.6 30.5 2.9 1.9 1.3 4.9 4.2 9.5 10.6l0.2 54.3c0.3 51.2 0.2 54.4-1.6 58-1 2-3.5 5.2-5.5 7-2 1.7-5.3 3.6-7.4 4.2-2 0.5-14.2 1-27 1-18.6 0-23.8 0.3-26.2 1.5-1.6 0.8-3.6 2.7-4.4 4.3-0.8 1.5-4.6 11.9-8.6 23.2-5.5 16-7 21.3-6.5 24 0.3 1.9 1.1 4.1 1.8 4.9 0.6 0.8 9.7 7.1 20.2 14.1 12.3 8.2 19.8 13.9 21.2 16.1 1.3 1.9 2.6 5 2.9 6.9 0.5 2.6 0 4.9-1.8 9-1.3 3-6.7 12-11.9 20-5.3 8-13.3 19.2-18 25-4.6 5.7-14.7 16.9-22.4 24.9-7.7 7.9-18.5 18.3-24 23-5.5 4.8-14.7 12.1-20.5 16.3-5.8 4.2-14.5 10.1-19.5 13.2-5 3.1-10.4 5.9-12 6.2-1.6 0.4-4.8 0.3-7-0.1-2.8-0.5-5.2-1.9-8-4.9-2.2-2.2-9.6-12.4-16.5-22.5-9.3-13.7-13.3-18.8-15.8-20-3-1.5-3.6-1.5-8 0.1-2.6 0.9-10.1 3.8-16.7 6.5-6.6 2.8-15.6 6.2-20 7.6-4.4 1.4-9.2 3.5-10.8 4.7-1.5 1.1-3.1 3.6-3.7 5.8-0.5 2-1 14.2-1 27 0 18.7-0.3 23.9-1.6 27-0.8 2-2.5 4.8-3.7 6-1.2 1.3-4 3.3-6.2 4.5-3.9 2-5.2 2.1-111 2.2l-4.3-2.2c-2.3-1.3-5.3-3.8-6.6-5.5-1.4-1.8-2.9-5.3-3.5-7.8-0.6-2.5-1.1-15.2-1.1-28.3 0-16.8-0.4-24.5-1.3-26.3-0.6-1.5-2.8-3.4-4.7-4.4-1.9-0.9-5.3-2.3-7.5-3-2.2-0.7-12.3-4.4-22.5-8.2-14.2-5.3-19.3-6.8-21.8-6.4-2.2 0.4-4.1 1.8-6 4.4-1.6 2-8 11.3-14.3 20.6-6.3 9.3-12.9 18.2-14.7 19.7-1.7 1.6-4.9 3.2-7 3.5-2 0.4-5.4 0.1-7.5-0.5-2-0.6-10.3-5.6-18.5-11-8.1-5.5-19.6-13.9-25.7-18.8-6-4.8-16.3-14-22.9-20.3-6.5-6.3-16-16.2-20.9-22-5-5.8-12.7-15.5-17.2-21.5-4.5-6-10.9-15.3-14.2-20.5-3.4-5.2-6.9-11.2-7.7-13.2-0.9-2.1-1.6-5.6-1.6-7.8 0-2.2 0.6-5.2 1.4-6.7 0.7-1.6 3.1-4.2 5.2-5.9 2.2-1.7 10.4-7.5 18.4-12.8 8-5.4 16-11.3 17.7-13.2 2.3-2.4 3.3-4.4 3.3-6.6 0-1.8-1.1-6.4-2.6-10.3-1.5-3.9-4.6-12.6-6.9-19.5-2.3-6.9-5-14-5.9-15.7-0.9-1.8-2.6-3.9-3.9-4.5-1.5-0.9-10.2-1.5-55.5-2.3l-4.4-3c-2.4-1.7-5.4-5.1-9.3-12v-107l2.5-4.5c1.4-2.4 4.4-5.8 11.2-10.5l27.4-0.5c25.6-0.5 27.5-0.6 29.4-2.5 1.1-1.1 3.3-6.5 5-12.2 1.7-5.7 5.1-15.6 7.6-22 2.6-6.5 4.9-13.6 5.2-15.8 0.2-2.2-0.1-5-0.7-6.2-0.6-1.3-9.1-7.5-18.9-13.9-9.7-6.4-19-12.8-20.5-14.2-1.6-1.5-3.5-3.9-4.3-5.4-0.8-1.6-1.4-4.9-1.4-7.5 0-2.9 0.9-6.8 2.4-9.8 1.3-2.7 5.2-9.3 8.6-14.5 3.4-5.2 8.5-12.6 11.3-16.5 2.8-3.9 9.5-12.2 14.8-18.5 5.4-6.3 14.8-16.5 21.1-22.6 6.2-6.1 14.7-14 18.8-17.5 4.1-3.6 13.4-10.7 20.5-15.9 7.1-5.1 16.6-11.7 21-14.6 4.4-2.9 9.4-5.6 11-5.9 1.6-0.4 4.8-0.2 7 0.4 2.2 0.5 5.1 1.8 6.5 2.9 1.4 1 7.3 8.6 13.1 16.8 5.8 8.2 12 17 13.7 19.7 1.8 2.6 4.2 5.4 5.4 6.2 1.3 0.8 3.8 1.5 5.5 1.5 1.8 0 6.3-1.3 10-2.9 3.8-1.6 10.6-4.5 15.3-6.4 4.7-1.9 11.6-4.4 15.5-5.7 3.9-1.2 8.1-2.8 9.5-3.5 1.4-0.7 3.3-2.9 4.2-4.9 1.6-3.1 1.8-6.8 1.8-28.1 0-22.1 0.2-24.9 1.9-28.2 1-2.1 3-4.8 4.3-5.9 1.2-1.2 3.7-2.9 5.3-3.7 2.6-1.4 9.6-1.6 55.7-1.7zm-26.7 107.2c-4.4 0.5-13.2 2-19.5 3.4-6.3 1.4-18.5 4.9-27 7.7-9.5 3.1-21.5 8.1-31 12.8-8.5 4.2-19.1 10.1-23.5 12.9-4.4 2.9-11.8 8.3-16.5 11.9-4.7 3.6-13.8 11.8-20.4 18.1-6.5 6.3-15.5 15.8-19.9 21-4.4 5.2-11.3 14.4-15.3 20.5-4 6.1-9.9 16.2-13.2 22.5-3.4 6.3-7.9 16.1-10.1 21.8-2.3 5.6-5.5 14.8-7.1 20.4-1.7 5.7-4.2 16.2-5.7 23.3-2.2 11.2-2.7 16.3-3.1 37-0.3 19-0.1 26.4 1.2 35.5 0.9 6.3 3 16.9 4.6 23.5 1.6 6.6 4.8 17.4 7.1 24 2.2 6.6 7.2 18.3 11.1 26 3.8 7.7 9.8 18.3 13.2 23.5 3.4 5.2 10 14.2 14.7 20 4.6 5.8 12.7 14.8 17.9 20 5.2 5.3 14.2 13.4 20 17.9 5.8 4.6 14.3 11 19 14.1 4.7 3.1 12.6 8 17.5 10.8 4.9 2.8 13.7 7.1 19.5 9.5 5.8 2.4 16.1 6.3 23 8.5 6.9 2.2 18.1 5.2 25 6.6 6.9 1.4 18.2 3 25.2 3.5 7.1 0.6 17.4 1.1 23 1.1 5.7 0 16.4-0.7 23.8-1.6 7.4-0.8 18-2.4 23.5-3.6 5.5-1.1 14.5-3.4 20-5 5.5-1.6 13.8-4.5 18.5-6.5 4.7-1.9 13.9-6.2 20.5-9.5 6.6-3.2 17.6-9.7 24.5-14.3 6.9-4.6 16.8-11.9 22-16.3 5.2-4.4 13.6-12.2 18.5-17.3 5-5.2 11.3-12.1 14-15.4 2.8-3.3 9.3-12.3 14.4-20 5.2-7.7 12.5-20.3 16.2-28 3.7-7.7 8.5-19.2 10.7-25.5 2.2-6.3 5.1-16.7 6.5-23 1.4-6.3 3.3-16.7 4.3-23 1.3-9.2 1.5-16.3 1.1-35-0.3-18.2-0.9-26.1-2.6-35-1.2-6.3-3.3-15.6-4.7-20.5-1.4-4.9-4.1-13.5-6-19-2-5.5-6.6-16.3-10.4-24-3.8-7.7-10-18.7-13.8-24.5-3.7-5.8-10.4-15-14.8-20.5-4.4-5.5-12.5-14.4-17.9-19.8-5.5-5.4-14-13.1-19-17.2-5-4-14.2-10.8-20.5-15-6.3-4.2-18.3-11-26.5-15-8.3-4.1-20.9-9.4-28-11.8-7.1-2.5-18.4-5.7-25-7.2-6.6-1.5-16.7-3.3-22.5-4.1-6.2-0.8-18.2-1.3-29.5-1.2-10.4 0-22.6 0.5-27 1zm31 43.2c15.3 0.3 24.4 0.9 30 2 4.4 0.9 11.4 2.5 15.5 3.6 4.1 1 11.5 3.3 16.5 5.1 5 1.7 13.8 5.6 19.7 8.5 6 3 13.8 7.3 17.5 9.5 3.8 2.3 9.7 6.4 13.3 9.1 3.6 2.7 11 8.8 16.4 13.6 5.4 4.8 13.5 13 17.9 18.2 4.3 5.2 11.1 14.2 14.9 20 3.8 5.8 9.6 15.9 12.8 22.5 3.2 6.6 7.7 17.4 9.8 24 2.2 6.6 5 16.5 6.1 22 1.2 5.5 2.7 16.5 3.3 24.5 0.9 11.3 0.9 17.2 0 27-0.7 6.9-2.3 17.5-3.6 23.5-1.3 6-4 16-6.1 22-2 6-5.8 15.5-8.4 21-2.6 5.5-7.3 14-10.3 19-3.1 5-7.8 11.9-10.4 15.5-2.7 3.6-9.9 11.6-15.9 17.9-6 6.3-13.9 13.7-17.5 16.6-3.6 2.9-11.5 8.5-17.5 12.5-6 3.9-15.6 9.4-21.3 12.1-5.6 2.7-16.8 7.1-25 9.8-8.1 2.7-19.9 6-26.2 7.3-10.1 2-14.4 2.3-35.5 2.3-18.8 0-25.8-0.4-32.5-1.7-4.7-1-14.4-3.4-21.5-5.3-10.2-2.8-16.9-5.5-31-12.5-10-5-22-11.8-27-15.5-4.9-3.5-13.5-10.4-19-15.3-5.5-4.9-13.2-12.7-17.1-17.3-4-4.6-10.7-13.6-15-19.9-4.2-6.3-10.6-17.4-14-24.5-3.4-7.1-7.8-18.2-9.8-24.5-2-6.3-4.5-15.8-5.7-21-1.6-7.3-2.2-14.4-2.6-30.5-0.4-16.7-0.2-23.2 1.1-32 1-6.1 3-15.9 4.5-22 1.6-6.1 4.9-16.2 7.5-22.5 2.5-6.3 7.1-16 10.2-21.5 3.1-5.5 9.3-14.9 13.8-21 4.6-6.1 12.9-15.9 18.7-21.9 5.7-6 13.8-13.5 17.9-16.6 4.1-3.1 11.6-8.4 16.5-11.7 4.9-3.4 14.4-8.8 21-12.1 6.6-3.3 15.1-7.2 19-8.7 3.9-1.4 11.9-3.9 18-5.5 6.1-1.7 15.1-3.7 20-4.5 6.5-1 15-1.3 31-1.1zm-14 69.2c-1.6 0.2-6.1 0.9-10 1.5-3.9 0.6-10.6 2.3-15 3.6-4.4 1.4-12.1 4.4-17 6.7-4.9 2.3-12.4 6.5-16.5 9.3-4.1 2.7-10.6 7.7-14.5 11-3.9 3.3-10 9.6-13.6 13.9-3.7 4.4-9.2 11.9-12.3 16.9-3.1 5-7.1 12.4-8.8 16.5-1.7 4.1-4.1 11.8-5.5 17-1.3 5.2-2.8 13.8-3.4 19-0.8 6.7-0.8 13.1 0 21.5 0.6 7.3 2.2 15.9 3.9 22 1.6 5.5 4.3 13.4 6 17.5 1.7 4.1 6.4 12.5 10.3 18.5 4.8 7.3 10.5 14.2 16.8 20.5 5.3 5.2 13 11.8 17.1 14.6 4.1 2.9 11.1 7 15.5 9.2 4.4 2.2 11.4 5.2 15.5 6.6 4.1 1.5 11.9 3.6 17.2 4.6 6.8 1.4 13.9 2 23 2 7.3 0 17.6-0.7 22.8-1.5 5.2-0.9 14-3.1 19.5-4.9 5.5-1.9 13.8-5.3 18.5-7.6 4.7-2.4 11-5.9 14-8 3-2 8.6-6.4 12.5-9.7 3.9-3.3 10.5-10.2 14.7-15.4 4.2-5.2 10.2-13.9 13.2-19.4 3.1-5.5 7.2-14.9 9.1-21 1.9-6 4.2-15.5 5-21 0.8-5.5 1.5-12.7 1.5-16 0-3.3-0.5-10-1.1-15-0.6-5-2.2-13.3-3.5-18.5-1.3-5.2-4.2-13.1-6.3-17.5-2.2-4.4-6.3-11.6-9.2-16-2.8-4.4-8-11.4-11.5-15.5-3.4-4.1-8.7-9.6-11.6-12.1-2.9-2.5-8.9-7.2-13.3-10.4-4.4-3.1-12.5-7.9-18-10.5-5.5-2.7-13.7-6-18.3-7.4-4.5-1.4-13.4-3.3-19.7-4.1-6.3-0.8-14.3-1.4-17.8-1.4-3.4 0.1-7.6 0.4-9.2 0.5z"/></svg>