<svg version="1.2" xmlns="http://www.w3.org/2000/svg" viewBox="0 0 1024 1024" width="100" height="100"><style>.a{fill:#070708}</style><path fill-rule="evenodd" class="a" d="m657 45c3.3 0 6.8 0.4 7.8 0.9 0.9 0.5 4.2 1.6 7.2 2.5 3 0.8 8 3.4 11 5.6 3 2.3 18.6 17 34.5 32.8 17.4 17.2 30.1 30.6 31.8 33.5 1.5 2.6 2.7 5.4 2.7 6.2 0 0.8 0.4 1.5 1 1.5 0.5 0 0.9 0.3 0.8 0.8-0.1 0.4 0.4 2.5 1 4.7 0.7 2.2 1.2 7.6 1.2 12 0 6.2-0.6 9.7-2.7 15.5-2.3 6.3-3.7 8.6-9.2 14.1-5.7 5.6-7.7 6.9-14.4 9.2-5.5 1.9-9.6 2.7-21.2 2.6l-15 15.4c-8.3 8.5-15.8 16.4-16.8 17.6-1.6 2-1.6 2.5 1.5 11.4 2.8 7.9 3.2 10.6 3.3 19.2 0 8.8-0.4 10.9-3 17.5-1.6 4.1-4.8 9.8-7.1 12.5-2.2 2.8-5.4 5.9-7 7-1.6 1.1-4.9 3-7.4 4.3-2.5 1.3-8.3 3.1-21.5 5.8l4.1 3.5c2.3 1.8 6.6 6.3 9.6 9.9 3.2 3.9 6.6 9.5 8.4 14 1.7 4.1 3.4 8.3 3.8 9.3 0.3 0.9 2.3 2.4 4.3 3.2 2.1 0.9 6.7 3 10.3 4.7 3.6 1.8 9.6 5 13.5 7.2 3.8 2.2 7.2 4.3 7.5 4.6 0.3 0.3 2.5 1.8 5 3.4 2.5 1.6 8.8 6.4 14 10.7 5.2 4.2 12.5 10.6 16.1 14.1 3.6 3.4 11.5 12.1 17.4 19.3 6 7.1 12 14.8 13.4 17 1.4 2.2 3.4 4.9 4.4 6 0.9 1.1 1.7 2.3 1.7 2.8 0 0.4 1.3 2.6 2.8 5 1.6 2.3 4.9 8.5 7.4 13.7 2.5 5.2 5.7 12.2 7.1 15.5 1.4 3.3 4.4 11.6 6.7 18.5 2.3 6.9 4.8 15.4 5.6 19 0.9 3.6 1.7 7.4 1.9 8.5 0.2 1.1 1.1 6 2 11 1.1 5.7 1.9 17.1 2.2 31 0.4 17.2 0.2 25.3-1.2 37-0.9 8.3-2.1 15.6-2.6 16.3-0.5 0.6-0.6 1.8-0.3 2.5 0.4 0.6 0.2 2.1-0.4 3.2-0.5 1.1-1.5 4.7-2.2 8-0.7 3.3-2.9 10.9-5 17-2.1 6-5.4 15.3-7.5 20.5-2.1 5.2-5.8 13.5-8.3 18.5-2.5 4.9-7.1 13-10.1 17.8-3.1 4.9-9 13.2-13.2 18.5-4.1 5.3-12.2 14.6-18 20.6-5.7 6-14.2 14.1-18.9 18-4.7 3.9-10 8.2-15.2 12.1l2.4 4c1.3 2.2 3.3 6.3 4.5 9 1.1 2.8 2.8 6.8 3.7 9 0.8 2.2 2.3 6.7 3.2 10 1.2 4.4 1.8 12.7 2.9 56.3l16.5 0.4c15.4 0.4 17.1 0.7 25.5 3.7 4.9 1.7 12.1 5.1 16 7.4 3.8 2.3 9.5 6.7 12.6 9.7 3.1 3 7.4 7.8 9.5 10.5 2.1 2.8 5 7 6.4 9.5 1.5 2.5 3.9 8.2 5.4 12.8 1.4 4.5 2.6 9.5 2.6 11.2 0 1.6 0.4 3.2 1 3.5 0.6 0.3 1 7.7 1 19 0 11.3-0.4 18.7-1 19-0.6 0.3-1 1.4-1 2.5 0 1.1-1.1 4.1-2.4 6.8-1.3 2.6-3.7 5.9-5.5 7.5-1.7 1.5-5 3.2-7.4 3.9-2.3 0.6-4.6 1.5-5.2 2-0.5 0.4-126.7 0.8-280.5 0.8-153.7 0-280-0.3-280.5-0.8-0.6-0.4-2.8-1.4-5-2.1-2.2-0.8-5.5-2.6-7.3-4-1.9-1.4-4.5-4.8-5.8-7.6-1.3-2.7-2.4-6.2-2.4-7.7 0-1.6-0.5-3-1-3.3-0.6-0.3-1-7-1-17 0-10 0.4-16.7 1-17 0.5-0.3 1-2.1 1-4 0-1.9 1.2-7.2 2.6-11.7 1.5-4.6 2.9-8.5 3.3-8.8 0.3-0.3 1.2-1.9 2-3.5 0.7-1.7 3.6-6.2 6.4-10 2.9-3.9 6.7-8.6 8.7-10.5 1.9-1.9 4.2-4 5.1-4.5 0.9-0.6 4.2-2.8 7.5-4.9 3.2-2.2 8.5-5 11.6-6.3 3.2-1.3 6.6-2.3 7.6-2.3 1 0 2.2-0.4 2.7-1 0.6-0.5 4.1-1.4 8-1.9 4.4-0.7 43.3-1.1 199.5-1.1v-138l-113.8 0.1c-62.5 0.1-114.6 0.1-115.7 0-1.1-0.1-4.3-1.4-7-2.8-2.8-1.4-6.2-3.7-7.8-5.2-1.5-1.4-3.5-4.8-4.5-7.6-1.5-4.3-1.7-9.2-1.7-36 0-27.7 0.2-31.5 1.8-35.5 1-2.5 2.8-5.6 4-6.9 1.2-1.2 4.8-3.6 13.7-8.1h307l4.7 2.3c2.5 1.2 6 3.8 7.7 5.8 1.7 2 3.7 5.4 4.3 7.5 0.9 2.7 1.3 12 1.3 29.7 0 22.2 0.2 25.7 1.5 25.7 0.8 0 4.8-0.5 8.7-1 4-0.6 8.2-1.5 9.3-2 1.1-0.4 4-1.3 6.5-1.9 2.5-0.5 6.3-1.8 8.5-2.7 2.2-1 4.2-1.8 4.5-1.9 0.3-0.1 1.6-0.7 3-1.2 1.4-0.6 5.9-3.1 10-5.5 4.1-2.3 10.2-6.4 13.5-9 3.3-2.5 8.5-7.2 11.6-10.5 3.1-3.2 7.7-8.4 10.3-11.5 2.5-3.2 6.2-9 8.1-12.8 1.9-3.9 4.8-10.3 6.4-14.2 1.5-4 3.7-11.6 4.7-16.8 1.3-7.2 1.8-14.3 1.8-29.5 0-16.9-0.3-21.6-2.2-30.2-1.2-5.7-2.6-11.1-3.1-12-0.5-1-3.1-6.1-5.7-11.3-2.6-5.2-5.2-10.5-5.8-11.7-0.6-1.3-1.4-2.3-1.9-2.3-0.4 0-0.7-0.5-0.7-1 0-0.6-1.4-3.1-3.2-5.7-1.8-2.7-7.5-9.1-12.8-14.4-5.2-5.2-12.4-11.6-16-14.1-3.6-2.6-12.1-7.5-31.5-17.2l-13-0.8c-10.5-0.7-14.8-1.5-22-4-5-1.7-10.4-3.7-12-4.6-1.7-0.8-3.7-2.1-4.5-2.8-1.3-1.2-4.5 1.6-24.8 21.8-12.8 12.8-23.2 23.6-23.2 24.1 0 0.4 1.4 3.5 3.1 7 1.7 3.4 3.9 9.3 4.7 13.2 0.9 3.8 1.6 9 1.6 11.5 0 2.5-0.7 7.6-1.6 11.5-0.8 3.8-2.4 8.6-3.3 10.5-1 1.9-4.8 6.4-8.4 10-5.5 5.5-7.7 6.9-13.1 8.6-3.6 1.2-8.6 2.6-11.3 3.3-2.6 0.6-5.9 1.1-7.5 1.1-1.5 0-7-1.3-12.2-3-5.2-1.6-11.5-4.4-14-6.1-2.5-1.8-6.1-4.7-11.5-9.9l-19 19.2c-14.8 15.1-20.2 19.9-24.5 22-3 1.4-7.8 3.3-10.5 4.3-2.8 0.9-8.2 1.9-12 2.2-3.9 0.3-10.3 0-14.3-0.6-3.9-0.6-7.4-1.6-7.7-2.1-0.3-0.6-1.3-1-2.3-1-0.9 0-4.1-1.2-7-2.5-2.8-1.4-5.2-3-5.2-3.5 0-0.6-0.6-1-1.3-1-0.6 0-3.8-2.6-6.9-5.7-3.2-3.2-5.8-6.3-5.8-6.8-0.1-0.6-0.7-1.5-1.6-2-0.8-0.6-3-5.5-4.9-11-3.1-8.8-3.5-11.2-3.5-20.2 0-5.7 0.4-11.1 1-12 0.5-1 1.4-3.7 2-6 0.5-2.4 3.1-7.3 5.6-11 2.6-3.8 12.1-14.2 21.1-23.3 9-9.1 16.3-16.8 16.1-17.1-0.2-0.4-3.5-3.5-7.3-6.9-3.9-3.4-10.1-9.2-13.9-12.9-3.7-3.6-8.1-8.4-9.6-10.6-1.6-2.2-3.6-6.2-4.5-9-0.9-2.7-2.1-6.1-2.8-7.4-0.7-1.3-1.2-6.3-1.2-11.1 0-4.8 0.5-9.8 1.2-11.1 0.6-1.3 1.9-4.9 2.9-7.9 1.4-4.6 3.1-6.9 9.8-13.6 6.8-6.8 9.1-8.4 14.6-10.3 4-1.4 10-2.5 24.5-3.3l13.9-14.2c7.6-7.7 24.5-25 37.5-38.3 13-13.3 31.2-32.1 40.6-41.9 9.3-9.7 24-25 32.5-33.8 8.6-8.9 19.5-20.2 32.8-34.1l0.4-11c0.3-8 1-12.5 2.6-16.5 1.3-3.5 4.3-7.9 8.4-12.4 3.5-3.7 7.6-7.6 9.3-8.6 1.6-1 6.8-3.1 11.5-4.6 7.3-2.3 9.8-2.6 17.6-2.3 5 0.2 9.7 0.9 10.5 1.6 0.8 0.6 2.3 1 3.4 0.9 1.1-0.2 9.5-8.1 35.4-35.1l0.1-5.3c0-2.8 0.3-5.4 0.7-5.6 0.5-0.2 1.2-2.6 1.6-5.2 0.4-2.7 2.2-7.8 3.9-11.4 1.9-3.9 5.4-8.8 8.7-12.1 3.1-3.1 7.8-6.6 10.6-7.8 2.7-1.2 6.9-2.5 9.3-2.9 2.3-0.4 4.2-1 4.2-1.5 0-0.4 2.7-0.7 6-0.7zm-9.6 39.3c-0.9 1.8-1.4 4.3-1.1 5.7 0.4 1.5 7.9 9.6 18.4 20 9.8 9.6 23.9 23.5 31.3 30.7 13 12.8 13.7 13.2 17.7 13.3 3.1 0 5.1-0.7 7.3-2.5 1.7-1.4 3.3-3.9 3.6-5.7 0.4-1.9 0.1-4.3-0.7-5.8-0.7-1.4-14.8-16.1-31.3-32.7-27.9-28-30.4-30.2-33.6-30.3-1.9 0-5 0.9-6.8 2-1.7 1.1-3.9 3.5-4.8 5.3zm-44.2 67c-0.1 0.7 5.5 7 12.5 14 11.7 11.8 13 12.8 15.1 11.8 1.2-0.6 2.2-1.6 2.2-2.1 0-0.6 6-6.9 13.3-14l13.2-13c-4.7-5-10.5-10.9-16-16.3-5.5-5.4-10.5-9.7-11.2-9.7-0.7 0-7.4 6.3-15 14-7.6 7.8-13.9 14.6-14.1 15.3zm-53.5 12.4c-1.1 1-2.7 3.7-3.8 6.1-1.1 2.4-1.6 5.2-1.3 6.5 0.3 1.2 14 15.6 30.3 32 16.3 16.5 35.8 35.7 43.4 42.8l13.7 12.9c10.1 0.1 10.8-0.2 14.1-3.7 2.2-2.4 3.9-5.3 4.3-7.8 0.5-2.3 0.4-5.5-0.2-7.5-0.9-2.7-10.5-12.7-41.2-43-24.7-24.3-41.4-40-43.3-40.7-1.8-0.7-4.1-1.2-5.2-1.1-1.1 0-3.6 0.4-5.5 0.9-1.9 0.5-4.3 1.7-5.3 2.6zm-150.2 183l-17 17.3c32.4 31.4 46.4 45.1 51.9 50.8 5.6 5.6 10.5 10.3 11.1 10.3 0.5 0 6.5 5.6 13.2 12.4l12.3 12.5 46.5-47c-5.2-9.7-7.3-14.5-8.1-17-0.7-2.5-1.9-9.2-2.5-15-0.6-5.8-0.9-13.4-0.6-17 0.3-3.6 1.3-10.1 2.2-14.5 0.9-4.4 3.3-11.4 5.3-15.5 2-4.1 4.9-9.3 6.4-11.5 1.4-2.2 4.8-6.1 7.5-8.7 2.6-2.5 7.5-6.5 10.8-8.7 3.3-2.3 6.3-4.1 6.7-4.1 0.5 0 3.2-1.1 6-2.5 2.9-1.4 7.5-3.2 10.3-4.1 3.2-1 10.4-1.8 20.5-2.1 10.1-0.4 16.8-0.2 19.2 0.6 3.3 1 3.9 0.9 4.4-0.6 0.5-1.4-7.6-9.9-35-37-19.6-19.4-35.8-35.3-36-35.3-0.2 0-26.9 26.9-59.3 59.7-32.3 32.9-66.5 67.6-75.8 77zm163.5-30.6c-4.5 2.1-9.3 5.3-12 8-2.5 2.5-5.3 5.6-6.3 6.9-0.9 1.4-3 5.6-4.5 9.5-2.4 6.1-2.7 8.4-2.7 18 0 9.8 0.3 11.8 3 18.5 2.4 6.2 4.2 8.8 10.5 15.2 5 5.1 9.3 8.5 13 10.1 3 1.4 9.1 3.1 13.5 3.8 6.2 0.9 9.8 0.9 16 0 4.7-0.6 10.5-2.3 14-4 4.2-2 8-5.1 12.8-10.3 4.6-4.9 7.5-9 8.8-12.5 1-2.9 2.4-8.6 3-12.5 0.8-5.4 0.8-9.6 0-15.8-0.7-5.5-2.1-10.6-4-14.5-1.9-3.9-5.2-8.2-9.3-12-3.7-3.6-9.1-7.4-13.3-9.5-6.5-3.1-7.8-3.4-18-3.6-6.1-0.2-12.4 0.1-14 0.5-1.7 0.4-6.4 2.3-10.5 4.2zm-223 67.7c-1.4 1-3.3 3.5-4.3 5.5-1.3 2.9-1.5 4.5-0.8 7.5 0.8 3.1 6.3 9 31.8 34.2 16.9 16.8 43.4 43 58.8 58.2l28 27.7c10.3 0.1 11.1-0.2 14.5-3.7 2.1-2 4.2-5.3 4.8-7.2 0.6-2.2 0.7-5 0.1-7.5-0.7-3.4-3.2-6.4-17.1-20-9-8.8-22.6-22.1-30.3-29.5-7.7-7.4-22.8-22-33.6-32.5-10.7-10.4-22.8-22-26.7-25.8-4-3.7-9-7.6-11.2-8.7-2.2-1.1-4.1-2-4.3-1.9-0.1 0.1-1.8 0.5-3.7 1-1.9 0.4-4.6 1.6-6 2.7zm-10.9 129.2c-1.1 2.5-2.1 6.5-2.1 9 0 2.5 0.9 6.3 1.9 8.5 1.1 2.2 4 5.9 6.5 8.3 3 2.8 6.4 4.7 9.8 5.7 2.9 0.8 6.4 1.5 7.8 1.5 1.4 0 4.3-0.6 6.5-1.2 3.1-0.9 6.5-3.7 14.8-12.2 5.9-6.1 10.7-11.7 10.7-12.3 0-0.7-2.5-3.7-5.7-6.5-3.1-2.9-9.9-9.7-15.2-15-5.3-5.4-10.3-9.7-11.2-9.8-0.8 0-6.1 4.4-11.6 9.8-6.5 6.2-10.9 11.3-12.2 14.2zm-72.8 146l0.2 18.5c253.7 0.4 282.5 0.2 282.6-0.7 0-0.7 0-9.4-0.1-19.3-0.1-9.9-0.4-18.3-0.6-18.7-0.2-0.5-63.6-0.8-140.9-0.8-113.5 0-140.6 0.2-140.9 1.3-0.3 0.7-0.4 9.6-0.3 19.7zm321.9 114.1c-1.7 2.4-3.5 6.2-4.1 8.4-0.6 2.2-1.1 6-1.1 8.5 0 2.7 0.9 6.3 2.3 8.9 1.2 2.5 4.2 6.2 6.7 8.3 2.5 2.1 6.1 4.4 8 5 1.9 0.6 6.5 0.9 10.1 0.7 5-0.3 7.5-1 10.7-3.1 2.3-1.6 5.6-4.7 7.2-7 1.7-2.4 3.6-6.1 4.2-8.3 0.5-2.2 0.7-6.2 0.4-9-0.3-2.7-1.7-6.8-3-9-1.3-2.2-3.7-5.2-5.3-6.7-1.5-1.5-4.5-3.4-6.6-4.2-2-0.9-6.5-1.6-10-1.6-4.4 0-7.7 0.6-11.4 2.4-3.5 1.6-6.1 3.7-8.1 6.7zm-308.7 110.5c-2.8 1.4-7.3 4.3-10 6.4-2.8 2.1-6.4 5.6-8.1 7.7-1.7 2.1-4.3 6.2-5.8 9.1-1.4 2.8-3.3 7.8-4.1 11-0.9 3.4-1.5 10.1-1.5 17v11.2l28.5-0.5c0.9-7 1.8-10.4 2.7-12 0.8-1.7 3.3-4.5 5.4-6.3 2.1-1.8 5.5-3.7 7.4-4.3 2.3-0.7 78.9-0.9 230.5-0.7l227 0.3c7 4.1 10.2 7 11.7 9.1 1.7 2.4 3.1 6 3.5 9.2l0.8 5.2h27.5c0-12-0.5-18.9-1-23-0.7-5.1-2.2-10.1-4.8-15.4-2.7-5.6-5.4-9.4-9.7-13.6-3.8-3.7-8.7-7.1-13.5-9.4-5-2.4-10-3.9-15-4.6-4.7-0.6-91.3-0.9-231.5-0.9-133.2 0.1-226.2 0.5-229.5 1.1-3 0.5-7.8 2-10.5 3.4zm117-128.3c39.8 0.2 44.3 0.4 47 1.9 1.6 1 3.6 1.8 4.2 1.8 0.7 0 3.6 2.1 6.4 4.8 2.9 2.6 6.2 7.1 7.7 10.2 2 4.3 2.6 7.1 2.7 12.5 0 3.8-0.6 9-1.3 11.5-0.8 2.8-3.2 6.7-6.5 10.4-3.3 3.7-7.1 6.8-10.2 8.3-5 2.3-5 2.3-50.8 2.3-41.5 0-46.1-0.2-50.5-1.8-2.6-1-6.3-2.9-8.2-4.4-1.9-1.4-4.7-4.3-6.3-6.4-1.5-2.2-2.9-4.6-3.1-5.4-0.1-0.8-0.7-2.4-1.2-3.5-0.5-1.1-0.9-5.4-0.9-9.5 0-5.7 0.5-8.6 2.2-12.2 1.3-2.7 2.3-5.1 2.3-5.5-0.1-0.5 1.7-2.7 4-5 2.2-2.4 5.7-5 7.7-5.9 2.1-0.9 5.4-2.3 7.3-3 2.8-1.1 12.6-1.3 47.5-1.1zm203.4-419.2c2.5 0.4 5.9 1.3 7.6 2.1 1.6 0.9 4.6 3.3 6.5 5.5 1.9 2.2 4.1 5.8 4.7 7.9 0.7 2.1 1.3 5.9 1.3 8.4 0 2.5-0.6 6.3-1.3 8.4-0.6 2.2-3 6-5.2 8.4-2.2 2.5-5.8 5.4-8 6.3-2.7 1.2-6.4 1.9-11.3 1.9-5.1 0-8.3-0.6-11-1.9-2-1-5-3.6-6.7-5.7-1.6-2.2-3.5-5.5-4.2-7.4-0.7-1.9-1.2-6.4-1.2-10 0-4.2 0.6-7.9 1.8-10.5 1-2.2 2.9-5.2 4.2-6.6 1.3-1.4 4-3.4 5.9-4.4 1.9-1 5.5-2.1 7.9-2.4 2.4-0.4 6.4-0.4 9 0z"/></svg>