<svg version="1.2" xmlns="http://www.w3.org/2000/svg" viewBox="0 0 1792 1024" width="200" height="114">
	<title>DALL·E 2023-10-22 13</title>
	<style>
		.s0 { fill: #2e4053 } 
	</style>
	<g id="Background">
		<path id="Path 1" fill-rule="evenodd" class="s0" d="m893.8 145.1c14.9 0 30.5 0.4 34.5 0.9 3.9 0.6 10.8 1.5 15.2 2.1 4.4 0.6 13.4 2.2 20 3.5 6.6 1.3 17.6 4.1 24.5 6.2 6.9 2.2 17.5 5.8 23.5 8.2 6.1 2.3 17.8 7.5 26 11.4 8.3 4 19.5 9.8 25 13.1 5.5 3.2 14.1 8.5 19 11.8 5 3.3 12.6 8.8 17 12.1 4.4 3.4 11.8 9.3 16.5 13.3 4.7 3.9 12.1 10.9 16.6 15.5 4.4 4.5 10.9 11.4 14.5 15.3 3.5 3.9 11.1 13.3 16.9 21 5.8 7.7 14 19.6 18.3 26.5 4.3 6.9 10.5 17.7 13.7 24 3.2 6.3 7.5 15.3 9.5 20 2 4.7 5.3 12.8 7.2 18 1.9 5.2 5.4 16.5 7.8 25 2.4 8.5 4.5 16.7 4.7 18.2 0.2 1.4 0.6 3 1 3.5 0.4 0.4 0.5 1.2 0.2 1.8-0.2 0.6 3.2 1.8 7.8 2.7 4.6 1 11.5 3 15.3 4.6 3.8 1.6 9.7 4.6 13 6.7 3.3 2.2 8.2 6.2 10.9 8.9 2.7 2.8 6.4 7.4 8.2 10.1 1.8 2.8 4.7 8.6 9.9 21v88l-3.2 9c-1.8 5-4.8 11.4-6.5 14.3-1.8 2.9-5.3 7.6-7.8 10.4-2.5 2.8-7 7-10 9.4-3 2.3-8.9 5.8-13 7.8-4.1 1.9-10.4 4.3-14 5.2-3.6 0.9-12.7 2.1-34.2 3.9l-2.8 7.5c-1.5 4.1-5 12.2-7.7 18-2.7 5.8-7.3 14.5-10.3 19.5-2.9 5-8.2 13.3-11.8 18.5-3.6 5.2-7.8 11-12.2 16l0.1 77.5-6.3 6c-3.5 3.3-9 8.3-12.3 11-3.3 2.8-6.5 5.5-7.1 6-0.6 0.5-2.6 2.1-4.4 3.5-1.8 1.4-4.5 3.4-6 4.5-1.5 1.1-5.2 3.8-8.1 6.1-3 2.3-10.3 7.2-16.4 10.9-6 3.8-18 10.3-26.5 14.5-8.5 4.3-20 9.6-25.5 11.8-5.5 2.2-11.8 4.6-14 5.5-2.2 0.8-10.1 3.3-17.5 5.5-7.4 2.3-16.2 4.8-19.5 5.7-3.3 0.9-11.2 2.7-17.5 4-6.3 1.3-14.2 2.9-17.5 3.4-3.3 0.6-8.2 1.3-11 1.6-2.7 0.4-7.7 1-11 1.5-3.3 0.5-15 1.2-26 1.5-11.7 0.4-27.4 0.2-38-0.4-9.9-0.6-21.8-1.6-26.5-2.2-4.7-0.5-14.6-2.1-22-3.5-7.4-1.4-19.3-4-26.5-5.9-7.1-1.8-19.7-5.7-28-8.5-8.2-2.9-19.3-7-24.5-9.2-5.2-2.2-16-7.3-24-11.3-8-4-18.3-9.5-23-12.3-4.7-2.7-13.5-8.5-19.5-12.8-6.1-4.4-15.3-11.3-20.5-15.5-5.2-4.2-12.5-10.4-23-19.9v-78l-6.3-8.2c-3.5-4.6-9.4-13.3-13.2-19.3-3.8-6-10.2-18-14.3-26.5-4.1-8.5-8.4-18.1-11.7-27l-11-0.5c-6-0.2-14.1-1.1-18-1.9-3.8-0.8-9.9-2.5-13.5-3.8-3.6-1.3-9.6-4.4-13.5-7-3.8-2.5-9.1-6.8-11.7-9.4-2.6-2.7-5.9-6.5-7.4-8.4-1.4-1.9-4.3-6.9-6.4-11-2-4.1-4.5-10.6-5.5-14.5-1.6-6.2-1.8-11.5-1.7-47.5 0.1-36.3 0.3-41.2 2-47 1-3.6 3.6-9.9 5.8-14 2.6-5 6.3-9.9 10.9-14.5 3.8-3.9 9.9-8.7 13.5-10.7 3.6-2.1 11-5.2 16.5-7 5.5-1.7 10.1-3.2 10.2-3.2 0.1-0.1 1.6-6.6 3.3-14.6 1.6-8 4.2-18.1 5.6-22.5 1.5-4.4 4.7-13.4 7.1-20 2.5-6.6 7.3-17.9 10.7-25 3.4-7.1 9.8-18.9 14.1-26 4.3-7.1 12.3-19.1 17.8-26.5 5.6-7.4 13.9-18 18.6-23.4 4.8-5.5 13.6-14.8 19.6-20.7 6.1-5.9 14.6-13.8 19-17.5 4.4-3.8 11.2-9.2 15-12 3.9-2.8 12.2-8.4 18.5-12.4 6.3-4.1 16.5-10 22.5-13.2 6.1-3.1 16-7.8 22-10.4 6.1-2.5 17.3-6.8 25-9.6 7.7-2.7 19.2-6.2 25.5-7.8 6.3-1.6 16-3.8 21.5-4.9 5.5-1.1 12-2.3 14.5-2.7 2.5-0.4 9.5-1.2 15.5-1.9 6.1-0.7 23.3-1.3 38.3-1.4zm-40.8 30.5c-6.3 0.7-15.8 2-21 2.9-5.2 0.9-16.2 3.3-24.5 5.5-8.2 2.1-20.6 6-27.5 8.5-6.9 2.6-19.7 8.2-28.5 12.5-8.8 4.3-20.7 10.7-26.5 14.1-5.8 3.5-14.8 9.5-20 13.4-5.2 3.8-13.3 10.1-18 14-4.6 3.8-12.8 11.3-18 16.5-5.3 5.2-13.2 13.8-17.6 19-4.4 5.2-9.5 11.5-11.5 14-2 2.5-7.2 9.9-11.5 16.5-4.4 6.6-9.2 14-10.6 16.5-1.4 2.5-5.1 9.5-8.1 15.5-3 6-7.1 14.8-9 19.5-2 4.7-5.8 15.7-8.7 24.5-2.8 8.8-5.3 16.7-5.5 17.5-0.3 0.8 2.6-1.9 6.3-6 3.7-4.1 9.2-10 12.2-13 3-3 9.1-8.7 13.5-12.6 4.4-3.9 9.5-8.4 11.4-10 1.9-1.6 3.9-3.4 4.5-3.9 0.6-0.6 5.4-4.2 10.6-8.1 5.2-3.9 13.8-10 19-13.6 5.2-3.6 14-9.2 19.5-12.5 5.5-3.4 17.9-9.9 27.5-14.6 9.6-4.7 21.1-10 25.5-11.7 4.4-1.8 14.3-5.4 22-8.1 7.7-2.6 19.4-6.4 26-8.3 6.6-1.9 17.4-4.6 24-6 6.6-1.4 18.1-3.5 25.5-4.6 7.4-1.2 21.8-2.8 32-3.6 10.2-0.7 24.1-1.4 31-1.4 6.9 0 17.7 0.5 24 1 6.3 0.6 16 1.5 21.5 2 5.5 0.6 18.8 2.9 29.5 5 10.7 2.2 25.8 5.7 33.5 7.9 7.7 2.2 17.8 5.4 22.5 7.1 4.7 1.7 13.7 5.2 20 7.7 6.3 2.6 17.6 7.6 25 11.3 7.4 3.7 18.7 9.8 25 13.7 6.3 3.8 12.7 7.7 14.3 8.6 1.5 0.9 2.7 1.4 2.7 0.9 0-0.4-3.8-8.3-8.4-17.7-4.6-9.4-11.3-21.5-14.8-27-3.5-5.5-9.8-14.5-13.9-20-4.2-5.5-11.4-14.3-16.1-19.5-4.6-5.2-12.2-12.9-16.9-17.1-4.6-4.1-11.3-9.8-14.9-12.6-3.6-2.8-10.5-7.7-15.5-10.9-4.9-3.2-13.9-8.4-20-11.5-6-3.1-14.8-7.1-19.5-8.9-4.7-1.7-11.9-4.3-16-5.5-4.1-1.3-10.2-3.1-13.5-3.9-3.3-0.8-10.4-2.2-15.7-3-7.3-1.2-16.9-1.6-37.5-1.5-16.5 0.1-32.5 0.7-39.3 1.5zm8 114.6c-6.9 0.5-19 1.9-27 3.3-8 1.3-20.6 4-28 5.9-7.4 1.9-18.9 5-25.5 7-6.6 2-14 4.3-16.5 5.2-2.5 0.9-12.2 4.8-21.5 8.6-9.3 3.8-21.3 9.2-26.5 12-5.2 2.8-13.7 7.6-18.8 10.7-5.1 3.1-10.7 6.5-12.5 7.6-1.8 1-7.2 4.8-12.2 8.4-5 3.6-14.6 11.1-21.5 16.5-6.9 5.6-21.3 18.9-32.3 30.1l-19.8 20c-3 13.2-4.6 23.5-5.4 31.5-1.3 11.6-1.6 22.5-1.2 55 0.3 35.1 0.7 42.2 2.5 53 1.1 6.9 3.4 17.9 5.1 24.5 1.7 6.6 4.3 15.8 6 20.5 1.6 4.7 5.2 13.9 8.1 20.5 2.8 6.6 7.5 16.3 10.3 21.5 2.8 5.2 8.2 14.2 12.1 20 3.8 5.8 9.9 14.3 13.5 19 3.6 4.6 10.9 12.9 16.1 18.4 5.2 5.5 14.7 14.3 21 19.5 6.3 5.3 16.7 13.1 23 17.3 6.3 4.2 15.5 9.8 20.5 12.5 5 2.7 15.5 7.8 23.5 11.5 8 3.6 19.7 8.6 26 11.1 6.3 2.4 12.6 4.8 14 5.2 1.5 0.4 0.8-0.4-2-2.1-2.5-1.5-7.4-5-10.9-7.8-3.6-2.8-9.5-8.6-13.3-12.8-3.7-4.3-8.3-9.9-10.2-12.5-2.8-3.9-5.1-5.7-12.7-9.5-5.2-2.6-14.4-7.9-20.4-11.9-6-3.9-16.4-11.8-23-17.4-6.6-5.6-15.5-14-19.9-18.6-4.3-4.6-11.1-12.4-15.1-17.4-4-5-10.1-13.5-13.5-19-3.5-5.5-9.6-16.7-13.6-25-4-8.2-9.6-21.7-12.4-30-2.8-8.2-6.5-21.7-8.3-30l-3.2-15c0-96.5 0.2-102.9 1.8-110 1-4.4 2.4-9.4 3.2-11 0.8-1.6 8.3-10 16.7-18.5 8.5-8.5 18.5-18.2 22.4-21.5 3.9-3.3 9.8-8.1 13-10.6 3.3-2.6 9.9-7.6 14.9-11.1 5-3.6 13.5-9.3 19-12.8 5.5-3.5 15.6-9.2 22.5-12.6 6.9-3.4 16.5-7.9 21.5-9.9 5-2.1 14.2-5.5 20.5-7.7 6.3-2.1 16.7-5.2 23-6.9 6.3-1.7 12.2-3.2 13-3.4 0.8-0.2 4.2-1 7.5-1.8 3.3-0.9 10.3-2.2 15.5-3.1 5.2-0.8 15.1-2.3 22-3.3 9.8-1.4 19.3-1.8 44-1.7 27.6 0 33.4 0.3 47 2.3 8.5 1.2 18.7 2.9 22.5 3.7 3.8 0.9 8.1 1.8 9.5 2 1.4 0.3 7.9 1.9 14.5 3.6 6.6 1.7 17.6 5 24.5 7.3 6.9 2.4 19 7.2 27 10.8 8 3.5 17.4 7.9 21 9.7 3.6 1.8 11.7 6.4 18 10.3 6.3 3.9 16.7 11 23 15.8 6.3 4.7 16 12.6 21.5 17.4 5.5 4.8 16.5 15.3 24.4 23.4 8 8 15.9 16.9 17.6 19.6 1.8 2.8 4.2 7.7 5.4 11 1.2 3.3 2.9 8.9 3.7 12.5 1.1 5.2 1.3 15.3 1 51.5-0.3 43.3-0.4 45.5-2.9 58.5-1.4 7.4-4.4 19.4-6.6 26.5-2.2 7.1-5.8 17.5-8.1 23-2.3 5.5-6.7 14.7-9.8 20.5-3 5.8-9.2 15.9-13.7 22.5-4.4 6.6-9.2 13.4-10.6 15-1.5 1.6-4.8 5.5-7.4 8.5-2.6 3-8.2 8.9-12.4 13-4.2 4.1-9.9 9.6-12.6 12.1-2.8 2.5-10.8 8.6-18 13.5-7.2 4.8-17.6 11.2-23.2 14.1-5.7 2.9-11 5.3-11.8 5.3-0.8 0-1.5 0.3-1.5 0.8 0 0.4-2.3 3.8-5.2 7.7-2.9 3.9-8.2 10.1-11.8 13.9-3.6 3.7-10.5 9.5-15.5 12.8-5.9 4-8 5.7-6 5.2 1.7-0.4 8.4-2.6 15-4.9 6.6-2.4 14.9-5.5 18.5-7 3.6-1.5 11.5-5.2 17.5-8.2 6-3 14.4-7.6 18.5-10.1 4.1-2.5 12-7.8 17.5-11.6 5.5-3.9 13.4-9.8 17.5-13.2 4.1-3.4 10.4-9.1 14-12.6 3.6-3.5 9.3-9.5 12.6-13.4 3.4-3.8 9.5-11.4 13.6-16.9 4.1-5.5 9.7-13.4 12.5-17.5 2.8-4.1 8.2-13.6 12.1-21 3.9-7.4 9.1-18.5 11.5-24.5 2.4-6 6.1-16.4 8.1-23 2-6.6 4.5-16 5.5-21 1.1-5 2.5-14 3.1-20 0.6-6 1.3-12.1 1.6-13.5 0.2-1.4 0.4-18.9 0.4-39 0-27.6-0.3-39.2-1.5-47.5-0.8-6-2.3-14.4-3.1-18.5-0.9-4.1-2.3-8.7-3-10.2-0.8-1.6-11.9-13.3-24.6-26.1-12.8-12.8-28.9-27.8-35.8-33.3-6.9-5.5-16.8-12.9-22-16.6-5.2-3.6-14.3-9.6-20.2-13.2-6-3.6-15-8.7-20-11.2-5.1-2.6-17.4-8.2-27.3-12.4-9.9-4.2-24.3-9.8-32-12.3-7.7-2.5-17.8-5.5-22.5-6.6-4.7-1.2-14.3-3.2-21.5-4.6-7.2-1.4-19.1-3.2-26.5-4-7.5-0.8-25-1.6-39.5-1.7-14.3-0.2-31.6 0-38.5 0.4zm-119 84.3c-3.6 0.7-9.4 2.3-13 3.5-3.6 1.2-10.1 4-14.5 6.2-4.4 2.2-10.9 6.2-14.5 8.8-3.6 2.7-9 7.4-12 10.7-3.1 3.2-7.7 8.7-10.2 12.3-2.5 3.6-6.4 10.1-8.6 14.5-2.2 4.4-5.2 11.8-6.7 16.5-2.2 6.8-2.8 11.3-3.4 22.5-0.4 9.3-0.3 16.9 0.6 22.5 0.6 4.7 2.2 11.6 3.4 15.5 1.2 3.9 3.9 10.6 6.1 15 2.3 4.4 5.4 10 7.1 12.5 1.7 2.5 6.5 7.8 10.7 11.9 4.1 4 10.4 9.3 14 11.6 3.6 2.4 9.9 5.9 14 7.9 4.1 1.9 10.7 4.3 14.5 5.2 5.3 1.4 11.5 1.8 25.5 1.9 18.5 0.1 18.5 0.1 23.5 3 2.8 1.6 9.5 5.9 15 9.7 5.5 3.7 11.3 7.8 12.8 9l2.8 2.3c-10.5 8-15.7 12.3-18.2 14.7-2.6 2.4-6.7 6.8-9.1 9.8-2.5 3-5.9 7.8-7.6 10.5-1.7 2.8-4.5 8.6-6.2 13-1.8 4.4-4.1 11.4-5.1 15.5-1.1 4.1-2.2 12.9-2.5 19.5-0.5 10-0.3 13.7 1.5 22 1.2 5.5 3.7 13.1 5.5 17 1.9 3.9 6.3 11 9.8 15.9 3.4 4.9 9.5 11.8 13.3 15.4 3.8 3.6 10.6 8.9 15 11.8 4.4 2.9 10.9 6.5 14.5 8.2 3.6 1.6 10.3 4.3 15 6 4.7 1.6 12.5 3.9 17.5 5.1 5 1.1 12.2 2.5 16 3.1 3.8 0.5 16.7 1 28.5 1 18.7 0 23.1-0.3 34-2.4 6.9-1.3 17-3.9 22.5-5.6 5.5-1.8 13.2-4.7 17-6.6 3.8-1.8 10.5-5.5 14.7-8.1 4.3-2.6 10.8-7.5 14.5-10.8 3.8-3.3 9.3-8.9 12.3-12.5 3-3.5 7.4-9.9 9.8-14 2.3-4.1 5.7-11.8 7.4-17 2.9-8.8 3.1-10.5 3.1-23.5 0-12-0.4-15.3-2.6-23.5-1.5-5.2-3.7-12.2-5-15.5-1.3-3.3-3.9-8.7-5.7-12-1.9-3.3-6-9.1-9.1-13-3.1-3.9-7.9-9-10.6-11.5-2.7-2.5-7.3-6.1-10.1-8-2.8-1.9-5-4-4.8-4.5 0.1-0.5 4.2-4 9.2-7.7 4.9-3.7 12.5-8.9 16.8-11.5l8-4.8c33.6-1 40.9-1.6 45.6-2.9 3.6-1 9.2-3 12.5-4.5 3.3-1.5 8.9-4.7 12.5-7.1 3.6-2.4 9.8-7.5 13.8-11.4 4.1-3.9 9.8-10.7 12.7-15.1 3-4.4 6.8-11 8.4-14.8 1.7-3.7 4.2-10.6 5.6-15.4 1.5-5.3 2.8-12.8 3.1-18.8 0.4-5.5 0.1-14-0.5-19-0.6-5-2.4-12.8-3.9-17.5-1.6-4.7-4.6-11.9-6.7-16-2-4.1-5.9-10.4-8.5-14-2.7-3.6-8.4-9.9-12.7-14.1-4.3-4.1-10.7-9.5-14.3-11.9-3.6-2.4-10.5-6.3-15.5-8.7-5-2.3-12.6-5.2-17-6.4-7.4-2.1-10.5-2.3-43.5-2.5-31.5-0.3-36.7-0.1-46.5 1.6-6 1-14.6 3.1-19 4.6-4.4 1.5-12.3 4.7-17.5 7.2-5.2 2.4-10.6 4.9-12 5.4-1.4 0.5-9.9 0.9-19 0.9l-16.5-0.1c-15.5-7.1-25.1-11-31.2-13.1-6.2-2.1-15.5-4.6-20.5-5.4-7.1-1.1-17.7-1.5-44.3-1.4-24.4 0.1-37 0.5-41.5 1.4zm-184 78.8c-3.6 1.3-8.1 3.2-10 4.4-1.9 1.2-5.5 4.3-8 7-2.5 2.6-5.6 6.8-6.8 9.3-1.2 2.5-2.6 7-3.2 10-0.6 3.1-1 19.4-1 37.5 0 18.7 0.5 33.9 1.1 36.5 0.6 2.5 2.2 7 3.7 10 1.4 3 4.9 7.9 7.6 10.8 2.8 3 7.4 6.6 10.1 8.2 2.8 1.6 7.5 3.5 10.5 4.3 3 0.9 7.6 1.8 10.3 2.1 2.8 0.4 4.7 0.2 4.7-0.4 0-0.5-1.1-5.6-2.5-11.2-1.3-5.7-2.9-13-3.4-16.3-0.6-3.3-1.4-8.9-1.8-12.5-0.4-3.6-0.8-28-0.8-54.3 0-47 0-47.7-2-47.7-1.1 0-4.9 1.1-8.5 2.3zm663.5 0.5c0.4 1.5 0.9 23.8 1.1 49.7 0.3 42.9 0.1 48-1.7 58.5-1 6.3-3 16-4.2 21.5l-2.4 10c4 0.5 8.2-0.1 12-0.9 3.7-0.9 9.1-2.7 12-4 3.2-1.5 7.3-4.7 10.7-8.3 3-3.3 6.7-8.4 8.2-11.3 1.5-3 3.3-7.7 4-10.5 0.7-3.1 1.3-17 1.5-36.5 0.2-19.1-0.1-33.7-0.7-37-0.6-3-2.3-7.9-3.8-10.9-1.5-2.9-4.8-7.4-7.3-10-2.5-2.5-6.8-5.8-9.5-7.3-2.7-1.5-7.8-3.4-11.4-4.2-3.6-0.9-7.1-1.6-7.9-1.6-1 0-1.2 0.7-0.6 2.8zm-141 127.9c-2.2 1.5-7.8 4.2-12.5 5.9-4.7 1.8-12.1 4.1-16.5 5.3-4.4 1.1-11.6 2.7-16 3.6-4.4 0.8-9.5 1.5-11.2 1.5h-3.3c8.8 9.7 14 16.5 17.2 21.5 3.2 5 7 12 8.5 15.7 1.6 3.8 3.1 6.8 3.6 6.8 0.4 0 3.5-3.3 6.9-7.3 3.4-3.9 8-10.1 10.3-13.7 2.4-3.6 5.8-9.6 7.8-13.5 1.9-3.9 4.9-11.3 6.7-16.5 1.7-5.2 3-10.1 2.8-10.8-0.3-0.9-1.6-0.4-4.3 1.5zm-373.2 1.5c0.4 1.8 2.4 7.3 4.3 12.3 2 5 5.6 12.6 8.1 17 2.5 4.4 6.6 10.7 9.1 14 2.5 3.3 6.6 8.1 9.1 10.8 2.5 2.6 4.9 4.7 5.4 4.7 0.4 0 0.7-0.7 0.7-1.5 0-0.8 1.4-4.5 3.1-8.3 1.7-3.7 5.1-9.8 7.6-13.7 2.5-3.9 7.6-10.1 11.2-13.8l6.6-6.8c-5.4 0-8.1-0.2-9.5-0.5-1.4-0.2-6.8-1.1-12-2-5.2-0.9-13.3-2.7-18-4.1-4.7-1.3-12.5-4.5-17.5-6.9l-9-4.4zm-45.3 169.7v18c8.2 6.7 13.7 10.9 17.5 13.7 3.9 2.8 11.1 7.7 16 10.9 5 3.3 16.7 9.8 26 14.5 9.4 4.7 22.4 10.7 29 13.2 6.6 2.6 17 6.3 23 8.2 6.1 2 18.4 5.4 27.5 7.5 9.1 2.2 22.1 4.8 29 5.9 6.9 1.1 16.3 2.6 21 3.3 5.9 0.9 20 1.3 45.5 1.3 33.2 0 38.6-0.3 52.5-2.3 8.5-1.3 20-3.2 25.5-4.3 5.5-1.1 16.1-3.5 23.5-5.4 7.4-1.8 18.9-5.2 25.5-7.5 6.6-2.3 17.8-6.6 24.8-9.6 7-2.9 15.8-6.8 19.5-8.5 3.7-1.8 13-7 20.7-11.7 7.7-4.7 19-12.2 25-16.8 6.1-4.6 12.3-9.5 13.8-10.8l2.7-2.6c-0.4-25.5-0.6-33-0.7-33-0.2 0-3.3 2.6-7 5.8-3.7 3.2-9.5 7.8-12.8 10.2-3.3 2.5-7.6 5.6-9.5 6.9-1.9 1.3-7.3 5-12 8.2-4.7 3.1-14.6 8.9-22 12.8-7.4 3.9-18.7 9.2-25 12-6.3 2.7-16.2 6.5-22 8.5-5.8 1.9-15.7 4.9-22 6.5-6.3 1.6-17 4.1-23.7 5.6-6.8 1.4-18.7 3.5-26.5 4.7-12.3 1.9-19.2 2.2-48.8 2.4-31.5 0.2-35.8 0.1-50-2-8.5-1.3-23.4-3.9-33-5.9-9.6-2-24.5-5.9-33-8.7-8.5-2.9-20.7-7.5-27-10.2-6.3-2.7-16.2-7.4-22-10.2-5.8-2.9-13.6-7.2-17.5-9.6-3.8-2.3-11-6.9-16-10.3-4.9-3.3-14.2-10.1-20.5-15.2-6.3-5-12.4-10.1-13.5-11.3-1.1-1.3-2.3-2.2-2.7-2.2-0.4 0-0.8 8.1-0.8 18zm333.5-533.3c1.1 0.3 3 1.6 4.3 2.9 1.2 1.3 2.2 3.3 2.2 4.4 0 1.1-1.3 3.4-2.9 5-1.6 1.7-3.9 3-5 3-1.2 0-3.4-1.3-5.1-3-1.6-1.6-3-3.8-3-4.7 0-1 0.7-2.8 1.6-4.1 0.9-1.3 2.6-2.7 3.8-3.2 1.1-0.4 3-0.6 4.1-0.3zm-222.4 186.6c28.1 0.2 31.8 0.4 34.2 2 2.2 1.4 2.7 2.5 2.7 5.5 0 3.5-1.4 5.1-27.9 31.7-15.6 15.7-28.2 29.1-28.6 30.5-0.4 1.4-0.2 4.2 0.4 6.3 0.7 2.5 2.2 4.4 4.4 5.7 1.8 1.1 4.7 2 6.5 2 2 0 4.3-0.9 6-2.4 1.5-1.3 19.4-19.1 39.7-39.6 20.4-20.4 37.7-37.5 38.5-38 1-0.6 5.3 0.9 25.5 10.4l34 0.8 10-4.7c5.5-2.5 13.6-5.8 26-10h48c35.9 0 49.2 0.4 52.5 1.3 2.5 0.7 6.1 2.6 11.5 7.1l-29.2 29.3c-16.2 16.4-29.4 30.4-29.8 31.8-0.4 1.4-0.2 4.2 0.4 6.3 0.7 2.5 2.2 4.4 4.4 5.7 1.8 1.1 4.7 2 6.5 2 2.9 0 6.2-3 34.5-31.5 17.2-17.4 31.7-31.6 32.2-31.6 0.6 0 2.6 1.7 4.6 3.8 1.9 2.1 5.1 6.8 7.1 10.3 2 3.6 4.7 9.5 5.9 13 1.8 5.3 2.3 8.8 2.3 19 0.1 10.6-0.2 13.6-2.2 19.5-1.3 3.9-3.9 10-5.8 13.5-1.8 3.6-5.5 9.1-8.1 12.2-2.6 3.1-6.8 7.3-9.3 9.3-2.5 2.1-6.7 4.9-9.5 6.3-2.7 1.4-8.8 3.6-13.5 4.9-7.9 2.2-10.2 2.3-35.2 2.3-20.1 0-28.7-0.4-34.5-1.5-4.3-0.9-10.9-3.1-14.8-4.9-3.8-1.9-9.2-5.4-12-7.8-2.7-2.5-7.1-7.6-9.7-11.4-2.6-3.8-7.7-13.4-11.3-21.4-3.6-7.9-7.8-16.2-9.3-18.4-1.5-2.1-4.5-5.3-6.7-7.1-2.2-1.8-5.8-4-8-4.8-2.2-0.8-6.2-2-9-2.6-3.9-0.9-6.1-0.9-10.5 0.2-3 0.8-7.1 2.3-9 3.2-1.9 1-5 3-6.8 4.4-1.9 1.5-4.7 4.7-6.2 7.1-1.6 2.5-5.6 10.8-8.9 18.5-3.3 7.7-8.2 17.1-10.8 20.9-2.6 3.8-6.9 8.8-9.5 11-2.5 2.3-7.5 5.6-11 7.3-3.4 1.8-9.9 4.1-14.3 5.3-7.1 1.8-11.1 2-37 2-26 0-29.8-0.2-37-2-4.4-1.1-10-3.2-12.5-4.5-2.5-1.4-7-4.4-10-6.8-3-2.3-7.8-7.4-10.7-11.2-2.9-3.8-6.5-9.7-8.1-13-1.6-3.3-3.7-9.3-4.6-13.5-1.4-5.8-1.7-10.3-1.3-20.5 0.3-10.5 0.9-14.2 2.8-19.5 1.3-3.5 4-9.2 5.9-12.5 1.9-3.2 7.1-9.6 11.5-14 6.3-6.4 9.7-8.9 16-12 4.4-2.1 10-4.1 12.5-4.6 2.5-0.4 18.7-0.7 36.1-0.6zm84.7 140.8c1.8 0 6 0.9 9.5 2 3.4 1.2 8.7 3.8 11.6 5.8 3 2 7.2 5.7 13.2 12.6l6.2-6.3c4-4 8.7-7.5 13.2-9.8 3.9-1.9 9-3.8 11.5-4.1 2.5-0.3 6.8 0 9.5 0.7 2.8 0.6 6.5 2.3 8.3 3.6 1.8 1.3 4.1 4.2 5.2 6.4 1.1 2.2 2 5.4 2 7 0 1.7-0.9 4.8-2 7-1.1 2.2-3.4 5.1-5.2 6.5-1.8 1.3-5 3.1-7 4-2.1 0.8-6.5 1.5-9.8 1.5-3.3 0-6-0.3-6-0.7 0-0.4 0.9-1.7 2-2.8 1-1.1 3.2-4 4.9-6.5 2.6-3.9 2.8-4.5 1.3-4.8-0.9-0.2-4.1 0.7-7.1 2-3.3 1.4-7.1 4.2-9.7 7.1-2.4 2.6-5.1 6.3-5.9 8.2-0.8 2-1.5 6.5-1.5 10.5 0 4.3-0.6 8.2-1.5 10-0.8 1.7-2.4 3.5-3.5 4-1.1 0.6-3.3 1-5 1q-3 0-6-3c-2.8-2.7-3-3.5-3-10.2 0-4.8-0.6-8.6-1.8-11.3-1-2.2-3.6-5.9-5.8-8.3-2.1-2.4-5.7-5.4-7.9-6.7-2.2-1.3-5.8-2.7-12-3.9l3.2 4.5c1.8 2.4 4.1 5.6 5.3 6.9 1.1 1.4 2 3 2 3.5 0 0.7-2.7 0.8-7.2 0.5-5.4-0.4-8.6-1.3-12-3.3-2.6-1.5-5.9-4.4-7.3-6.4-1.3-2.1-2.7-5.3-3.1-7.3-0.4-2.2 0-5 1-7.7 0.9-2.4 3.1-5.4 4.9-6.8 1.8-1.3 5.2-3.1 7.7-3.9 2.5-0.8 6-1.5 7.8-1.5zm34.9 114.9c2.3 0 4.2 0.9 6.3 3 3 3 3 3.1 3 25h48.5l6.3-3c3.4-1.6 7.7-3 9.5-3 2.1 0 3.9 0.8 5.3 2.3 1.2 1.2 2.4 3.4 2.7 4.7 0.3 1.4 0.1 3.7-0.4 5-0.6 1.4-2 3.6-3.2 4.9-1.2 1.3-4.2 3.4-6.7 4.6-2.5 1.3-8.1 3.4-12.5 4.7-7.9 2.3-8.4 2.3-56 2.3-36.3 0-49.8-0.3-55.5-1.3-4.1-0.8-11.1-2.7-15.5-4.3-4.4-1.6-9.2-4.2-10.8-5.7-1.5-1.4-3.3-4.2-3.8-6.2-0.9-2.7-0.8-4.1 0.4-6.5 0.8-1.7 2.9-3.6 4.8-4.4 3.1-1.3 3.8-1.2 8.4 0.9 2.8 1.2 6.6 2.9 8.5 3.6 2.6 1 9.9 1.4 51 1.4v-10.2c0-7.9 0.4-10.9 1.7-12.8 0.9-1.3 2.3-3 3.2-3.7 0.9-0.7 3-1.3 4.8-1.3z"/>
	</g>
</svg>