<svg xmlns="http://www.w3.org/2000/svg" width="289.167" height="27.725" viewBox="0 0 289.167 27.725"><defs><style>.a{fill:#2e4053;fill-rule:evenodd;}</style></defs><g transform="translate(-500.778 -141.199)"><path class="a" d="M513.22,145.1c.472,0,.966.013,1.092.029s.342.047.481.066.424.07.633.111.557.13.776.2.554.184.744.26.563.237.823.361.617.31.791.415.446.269.6.374.4.279.538.383.374.294.522.421.383.345.526.491.345.361.459.484.351.421.535.665.443.62.579.839.332.56.434.76.237.484.3.633.168.405.228.57.171.522.247.791.142.529.149.576a.313.313,0,0,0,.032.111.052.052,0,0,1,.006.057c-.006.019.1.057.247.085a2.639,2.639,0,0,1,.9.358,2.735,2.735,0,0,1,.345.282,2.821,2.821,0,0,1,.26.32,5.018,5.018,0,0,1,.313.665v2.786l-.1.285a3.33,3.33,0,0,1-.206.453,2.885,2.885,0,0,1-.247.329,3.152,3.152,0,0,1-.317.3,2.945,2.945,0,0,1-.412.247,3.081,3.081,0,0,1-.443.165,9.358,9.358,0,0,1-1.083.123l-.089.237c-.047.13-.158.386-.244.57s-.231.459-.326.617-.26.421-.374.586a5.643,5.643,0,0,1-.386.507l0,2.453-.2.19c-.111.1-.285.263-.389.348l-.225.19-.139.111c-.057.044-.142.108-.19.142s-.164.12-.256.193-.326.228-.519.345-.57.326-.839.459-.633.3-.807.374-.374.146-.443.174-.32.1-.554.174-.513.152-.617.18-.354.085-.554.127-.45.092-.554.108-.26.041-.348.051-.244.032-.348.047-.475.038-.823.047c-.37.013-.867.006-1.2-.013-.313-.019-.69-.051-.839-.07s-.462-.066-.7-.111-.611-.127-.839-.187-.624-.18-.886-.269-.611-.222-.776-.291-.507-.231-.76-.358-.579-.3-.728-.389-.427-.269-.617-.405-.484-.358-.649-.491-.4-.329-.728-.63v-2.469l-.2-.26c-.111-.146-.3-.421-.418-.611s-.323-.57-.453-.839-.266-.573-.37-.855l-.348-.016a4.207,4.207,0,0,1-.57-.06,3.883,3.883,0,0,1-.427-.12,2.4,2.4,0,0,1-.427-.222,2.867,2.867,0,0,1-.37-.3c-.082-.085-.187-.206-.234-.266a3.346,3.346,0,0,1-.2-.348,2.935,2.935,0,0,1-.174-.459,6.755,6.755,0,0,1-.054-1.5,6.2,6.2,0,0,1,.063-1.488,2.639,2.639,0,0,1,.184-.443,1.9,1.9,0,0,1,.345-.459,2.294,2.294,0,0,1,.427-.339,3.32,3.32,0,0,1,.522-.222l.323-.1s.051-.209.1-.462.133-.573.177-.712.149-.424.225-.633.231-.567.339-.791.31-.6.446-.823.389-.6.563-.839.44-.57.589-.741.431-.469.62-.655.462-.437.6-.554.355-.291.475-.38.386-.266.586-.393.522-.317.712-.418.506-.247.7-.329.548-.215.791-.3.608-.2.807-.247.507-.12.681-.155.38-.073.459-.085.3-.038.491-.06S512.745,145.1,513.22,145.1Zm-1.292.966c-.2.022-.5.063-.665.092s-.513.1-.776.174-.652.19-.871.269-.624.26-.9.4-.655.339-.839.446-.469.3-.633.424-.421.32-.57.443-.405.358-.57.522-.418.437-.557.6-.3.364-.364.443-.228.313-.364.522-.291.443-.336.522-.161.3-.256.491-.225.469-.285.617-.184.5-.275.776-.168.529-.174.554.082-.06.2-.19.291-.317.386-.412.288-.275.427-.4.3-.266.361-.317.123-.108.142-.123.171-.133.336-.256.437-.317.6-.431.443-.291.617-.4.567-.313.871-.462.668-.317.807-.37.453-.171.7-.256.614-.2.823-.263.551-.146.76-.19.573-.111.807-.146.69-.089,1.013-.114.763-.044.981-.044.56.016.76.032l.681.063c.174.019.6.092.934.158s.817.18,1.06.25.563.171.712.225.434.165.633.244.557.241.791.358.592.31.791.434.4.244.453.272.085.044.085.028-.12-.263-.266-.56-.358-.681-.469-.855-.31-.459-.44-.633-.361-.453-.51-.617-.386-.408-.535-.541-.358-.31-.472-.4-.332-.244-.491-.345-.44-.266-.633-.364-.469-.225-.617-.282-.377-.136-.506-.174-.323-.1-.427-.123-.329-.07-.5-.095a7.561,7.561,0,0,0-1.187-.047C512.65,146.021,512.144,146.04,511.929,146.065Zm.253,3.628c-.218.016-.6.06-.855.1s-.652.127-.886.187-.6.158-.807.222-.443.136-.522.165-.386.152-.681.272-.674.291-.839.38-.434.241-.6.339l-.4.241c-.057.032-.228.152-.386.266s-.462.351-.681.522-.674.6-1.023.953l-.627.633a8.22,8.22,0,0,0-.171,1,13.635,13.635,0,0,0-.038,1.741,9.935,9.935,0,0,0,.079,1.678c.035.218.108.567.161.776s.136.5.19.649.165.44.256.649.237.516.326.681.26.45.383.633.313.453.427.6.345.408.51.582a8.958,8.958,0,0,0,.665.617c.2.168.529.415.728.548s.491.31.649.4.491.247.744.364.624.272.823.351.4.152.443.165.025-.013-.063-.066a3.951,3.951,0,0,1-.345-.247,4.138,4.138,0,0,1-.421-.405c-.117-.136-.263-.313-.323-.4a.888.888,0,0,0-.4-.3,7.3,7.3,0,0,1-.646-.377,8.834,8.834,0,0,1-.728-.551c-.209-.177-.491-.443-.63-.589s-.351-.393-.478-.551a7.366,7.366,0,0,1-.427-.6c-.111-.174-.3-.529-.431-.791a9.687,9.687,0,0,1-.393-.95c-.089-.26-.206-.687-.263-.95l-.1-.475a26.279,26.279,0,0,1,.057-3.482,2.275,2.275,0,0,1,.1-.348,5.831,5.831,0,0,1,.529-.586c.269-.269.586-.576.709-.681s.31-.256.412-.336.313-.241.472-.351.427-.294.6-.405.494-.291.712-.4.522-.25.681-.313.45-.174.649-.244.529-.165.728-.218.386-.1.412-.108l.237-.057c.1-.028.326-.07.491-.1s.478-.073.7-.1a9.243,9.243,0,0,1,1.393-.054,8.3,8.3,0,0,1,1.488.073c.269.038.592.092.712.117s.256.057.3.063.25.06.459.114.557.158.776.231.6.228.855.342.551.25.665.307.37.2.57.326.529.348.728.5.507.4.681.551.522.484.772.741a6.032,6.032,0,0,1,.557.62,2.082,2.082,0,0,1,.171.348,3.837,3.837,0,0,1,.117.4,11.151,11.151,0,0,1,.032,1.63,8.359,8.359,0,0,1-.092,1.852c-.044.234-.139.614-.209.839s-.184.554-.256.728-.212.465-.31.649-.291.5-.434.712-.291.424-.336.475-.152.174-.234.269-.26.282-.393.412-.313.3-.4.383-.342.272-.57.427-.557.355-.734.446a2.473,2.473,0,0,1-.373.168c-.025,0-.048.01-.048.025a1.77,1.77,0,0,1-.165.244c-.092.123-.26.32-.374.44a3.561,3.561,0,0,1-.491.405c-.187.127-.253.18-.19.165s.266-.082.475-.155.472-.174.586-.222.364-.165.554-.26.456-.241.586-.32.38-.247.554-.367.424-.31.554-.418.329-.288.443-.4.294-.3.4-.424.3-.361.43-.535.307-.424.4-.554.26-.431.383-.665.288-.586.364-.776.193-.519.256-.728.142-.507.174-.665.079-.443.1-.633.041-.383.051-.427.013-.6.013-1.235a11.971,11.971,0,0,0-.047-1.5c-.025-.19-.073-.456-.1-.586a2.129,2.129,0,0,0-.095-.323c-.025-.051-.377-.421-.779-.826s-.915-.88-1.133-1.054-.532-.408-.7-.525-.453-.3-.639-.418-.475-.275-.633-.355-.551-.26-.864-.393-.769-.31-1.013-.389-.563-.174-.712-.209-.453-.1-.681-.146-.6-.1-.839-.127-.791-.051-1.251-.054S512.4,149.681,512.182,149.693Zm-3.767,2.669a3.955,3.955,0,0,0-.412.111,4.336,4.336,0,0,0-.459.2,4.012,4.012,0,0,0-.459.279,3.228,3.228,0,0,0-.38.339,3.77,3.77,0,0,0-.323.389,4.521,4.521,0,0,0-.272.459,4.41,4.41,0,0,0-.212.522,2.408,2.408,0,0,0-.108.712,3.774,3.774,0,0,0,.019.712,3.516,3.516,0,0,0,.108.491,3.761,3.761,0,0,0,.193.475c.073.139.171.317.225.4a3.373,3.373,0,0,0,.339.377,3.523,3.523,0,0,0,.443.367,4.587,4.587,0,0,0,.443.25,2.98,2.98,0,0,0,.459.165,3.339,3.339,0,0,0,.807.06c.586,0,.586,0,.744.095.089.051.3.187.475.307s.358.247.405.285l.089.073c-.332.253-.5.389-.576.465a3.4,3.4,0,0,0-.288.31,3.753,3.753,0,0,0-.241.332,3.172,3.172,0,0,0-.2.412,4.242,4.242,0,0,0-.161.491,3.642,3.642,0,0,0-.079.617,2.138,2.138,0,0,0,.047.7,3.168,3.168,0,0,0,.174.538,4.382,4.382,0,0,0,.31.5,3.8,3.8,0,0,0,.421.488,4.179,4.179,0,0,0,.475.374,4.478,4.478,0,0,0,.459.26c.114.051.326.136.475.19s.4.123.554.161.386.079.506.1.529.032.9.032a4.522,4.522,0,0,0,1.076-.076c.219-.041.538-.123.712-.177a4.937,4.937,0,0,0,.538-.209c.12-.057.332-.174.465-.256a3.743,3.743,0,0,0,.459-.342,4.167,4.167,0,0,0,.389-.4,2.823,2.823,0,0,0,.544-.981,1.727,1.727,0,0,0,.1-.744,2.254,2.254,0,0,0-.082-.744c-.048-.165-.117-.386-.158-.491a4.1,4.1,0,0,0-.18-.38,4.149,4.149,0,0,0-.288-.412,3.939,3.939,0,0,0-.336-.364,3.3,3.3,0,0,0-.32-.253c-.089-.06-.158-.127-.152-.142a1.91,1.91,0,0,1,.291-.244c.155-.117.4-.282.532-.364l.253-.152a8.035,8.035,0,0,0,1.444-.092,3.263,3.263,0,0,0,.4-.142,3.439,3.439,0,0,0,.4-.225,3.747,3.747,0,0,0,.437-.361,3.18,3.18,0,0,0,.668-.947,4.3,4.3,0,0,0,.177-.488,2.947,2.947,0,0,0,.1-.6,3.766,3.766,0,0,0-.016-.6,3.591,3.591,0,0,0-.123-.554,4.578,4.578,0,0,0-.212-.507,3.672,3.672,0,0,0-.269-.443,4.818,4.818,0,0,0-.4-.446,4.246,4.246,0,0,0-.453-.377,4.855,4.855,0,0,0-.491-.275,4.254,4.254,0,0,0-.538-.2,4.839,4.839,0,0,0-1.377-.079,7.33,7.33,0,0,0-1.472.051,4.659,4.659,0,0,0-.6.146c-.139.047-.389.149-.554.228s-.336.155-.38.171a4.024,4.024,0,0,1-.6.028l-.522,0c-.491-.225-.795-.348-.988-.415a4.976,4.976,0,0,0-.649-.171,10.187,10.187,0,0,0-1.4-.044A10.786,10.786,0,0,0,508.415,152.362Zm-5.825,2.495a2.1,2.1,0,0,0-.317.139,1.613,1.613,0,0,0-.253.222,1.415,1.415,0,0,0-.215.294,1.612,1.612,0,0,0-.1.317c-.019.1-.032.614-.032,1.187,0,.592.016,1.073.035,1.155a1.79,1.79,0,0,0,.117.317,1.647,1.647,0,0,0,.241.342,1.75,1.75,0,0,0,.32.26,1.668,1.668,0,0,0,.332.136,2.215,2.215,0,0,0,.326.066c.089.013.149.006.149-.013s-.035-.177-.079-.355-.092-.412-.108-.516-.044-.282-.057-.4-.025-.886-.025-1.719c0-1.488,0-1.51-.063-1.51A1.534,1.534,0,0,0,502.59,154.857Zm21,.016c.013.047.029.753.035,1.573a9.876,9.876,0,0,1-.054,1.852c-.032.2-.095.507-.133.681l-.076.317a1.173,1.173,0,0,0,.38-.029,2.671,2.671,0,0,0,.38-.127,1.262,1.262,0,0,0,.339-.263,2.1,2.1,0,0,0,.26-.358,1.967,1.967,0,0,0,.127-.332,10.639,10.639,0,0,0,.048-1.155c.006-.6,0-1.067-.022-1.171a1.334,1.334,0,0,0-.652-.893,1.611,1.611,0,0,0-.361-.133,1.949,1.949,0,0,0-.25-.051C523.581,154.784,523.575,154.806,523.594,154.872Zm-4.464,4.049a2.246,2.246,0,0,1-.4.187c-.149.057-.383.13-.522.168s-.367.085-.506.114a3,3,0,0,1-.355.047h-.1a5.361,5.361,0,0,1,.544.681,3.828,3.828,0,0,1,.269.5.67.67,0,0,0,.114.215,1.626,1.626,0,0,0,.218-.231,4.436,4.436,0,0,0,.326-.434c.076-.114.184-.3.247-.427s.155-.358.212-.522a1.66,1.66,0,0,0,.089-.342C519.257,158.845,519.216,158.861,519.13,158.921Zm-11.814.047c.013.057.076.231.136.389a5.285,5.285,0,0,0,.256.538,4.917,4.917,0,0,0,.288.443c.079.1.209.256.288.342a.746.746,0,0,0,.171.149c.013,0,.022-.022.022-.047a1.4,1.4,0,0,1,.1-.263,4.3,4.3,0,0,1,.241-.434,3.4,3.4,0,0,1,.355-.437l.209-.215a1.694,1.694,0,0,1-.3-.016c-.044-.006-.215-.035-.38-.063s-.421-.085-.57-.13a4.089,4.089,0,0,1-.554-.218l-.285-.139Zm-1.434,5.372v.57c.26.212.434.345.554.434s.351.244.507.345.529.31.823.459.709.339.918.418.538.2.728.26.582.171.871.237.7.152.918.187.516.082.665.1a13.421,13.421,0,0,0,1.44.041,9.5,9.5,0,0,0,1.662-.073c.269-.041.633-.1.807-.136s.51-.111.744-.171.6-.165.807-.237.563-.209.785-.3.5-.215.617-.269.412-.222.655-.37.6-.386.791-.532.389-.3.437-.342l.085-.082c-.013-.807-.019-1.045-.022-1.045s-.1.082-.222.184-.3.247-.405.323-.241.177-.3.218l-.38.26c-.149.1-.462.282-.7.405s-.592.291-.791.38-.513.206-.7.269-.5.155-.7.206-.538.13-.75.177-.592.111-.839.149a9.217,9.217,0,0,1-1.545.076,8.271,8.271,0,0,1-1.583-.063c-.269-.041-.741-.123-1.045-.187s-.776-.187-1.045-.275-.655-.237-.855-.323-.513-.234-.7-.323-.431-.228-.554-.3-.348-.218-.506-.326-.45-.32-.649-.481-.393-.32-.427-.358a.211.211,0,0,0-.085-.07A3.405,3.405,0,0,0,505.882,164.341Zm10.557-16.883a.4.4,0,0,1,.136.092.262.262,0,0,1,.07.139.311.311,0,0,1-.092.158.3.3,0,0,1-.158.095.3.3,0,0,1-.161-.095.331.331,0,0,1-.095-.149.283.283,0,0,1,.051-.13.328.328,0,0,1,.12-.1A.26.26,0,0,1,516.44,147.458Zm-7.04,5.907c.889.006,1.007.013,1.083.063a.163.163,0,0,1,.085.174c0,.111-.044.161-.883,1a12.145,12.145,0,0,0-.905.966.443.443,0,0,0,.013.2.3.3,0,0,0,.139.18.47.47,0,0,0,.206.063.3.3,0,0,0,.19-.076c.047-.041.614-.6,1.257-1.254s1.193-1.187,1.219-1.2.168.028.807.329l1.076.025.317-.149c.174-.079.431-.184.823-.317h1.519a13.386,13.386,0,0,1,1.662.041,1.07,1.07,0,0,1,.364.225l-.924.928a13.55,13.55,0,0,0-.943,1.007.445.445,0,0,0,.013.2.3.3,0,0,0,.139.18.47.47,0,0,0,.206.063c.092,0,.2-.095,1.092-1,.544-.551,1-1,1.019-1a.474.474,0,0,1,.146.12,2.306,2.306,0,0,1,.225.326,3.141,3.141,0,0,1,.187.412,1.589,1.589,0,0,1,.073.6,1.528,1.528,0,0,1-.07.617,3.218,3.218,0,0,1-.184.427,2.4,2.4,0,0,1-.256.386,2.575,2.575,0,0,1-.294.294,1.834,1.834,0,0,1-.3.2,2.776,2.776,0,0,1-.427.155,3.477,3.477,0,0,1-1.114.073,6.628,6.628,0,0,1-1.092-.048,2.621,2.621,0,0,1-.469-.155,2.246,2.246,0,0,1-.38-.247,2.574,2.574,0,0,1-.307-.361,5.653,5.653,0,0,1-.358-.677,6.123,6.123,0,0,0-.294-.582,1.416,1.416,0,0,0-.212-.225,1.077,1.077,0,0,0-.253-.152,2.585,2.585,0,0,0-.285-.082.6.6,0,0,0-.332.006,2.071,2.071,0,0,0-.285.1,1.765,1.765,0,0,0-.215.139,1.052,1.052,0,0,0-.2.225,5.907,5.907,0,0,0-.282.586,4.938,4.938,0,0,1-.342.662,2.135,2.135,0,0,1-.3.348,1.752,1.752,0,0,1-.348.231,2.7,2.7,0,0,1-.453.168,10.861,10.861,0,0,1-2.343,0,2.22,2.22,0,0,1-.4-.142,2.816,2.816,0,0,1-.317-.215,2.283,2.283,0,0,1-.339-.355,2.944,2.944,0,0,1-.256-.412,2.254,2.254,0,0,1-.146-.427,2.108,2.108,0,0,1-.041-.649,1.716,1.716,0,0,1,.089-.617,3.208,3.208,0,0,1,.187-.4,2.937,2.937,0,0,1,.364-.443,1.605,1.605,0,0,1,.506-.38,2.178,2.178,0,0,1,.4-.146C508.336,153.372,508.848,153.362,509.4,153.366Zm2.681,4.457a1.346,1.346,0,0,1,.3.063,1.893,1.893,0,0,1,.367.184,2.269,2.269,0,0,1,.418.4l.2-.2a1.724,1.724,0,0,1,.418-.31,1.5,1.5,0,0,1,.364-.13.98.98,0,0,1,.3.022.834.834,0,0,1,.263.114.651.651,0,0,1,.165.2.625.625,0,0,1,.063.222.608.608,0,0,1-.063.222.7.7,0,0,1-.165.206,1.533,1.533,0,0,1-.222.127,1.065,1.065,0,0,1-.31.048.421.421,0,0,1-.19-.022.241.241,0,0,1,.063-.089,2.411,2.411,0,0,0,.155-.206c.082-.123.089-.142.041-.152a.623.623,0,0,0-.225.063.948.948,0,0,0-.307.225,1.207,1.207,0,0,0-.187.26,1.094,1.094,0,0,0-.047.332.839.839,0,0,1-.047.317.3.3,0,0,1-.111.127.391.391,0,0,1-.158.032.274.274,0,0,1-.19-.095c-.089-.085-.095-.111-.095-.323a.906.906,0,0,0-.057-.358,1.263,1.263,0,0,0-.434-.475,1.207,1.207,0,0,0-.38-.123l.1.142c.057.076.13.177.168.218a.32.32,0,0,1,.063.111c0,.022-.085.025-.228.016a.8.8,0,0,1-.38-.1.855.855,0,0,1-.231-.2.845.845,0,0,1-.1-.231.487.487,0,0,1,.032-.244.573.573,0,0,1,.155-.215,1.035,1.035,0,0,1,.244-.123A1.018,1.018,0,0,1,512.081,157.823Zm1.1,3.637a.27.27,0,0,1,.2.095c.095.095.095.1.095.791h1.535l.2-.095a.986.986,0,0,1,.3-.095.223.223,0,0,1,.168.073.379.379,0,0,1,.086.149.334.334,0,0,1-.013.158.651.651,0,0,1-.1.155.851.851,0,0,1-.212.146,2.8,2.8,0,0,1-.4.149,6.115,6.115,0,0,1-1.773.073,15.734,15.734,0,0,1-1.757-.041,3.947,3.947,0,0,1-.491-.136,1.265,1.265,0,0,1-.342-.18.485.485,0,0,1-.12-.2.224.224,0,0,1,.013-.206.326.326,0,0,1,.152-.139c.1-.041.12-.038.266.029.089.038.209.092.269.114a9.113,9.113,0,0,0,1.615.044v-.323c0-.25.013-.345.054-.405a.642.642,0,0,1,.1-.117A.289.289,0,0,1,513.185,161.46Z"/></g><g transform="translate(-19.613 -11.333)"><path class="a" d="M220.921,45a.708.708,0,0,1,.208.023,1.616,1.616,0,0,0,.192.065,1.1,1.1,0,0,1,.293.145c.08.06.495.441.918.85a10.678,10.678,0,0,1,.846.868.561.561,0,0,1,.072.161c0,.021.011.039.027.039s.024.008.021.021a.575.575,0,0,0,.027.122,1.32,1.32,0,0,1,.032.311.988.988,0,0,1-.072.4,1.059,1.059,0,0,1-.628.6,1.472,1.472,0,0,1-.564.067l-.4.4c-.221.22-.42.425-.447.456-.043.052-.043.065.04.3a1.166,1.166,0,0,1,.088.5.917.917,0,0,1-.08.454,1.367,1.367,0,0,1-.189.324,1.093,1.093,0,0,1-.186.181c-.043.029-.13.078-.2.111a2.731,2.731,0,0,1-.572.15l.109.091a2.2,2.2,0,0,1,.255.257,1.527,1.527,0,0,1,.223.363c.045.106.09.215.1.241a.23.23,0,0,0,.114.083c.056.023.178.078.274.122s.255.13.359.187.192.111.2.119.067.047.133.088.234.166.373.277.333.275.428.366.306.314.463.5.319.384.357.441a1.442,1.442,0,0,0,.117.156.194.194,0,0,1,.045.073.761.761,0,0,0,.075.13,3.477,3.477,0,0,1,.2.355c.067.135.152.316.189.4s.117.3.178.48.128.4.149.493.045.192.051.22.029.156.053.285a5.68,5.68,0,0,1,.059.8,5.776,5.776,0,0,1-.032.959,2.529,2.529,0,0,1-.069.423.07.07,0,0,0-.008.065.1.1,0,0,1-.011.083,1.44,1.44,0,0,0-.059.207c-.019.086-.077.283-.133.441s-.144.4-.2.531-.154.35-.221.48-.189.337-.269.461-.239.342-.351.48-.325.379-.479.534-.378.366-.5.467-.266.213-.4.314l.064.1c.035.057.088.163.12.233s.075.176.1.233.061.174.085.259a9.24,9.24,0,0,1,.077,1.46l.439.01a1.643,1.643,0,0,1,.679.1,2.9,2.9,0,0,1,.426.192,2.282,2.282,0,0,1,.335.251,3.232,3.232,0,0,1,.253.272,2.738,2.738,0,0,1,.17.246,2,2,0,0,1,.144.332,1.473,1.473,0,0,1,.069.29c0,.041.011.083.027.091a4.57,4.57,0,0,1,0,.985.075.075,0,0,0-.027.065.614.614,0,0,1-.064.176.756.756,0,0,1-.146.194.61.61,0,0,1-.2.1.519.519,0,0,0-.138.052c-.013.01-3.371.021-7.464.021s-7.451-.008-7.464-.021a.737.737,0,0,0-.133-.054.866.866,0,0,1-.194-.1.6.6,0,0,1-.154-.2.616.616,0,0,1-.064-.2.116.116,0,0,0-.027-.086,3.663,3.663,0,0,1,0-.881.159.159,0,0,0,.027-.1,1.468,1.468,0,0,1,.069-.3,1.371,1.371,0,0,1,.088-.228.621.621,0,0,0,.053-.091,1.846,1.846,0,0,1,.17-.259,2.739,2.739,0,0,1,.232-.272,1.016,1.016,0,0,1,.136-.117c.024-.016.112-.073.2-.127a2.1,2.1,0,0,1,.309-.163.892.892,0,0,1,.2-.06.1.1,0,0,0,.072-.026.739.739,0,0,1,.213-.049c.117-.018,1.152-.029,5.309-.029V62.24l-3.028,0c-1.663,0-3.05,0-3.079,0a.807.807,0,0,1-.186-.073,1.04,1.04,0,0,1-.208-.135.588.588,0,0,1-.12-.2,3.365,3.365,0,0,1-.045-.933,2.884,2.884,0,0,1,.048-.92.7.7,0,0,1,.106-.179,1.782,1.782,0,0,1,.365-.21h8.169l.125.06a.74.74,0,0,1,.2.15.643.643,0,0,1,.114.194,4.115,4.115,0,0,1,.035.77c0,.576.005.666.04.666s.128-.013.231-.026a1.526,1.526,0,0,0,.247-.052c.029-.01.106-.034.173-.049a1.527,1.527,0,0,0,.226-.07c.059-.026.112-.047.12-.049s.043-.018.08-.031.157-.08.266-.143a3.377,3.377,0,0,0,.359-.233,2.962,2.962,0,0,0,.309-.272c.082-.083.2-.218.274-.3a2.393,2.393,0,0,0,.216-.332c.051-.1.128-.267.17-.368a3.2,3.2,0,0,0,.125-.436,3.966,3.966,0,0,0,.048-.765,2.981,2.981,0,0,0-.059-.783,2.278,2.278,0,0,0-.083-.311c-.013-.026-.082-.158-.152-.293s-.138-.272-.154-.3-.037-.06-.051-.06-.019-.013-.019-.026a.568.568,0,0,0-.085-.148,3.545,3.545,0,0,0-.341-.373,4.1,4.1,0,0,0-.426-.366,7.484,7.484,0,0,0-.838-.446l-.346-.021a1.916,1.916,0,0,1-.585-.1,3.039,3.039,0,0,1-.319-.119.633.633,0,0,1-.12-.073c-.035-.031-.12.041-.66.565-.341.332-.617.612-.617.625a1.473,1.473,0,0,0,.082.181,1.648,1.648,0,0,1,.125.342,1.585,1.585,0,0,1,.043.3,1.614,1.614,0,0,1-.043.3,1.524,1.524,0,0,1-.088.272,1.609,1.609,0,0,1-.224.259.708.708,0,0,1-.349.223c-.1.031-.229.067-.3.086a1.153,1.153,0,0,1-.2.029,2.222,2.222,0,0,1-.7-.236,2.823,2.823,0,0,1-.306-.257l-.506.5a3.105,3.105,0,0,1-.652.57c-.08.036-.208.086-.279.111a1.753,1.753,0,0,1-.319.057,2.088,2.088,0,0,1-.381-.016.609.609,0,0,1-.2-.054.071.071,0,0,0-.061-.026.858.858,0,0,1-.186-.065.383.383,0,0,1-.138-.091c0-.016-.016-.026-.035-.026a.8.8,0,0,1-.184-.148.9.9,0,0,1-.154-.176.085.085,0,0,0-.043-.052,1.141,1.141,0,0,1-.13-.285,1.164,1.164,0,0,1-.093-.524,1.126,1.126,0,0,1,.027-.311,1.049,1.049,0,0,0,.053-.156,1.082,1.082,0,0,1,.149-.285,6.986,6.986,0,0,1,.561-.6,6.056,6.056,0,0,0,.428-.443c-.005-.01-.093-.091-.194-.179s-.269-.239-.37-.334a2.538,2.538,0,0,1-.255-.275.973.973,0,0,1-.12-.233,1.7,1.7,0,0,0-.075-.192,1.313,1.313,0,0,1,0-.576c.016-.034.051-.127.077-.2.037-.119.082-.179.261-.353a.865.865,0,0,1,.389-.267,2.521,2.521,0,0,1,.652-.086l.37-.368c.2-.2.652-.648,1-.993s.83-.832,1.08-1.086.639-.648.865-.876.519-.524.873-.884l.011-.285a1.21,1.21,0,0,1,.069-.428,1.094,1.094,0,0,1,.224-.321,1.8,1.8,0,0,1,.247-.223,1.947,1.947,0,0,1,.306-.119,1.1,1.1,0,0,1,.468-.06.841.841,0,0,1,.279.041.152.152,0,0,0,.09.023,9.712,9.712,0,0,0,.942-.91l0-.137a.335.335,0,0,1,.019-.145.288.288,0,0,0,.043-.135,1.184,1.184,0,0,1,.335-.609,1.135,1.135,0,0,1,.282-.2,1.274,1.274,0,0,1,.247-.075c.061-.01.112-.026.112-.039A.362.362,0,0,1,220.921,45Zm-.255,1.019a.262.262,0,0,0-.029.148,3.966,3.966,0,0,0,.49.519c.261.249.636.609.833.8.346.332.365.342.471.345a.279.279,0,0,0,.194-.065.287.287,0,0,0,.1-.148.238.238,0,0,0-.019-.15c-.019-.036-.394-.417-.833-.848-.742-.726-.809-.783-.894-.786a.35.35,0,0,0-.309.189Zm-1.176,1.737a2.4,2.4,0,0,0,.333.363c.311.306.346.332.4.306.032-.016.059-.041.059-.054a3.427,3.427,0,0,1,.354-.363l.351-.337c-.125-.13-.279-.283-.426-.423a1.8,1.8,0,0,0-.3-.251,3.456,3.456,0,0,0-.4.363A5.184,5.184,0,0,0,219.49,47.756Zm-1.424.321a.6.6,0,0,0-.1.158.319.319,0,0,0-.035.169c.008.031.373.4.806.83s.953.926,1.155,1.11l.365.334c.269,0,.287-.005.375-.1a.425.425,0,0,0,.114-.2.433.433,0,0,0-.005-.194,9.472,9.472,0,0,0-1.1-1.115c-.657-.63-1.1-1.037-1.152-1.055a.4.4,0,0,0-.138-.029.766.766,0,0,0-.146.023.415.415,0,0,0-.141.067Zm-4,4.744-.452.449c.862.814,1.235,1.169,1.381,1.317a2.473,2.473,0,0,0,.3.267,3.476,3.476,0,0,1,.351.321l.327.324,1.237-1.218a3.076,3.076,0,0,1-.216-.441,2.97,2.97,0,0,1-.067-.389,2.939,2.939,0,0,1-.016-.441c.008-.093.035-.262.059-.376a2.01,2.01,0,0,1,.141-.4,3.018,3.018,0,0,1,.17-.3,1.583,1.583,0,0,1,.2-.226,2.527,2.527,0,0,1,.287-.226,1.079,1.079,0,0,1,.178-.106.849.849,0,0,0,.16-.065,1.563,1.563,0,0,1,.82-.161,2.133,2.133,0,0,1,.511.016c.088.026.1.023.117-.016s-.2-.257-.931-.959c-.522-.5-.953-.915-.958-.915s-.716.7-1.578,1.548S214.317,52.578,214.069,52.822Zm4.351-.793a1.237,1.237,0,0,0-.319.207c-.067.065-.141.145-.168.179a1.735,1.735,0,0,0-.12.246.966.966,0,0,0-.072.467.943.943,0,0,0,.08.48A.958.958,0,0,0,218.1,54a1.2,1.2,0,0,0,.346.262,1.69,1.69,0,0,0,.359.1,1.3,1.3,0,0,0,.426,0,1.387,1.387,0,0,0,.373-.1,1.124,1.124,0,0,0,.341-.267,1.053,1.053,0,0,0,.234-.324,2.244,2.244,0,0,0,.08-.324,1.32,1.32,0,0,0,0-.41,1.214,1.214,0,0,0-.106-.376,1.115,1.115,0,0,0-.247-.311,1.575,1.575,0,0,0-.354-.246.861.861,0,0,0-.479-.093,1,1,0,0,0-.652.122Zm-5.934,1.755a.457.457,0,0,0-.114.143.25.25,0,0,0-.021.194c.021.08.168.233.846.887.45.436,1.155,1.115,1.565,1.509l.745.718c.274,0,.3-.005.386-.1a.544.544,0,0,0,.128-.187.4.4,0,0,0,0-.194c-.019-.088-.085-.166-.455-.519-.239-.228-.6-.573-.806-.765s-.607-.57-.894-.843-.607-.57-.71-.669a1.834,1.834,0,0,0-.3-.226.6.6,0,0,0-.114-.049s-.048.013-.1.026A.465.465,0,0,0,212.486,53.784Zm-.29,3.35a.679.679,0,0,0-.056.233.621.621,0,0,0,.051.22.984.984,0,0,0,.173.215.661.661,0,0,0,.261.148,1.116,1.116,0,0,0,.208.039.885.885,0,0,0,.173-.031c.082-.023.173-.1.394-.316a2.382,2.382,0,0,0,.285-.319.578.578,0,0,0-.152-.169c-.083-.075-.263-.251-.4-.389a1.585,1.585,0,0,0-.3-.254,1.643,1.643,0,0,0-.309.254A1.614,1.614,0,0,0,212.2,57.133Zm-1.937,3.785.005.48c6.751.01,7.517.005,7.52-.018s0-.244,0-.5-.011-.474-.016-.485-1.692-.021-3.749-.021c-3.02,0-3.741.005-3.749.034S210.256,60.656,210.259,60.918Zm8.566,2.958a.832.832,0,0,0-.109.218.981.981,0,0,0-.029.22.524.524,0,0,0,.061.231.788.788,0,0,0,.178.215.828.828,0,0,0,.213.13,1.009,1.009,0,0,0,.269.018.511.511,0,0,0,.285-.08.9.9,0,0,0,.192-.181.553.553,0,0,0,.122-.449.7.7,0,0,0-.08-.233.949.949,0,0,0-.141-.174.6.6,0,0,0-.176-.109.825.825,0,0,0-.266-.041.655.655,0,0,0-.3.062.489.489,0,0,0-.216.174Zm-8.214,2.865a1.951,1.951,0,0,0-.266.166,1.445,1.445,0,0,0-.216.2,1.375,1.375,0,0,0-.263.521,2,2,0,0,0-.04.441v.29l.758-.013a.975.975,0,0,1,.072-.311.65.65,0,0,1,.144-.163.7.7,0,0,1,.2-.111c.061-.018,2.1-.023,6.134-.018l6.04.008a1,1,0,0,1,.311.236.557.557,0,0,1,.093.239l.021.135h.732a4.957,4.957,0,0,0-.027-.6,1.264,1.264,0,0,0-.128-.4,1.151,1.151,0,0,0-.258-.353,1.405,1.405,0,0,0-.359-.244,1.377,1.377,0,0,0-.4-.119c-.125-.016-2.429-.023-6.16-.023-3.544,0-6.019.013-6.107.029A1.166,1.166,0,0,0,210.61,66.741Zm3.113-3.326a4.72,4.72,0,0,1,1.251.049.344.344,0,0,0,.112.047.575.575,0,0,1,.17.124,1,1,0,0,1,.2.264.671.671,0,0,1,.072.324,1.338,1.338,0,0,1-.035.3.783.783,0,0,1-.173.27.968.968,0,0,1-.271.215c-.133.06-.133.06-1.352.06a5.581,5.581,0,0,1-1.344-.047.811.811,0,0,1-.386-.28.736.736,0,0,1-.082-.14.412.412,0,0,0-.032-.091.936.936,0,0,1-.024-.246.637.637,0,0,1,.059-.316.865.865,0,0,0,.061-.143.424.424,0,0,1,.106-.13.779.779,0,0,1,.2-.153c.056-.023.144-.06.194-.078A7.5,7.5,0,0,1,213.723,63.415Zm5.412-10.868a.94.94,0,0,1,.2.054.8.8,0,0,1,.173.143.684.684,0,0,1,.125.2.7.7,0,0,1,0,.436.671.671,0,0,1-.138.218.732.732,0,0,1-.213.163.765.765,0,0,1-.3.049.509.509,0,0,1-.471-.2.979.979,0,0,1-.112-.192.943.943,0,0,1-.032-.259.66.66,0,0,1,.048-.272.774.774,0,0,1,.112-.171.709.709,0,0,1,.157-.114.76.76,0,0,1,.21-.062A.925.925,0,0,1,219.136,52.547Z" transform="translate(71.667 -30.13)"/><path class="a" d="M1.566,0A1.742,1.742,0,0,1,2.1.073,1.826,1.826,0,0,1,2.54.285,1.97,1.97,0,0,1,2.867.6a1.874,1.874,0,0,1,.235.412,2.279,2.279,0,0,1,.108.423,1.794,1.794,0,0,1-.027.442,2.745,2.745,0,0,1-.192.577l.158.146a1.421,1.421,0,0,0,.223.173c.042.023.158-.019.389-.138a3.276,3.276,0,0,1,.654-.254c.181-.042.423-.092.539-.1A2.441,2.441,0,0,1,5.49,2.3a3.562,3.562,0,0,1,.635.158,5.074,5.074,0,0,1,.9.5l.262-.219c.142-.119.265-.223.277-.231a.623.623,0,0,0-.054-.235,1.435,1.435,0,0,1-.054-.566,1.174,1.174,0,0,1,.119-.546A1.9,1.9,0,0,1,7.868.777a1.694,1.694,0,0,1,.4-.289,1.041,1.041,0,0,1,.6-.108,1.041,1.041,0,0,1,.6.108,1.749,1.749,0,0,1,.4.277,1.937,1.937,0,0,1,.292.4,1.19,1.19,0,0,1,.127.519,1.427,1.427,0,0,1-.054.5,1.806,1.806,0,0,1-.189.4,1.387,1.387,0,0,1-.254.292,2.457,2.457,0,0,1-.289.185,1.971,1.971,0,0,1-.385.123,1.423,1.423,0,0,1-.392.023,3.853,3.853,0,0,1-.723-.246l-.258.208a2.883,2.883,0,0,0-.262.219s.073.154.169.335a4.6,4.6,0,0,1,.277.673,2.17,2.17,0,0,1,.1.731,2.936,2.936,0,0,1-.065.673,6.021,6.021,0,0,1-.408,1l.412.6.265.023a4.548,4.548,0,0,1,.469.069,2.561,2.561,0,0,1,.481.181,2.111,2.111,0,0,1,.519.385,1.986,1.986,0,0,1,.369.527,2.482,2.482,0,0,1,.173.45,2.753,2.753,0,0,1,0,.962,2.527,2.527,0,0,1-.177.462A1.91,1.91,0,0,1,9.688,11a2.205,2.205,0,0,1-.5.373,2.716,2.716,0,0,1-.558.189,1.8,1.8,0,0,1-.539.038,2.977,2.977,0,0,1-.5-.1,2.182,2.182,0,0,1-.442-.189,2.776,2.776,0,0,1-.692-.692,2.06,2.06,0,0,1-.2-.423A1.675,1.675,0,0,1,6.167,9.5a2.272,2.272,0,0,1,.208-1l-.2-.273c-.158-.219-.215-.269-.277-.25-.042.012-.215.038-.385.065a3.122,3.122,0,0,1-.6.019A3.228,3.228,0,0,1,4.3,7.937a3.323,3.323,0,0,1-.592-.262,3.6,3.6,0,0,1-.562-.446,3.322,3.322,0,0,1-.431-.519,3.767,3.767,0,0,1-.239-.462,4.3,4.3,0,0,1-.162-.558,2.657,2.657,0,0,1-.042-.712,3.234,3.234,0,0,1,.1-.654,3.058,3.058,0,0,1,.2-.481c.065-.115.177-.292.377-.577l-.4-.339-.154.081a2.218,2.218,0,0,1-.327.127,1.9,1.9,0,0,1-.462.054,1.875,1.875,0,0,1-.481-.062,2.069,2.069,0,0,1-.4-.2,2.018,2.018,0,0,1-.377-.35A1.725,1.725,0,0,1,.1,2.131a2.562,2.562,0,0,1-.1-.4A1.371,1.371,0,0,1,.043,1.3a2.34,2.34,0,0,1,.135-.4,1.812,1.812,0,0,1,.2-.3A2.155,2.155,0,0,1,.658.316,1.942,1.942,0,0,1,1.047.1,1.239,1.239,0,0,1,1.566,0ZM.9.966a1.228,1.228,0,0,0-.2.358,1.546,1.546,0,0,0-.058.346.824.824,0,0,0,.077.308,1.3,1.3,0,0,0,.2.289,1.292,1.292,0,0,0,.281.208,1.175,1.175,0,0,0,.327.088,1.109,1.109,0,0,0,.339-.023L2.028,2.5a3.522,3.522,0,0,1-.377-.45.217.217,0,0,1,0-.212.318.318,0,0,1,.173-.173.23.23,0,0,1,.212-.008c.046.027.165.112.269.192L2.49,2a1.948,1.948,0,0,0,.077-.385,1.5,1.5,0,0,0-.058-.3A.819.819,0,0,0,2.278.939.827.827,0,0,0,1.9.708,1.619,1.619,0,0,0,1.585.65a1.284,1.284,0,0,0-.327.077A.756.756,0,0,0,.9.966Zm7.46.215a1.24,1.24,0,0,0-.162.212.873.873,0,0,0-.115.289.557.557,0,0,0,.012.231c.031.085.035.085.262-.085A.718.718,0,0,1,8.7,1.651a.332.332,0,0,1,.219.1.277.277,0,0,1,.108.2c0,.077-.058.162-.212.315a1,1,0,0,0-.212.262c0,.031.073.046.239.046a.957.957,0,0,0,.4-.077.728.728,0,0,0,.289-.258.833.833,0,0,0,.138-.4.62.62,0,0,0-.058-.365A1.072,1.072,0,0,0,9.4,1.2a.87.87,0,0,0-.285-.165A1.411,1.411,0,0,0,8.837,1a.973.973,0,0,0-.269.062A1.021,1.021,0,0,0,8.36,1.181Zm-4,1.9a2.408,2.408,0,0,0-.385.181,3.643,3.643,0,0,0-.4.331A2.364,2.364,0,0,0,3.232,4a2.931,2.931,0,0,0-.192.423A1.994,1.994,0,0,0,2.924,5a3,3,0,0,0,.023.6,2.628,2.628,0,0,0,.181.55,2.127,2.127,0,0,0,.389.55,3.062,3.062,0,0,0,.454.392,2.486,2.486,0,0,0,.442.212,2.238,2.238,0,0,0,.685.115c.369.023.431.019.431-.031a1.283,1.283,0,0,0-.058-.231.831.831,0,0,1-.042-.365,1.159,1.159,0,0,1,.15-.4.939.939,0,0,1,.3-.315,1.064,1.064,0,0,1,.346-.131,1.49,1.49,0,0,1,.346,0,.965.965,0,0,1,.373.162c.112.073.212.123.219.108s.062-.146.115-.289A2.363,2.363,0,0,0,7.4,5.394a2.534,2.534,0,0,0-.019-.539,2.455,2.455,0,0,0-.142-.519,2.807,2.807,0,0,0-.281-.492,2.72,2.72,0,0,0-.412-.427,3.608,3.608,0,0,0-.362-.246,2.887,2.887,0,0,0-.346-.142,2.116,2.116,0,0,0-.558-.088,2.922,2.922,0,0,0-.519.019A2.406,2.406,0,0,0,4.355,3.078ZM6.064,6.837a1.588,1.588,0,0,0,.258.489c.142.212.308.45.365.531L6.8,8c.4-.277.512-.377.508-.4s-.142-.215-.3-.427-.323-.431-.373-.489a.413.413,0,0,0-.2-.131.266.266,0,0,0-.246.081A.27.27,0,0,0,6.064,6.837Zm1.12,1.727a1.329,1.329,0,0,0-.4.935,1.941,1.941,0,0,0,.062.462,1.675,1.675,0,0,0,.212.412,1.849,1.849,0,0,0,.377.354,2.413,2.413,0,0,0,.346.2,1.516,1.516,0,0,0,.442.042,1,1,0,0,0,.6-.135,1.527,1.527,0,0,0,.473-.354,1.567,1.567,0,0,0,.285-.439,1.312,1.312,0,0,0,.081-.5,1.332,1.332,0,0,0-.073-.481,2.562,2.562,0,0,0-.212-.385,1.586,1.586,0,0,0-.327-.315,2.013,2.013,0,0,0-.362-.185,1.834,1.834,0,0,0-.5-.058,1.02,1.02,0,0,0-.558.112A1.545,1.545,0,0,0,7.183,8.564Zm-2.4-4.99a.483.483,0,0,1,.146.038.45.45,0,0,1,.158.123.3.3,0,0,1,.038.223c-.019.115-.054.154-.277.289a1.983,1.983,0,0,0-.377.289,1.211,1.211,0,0,0-.2.346c-.042.115-.088.269-.1.335a.344.344,0,0,1-.131.2.316.316,0,0,1-.173.077.37.37,0,0,1-.154-.054.447.447,0,0,1-.135-.165.52.52,0,0,1-.012-.339,2.169,2.169,0,0,1,.154-.462A1.906,1.906,0,0,1,4,4.078a2.826,2.826,0,0,1,.339-.285,2.257,2.257,0,0,1,.289-.165A.958.958,0,0,1,4.786,3.574Z" transform="translate(296.792 12.944) rotate(-9)"/></g></svg>