<svg version="1.2" xmlns="http://www.w3.org/2000/svg" viewBox="0 0 512 512" width="512" height="512"><style>.a{fill:#004d7d}.b{fill:#faf7f5}.c{fill:#ffcd69}.d{fill:#9de3d1}.e{fill:#ff9c9b}.f{fill:#bfdbff}.g{fill:#eaaacb}</style><path fill-rule="evenodd" class="a" d="m256 0.1c3.1-0.1 11.5 5.8 128.5 91.9h59.8c48.8 0 60.2 0.3 62.5 1.4 1.5 0.7 3.3 2.5 4 4 0.9 2 1.2 28.7 1.2 243.1l-3 3c-2.4 2.3-4 3-7.1 3-3.3 0-4.6-0.6-9.9-6.5v-228h-472v380h472v-68l2.9-3.3c2.4-2.6 3.7-3.2 7-3.2 3.1 0 4.7 0.7 10.1 6v40.2c0 27.6-0.4 41-1.1 42.5-0.6 1.3-2.1 3.1-3.3 4-2 1.7-16.7 1.8-251.6 1.8-234.9 0-249.6-0.1-251.6-1.8-1.2-0.9-2.7-2.7-3.3-4-0.8-1.6-1.1-57.4-1.1-204.2 0-159.5 0.3-202.6 1.2-204.6 0.7-1.5 2.5-3.3 4-4 2.3-1.1 13.7-1.4 122.3-1.3l62.5-46c54.2-39.9 63-46 66-46zm-93.8 91.4c72.3 0.4 114.5 0.4 140.5 0.3l47.2-0.3c-70.8-52.2-92.1-67.6-92.9-67.9-1.1-0.5-17.2 10.8-48.2 33.6zm339.9 280.5c3 0 4.6 0.7 6.9 3 2.3 2.3 3 4 3 6.8 0 2.9-0.7 4.4-3 6.7-2.4 2.3-4 3-7.1 3-3.4 0-4.6-0.6-7.1-3.5-2.7-3-3-4-2.5-7.5 0.4-2.6 1.5-4.8 3.2-6.2 1.8-1.5 3.9-2.3 6.6-2.3z"/><path class="b" d="m20 302v190h472v-68c3.6-4.3 5.9-5.8 7.3-6.3l2.7-0.7v-25c-4.1-1.2-6.4-2.9-7.8-4.5-2-2.4-2.3-3.7-1.9-7 0.4-2.6 1.5-4.8 3.1-6.3 1.4-1.2 3.5-2.2 4.6-2.2 1.9 0 2-0.7 2-12.5v-12.5c-4.1-1.2-6.4-2.7-7.7-4.3l-2.3-2.7v-228h-472z"/><path fill-rule="evenodd" class="a" d="m80.8 132c21.2 0 27.8 0.3 30 1.4 1.5 0.7 3.3 2.5 4 4 0.8 1.7 1.2 7.9 1.2 34.6h21c14.7 0 21.8 0.4 23.6 1.2 1.5 0.7 3.3 2.5 4 4 1 2 1.4 7.2 1.4 34.8h130v-16c0-10.7 0.4-16.9 1.3-18.6 0.6-1.5 2.4-3.3 4-4 2.2-1.1 11.6-1.4 94.7-1.4v-16c0-10.7 0.4-16.9 1.2-18.6 0.7-1.5 2.5-3.3 4-4 2.2-1.1 8.8-1.4 29.8-1.4 19.5 0 27.7 0.3 29.6 1.3 1.5 0.6 3.3 2.4 4 4 1.2 2.2 1.4 20 1.4 104.7 0 84.7-0.2 102.5-1.4 104.8-0.7 1.5-2.5 3.3-4 4-2 0.9-45.1 1.2-204.6 1.2-159.5 0-202.6-0.3-204.6-1.2-1.5-0.7-3.3-2.5-4-4-1.2-2.3-1.4-20.1-1.4-105 0.1-90.8 0.2-102.6 1.6-104.7 0.9-1.3 2.6-3 3.7-3.7 1.7-1 8.6-1.3 29.4-1.4zm175.1 0c55.7 0 72.8 0.3 74.8 1.3 1.5 0.6 3.3 2.4 4 4 0.8 1.5 1.4 3.6 1.4 4.7 0 1.1-0.6 3.2-1.4 4.8-0.7 1.5-2.5 3.3-4 4-2 0.9-19.1 1.2-74.6 1.2-55.5 0-72.6-0.3-74.6-1.2-1.5-0.7-3.3-2.5-4-4-0.8-1.6-1.4-3.8-1.4-5 0.1-1.3 0.8-3.4 1.6-4.7 0.9-1.3 2.6-3 3.7-3.7 1.8-1.1 16.3-1.3 74.5-1.4zm24.9 240c148.8 0 177.7 0.2 180.1 1.4 1.5 0.7 3.3 2.5 4 4 0.9 1.9 1.2 13.1 1.2 44.6 0 31.5-0.3 42.7-1.2 44.6-0.7 1.5-2.5 3.3-4 4-2.4 1.2-31.3 1.4-179.8 1.4-148.5 0-177.4-0.2-179.7-1.4-1.6-0.7-3.4-2.5-4-4-1-2-1.3-13.1-1.3-44.8 0.1-36.5 0.3-42.6 1.6-44.7 0.9-1.3 2.6-3 3.7-3.7 1.8-1.1 34.1-1.3 179.5-1.4z"/><path class="c" d="m116 202v10h30v-20h-30zm0 40v10h30v-20h-30zm50 0v10h30v-20h-30zm50 0v10h30v-20h-30zm50 0v10h30v-20h-30zm-150 40v10h30v-20h-30zm50 0v10h30v-20h-30zm50 0v10h30v-20h-30zm50 0v10h30v-20h-30zm-150 40v10h30v-20h-30zm50 0v10h30v-20h-30zm50 0v10h30v-20h-30zm50 0v10h30v-20h-30z"/><path class="d" d="m316 242v10h30v-20h-30zm0 40v10h30v-20h-30zm50 0v10h30v-20h-30zm-50 40v10h30v-20h-30zm50 0v10h30v-20h-30z"/><path class="e" d="m66 162v10h30v-20h-30zm0 40v10h30v-20h-30zm0 40v10h30v-20h-30zm0 40v10h30v-20h-30zm0 40v10h30v-20h-30z"/><path class="f" d="m316 202v10h30v-20h-30zm50 0v10h30v-20h-30zm0 40v10h30v-20h-30z"/><path class="g" d="m416 162v10h30v-20h-30zm0 40v10h30v-20h-30zm0 40v10h30v-20h-30zm0 40v10h30v-20h-30zm0 40v10h30v-20h-30zm-300 80v10h30v-20h-30zm50 0v10h30v-20h-30zm50 0v10h30v-20h-30zm50 0v10h30v-20h-30zm50 0v10h30v-20h-30zm50 0v10h30v-20h-30zm50 0v10h30v-20h-30zm-300 40v10h30v-20h-30zm50 0v10h30v-20h-30zm50 0v10h30v-20h-30zm50 0v10h30v-20h-30zm50 0v10h30v-20h-30zm50 0v10h30v-20h-30zm50 0v10h30v-20h-30z"/></svg>