<svg version="1.2" xmlns="http://www.w3.org/2000/svg" viewBox="0 0 512 512" width="512" height="512"><style>.a{fill:#0058bf}.b{fill:#f88917}.c{fill:#78d0b1}.d{fill:#7398d3}.e{fill:#dd5790}.f{fill:#ffcf34}</style><path  d="m2 2.6l-2.2 2.7 0.2 329.7 5 5h502.1l4.9-5c0-216.5 0-217.5-2-219.8-1.3-1.5-3.1-2.2-5.5-2.2-2.4 0-4.2 0.7-5.5 2.2-1.6 1.8-2 3.7-2 8.5v6.3h-56v-50h56c0 9.7 0.6 13.2 1.3 14.2 0.7 0.9 2.3 2 3.7 2.6 1.6 0.6 3.4 0.6 5 0 1.4-0.5 3-1.7 3.7-2.6 0.9-1.3 1.3-12.7 1.3-45.2 0.1-42.2 0-43.6-2-46.3l-2-2.7h-78c-4 5.4-4.1 6.7-4 67.8v62.2h-66.1l-4.9 5v60h-198v-125l-5-5h-66c0.1-58.1 0-59.6-2-62.3l-2-2.7c-22 0.1-27.1 0.5-28.2 1.3-0.9 0.7-2 2.3-2.6 3.7-0.6 1.6-0.6 3.4 0 5 0.5 1.4 1.7 3.1 2.6 3.7 1 0.8 4.7 1.3 9.4 1.3h7.8v50h-56v-50c12.2-0.1 16.2-0.6 17.2-1.3 0.9-0.7 2.1-2.3 2.6-3.7 0.6-1.6 0.6-3.4 0-5-0.6-1.4-1.7-3-2.6-3.7-1.1-0.8-6.1-1.2-14.9-1.3-13 0-13.2 0-15.3 2.6zm71.5 366.9l-2.4 2.4c-0.2 133.5-0.1 134.6 1.9 137.3l2 2.8 167.5 0.1c3.6-3.7 4.5-5.9 4.5-7.9 0-2.3-0.7-3.7-2.8-5.2-2.1-1.6-4.2-2.1-9.5-2h-6.7v-50h56v50c-16.3 0-17.3 0.2-19.5 2.5-1.4 1.4-2.5 3.6-2.5 5 0 1.4 1.1 3.6 2.5 5l2.5 2.5h170c4-5.5 4.1-6.7 4-72.8v-67.2l-5-5h-360.1z"/><path class="a" d="m441 105v25h56c0-11.1 0.4-13 2-14.8 1.1-1.2 2.9-2.2 4-2.2 1.8 0 2-0.7 2-7.5 0-7.3-0.1-7.5-2.8-8.6-1.5-0.6-3.2-1.8-3.9-2.7-0.7-1-1.3-4.5-1.3-7.9v-6.3h-56z"/><path class="b" d="m228 472v25c12-0.1 14.1 0.4 16.3 2 1.5 1.1 2.7 2.9 2.7 4 0 1.8 0.7 2 7.5 2 6 0 7.5-0.3 7.5-1.5 0-0.8 1.1-2.6 2.5-4 2.2-2.3 3.2-2.5 11-2.5h8.5v-50h-56z"/><path class="c" d="m34.9 9.8c-0.6 1.5-1.8 3.2-2.7 3.9-1 0.7-5 1.2-9.4 1.3h-7.8v50h56v-50c-12.2-0.1-16.2-0.6-17.2-1.3-0.9-0.7-2.1-2.4-2.7-4-1.1-2.6-1.4-2.7-8.1-2.7-6.8 0-7.1 0.1-8.1 2.7z"/><path class="d" d="m86 105v25h56v-50h-56zm0 65v25h56v-50h-56zm0 65v25h56v-50h-56zm0 65v25h56v-50h-56z"/><path class="e" d="m370 170v25h56v-50h-56zm0 65v25h56v-50h-56zm0 65v25h56v-50h-56z"/><path class="a" d="m441 40v25h56v-50h-56zm0 130v25h56v-50h-56zm0 65v25h56v-50h-56zm0 65v25h56v-50h-56z"/><path class="b" d="m157 235v25h56v-50h-56zm142 0v25h56v-50h-56zm-142 65v25h56v-50h-56zm142 0v25h56v-50h-56zm-213 107v25h56v-50h-56zm142 0v25h56v-50h-56zm142 0v25h56v-50h-56zm-284 65v25h56v-50h-56zm284 0v25h56v-50h-56z"/><path class="f" d="m228 235v25h56v-50h-56zm0 65v25h56v-50h-56zm-71 107v25h56v-50h-56zm142 0v25h56v-50h-56zm-142 65v25h56v-50h-56zm142 0v25h56v-50h-56z"/><path class="c" d="m15 105v25h56v-50h-56zm0 65v25h56v-50h-56zm0 65v25h56v-50h-56zm0 65v25h56v-50h-56z"/></svg>