<svg version="1.2" xmlns="http://www.w3.org/2000/svg" viewBox="0 0 328 357" width="328" height="357"><style>tspan{white-space:pre}.a{fill:#a7ddee}.b{fill:#51d1fd}.c{fill:none;stroke:#0b1520;stroke-miterlimit:100;stroke-width:8}.d{fill:#94d9f2}.e{fill:#00a4e2}.f{fill:#00abec}.g{fill:#01a5e6}.h{fill:#009eda}.i{fill:#42cafb}.j{fill:#00a4d8}.k{opacity:1;fill:#009ed0}</style><text style="transform:matrix(1.185,0,0,1.185,1109.848,564.518)" ></text><path class="a" d="m256.1 247.3c0 0 0-25.6 1.7-29.1 1.6-3.6 12.4-11.9 12.4-11.9 0 0 14.3 30.5-14.1 41z"/><path class="b" d="m164 121.5c0 0 0 6.7-7.6 7.5 0 0 7.6 2.2 7.6 6.9m0-14.4c0 0 0 6.7-7.6 7.5 0 0 7.6 2.2 7.6 6.9m0-14.4c0 0-0.1 6.7 7.5 7.5 0 0-7.5 2.2-7.5 6.9m0-14.4c0 0-0.1 6.7 7.5 7.5 0 0-7.5 2.2-7.5 6.9"/><path class="c" d="m101.4 56.2"/><path class="d" d="m70.6 247.3c0 0 0-25.6-1.6-29.1-1.7-3.6-12.5-11.9-12.5-11.9 0 0-14.3 30.5 14.1 41z"/><path class="e" d="m70.6 183.2c0 0-24.7 0.3-20.9 40 3.5 37.3 23.6 37.2 23.6 37.2 0 0-2.4-9.2-2.7-15.1 0 0-16.5-7.5-16.5-27.9 0-20.4 16.5-21.8 16.5-21.8zm-95.1-7"/><path class="f" d="m255.7 184.1c0 0 24.8 0.4 21 40.1-3.6 37.3-23.7 37.2-23.7 37.2 0 0 2.4-9.3 2.7-15.1 0 0 16.6-7.5 16.6-27.9 0-20.4-16.6-21.9-16.6-21.9zm95.2-7"/><path class="g" d="m30.1 177.9l0.8 27.1 1.2 47c0 0-14.8 1.2-15.7-11.4-1.7-23-1.1-46.9-1.1-46.9 0 0-1.6-16.8 14.8-15.8zm0 0l0.8 27.1 1.2 47c0 0-14.8 1.2-15.7-11.4-1.7-23-1.1-46.9-1.1-46.9 0 0-1.6-16.8 14.8-15.8z"/><path class="h" d="m295.5 177.9l-0.7 27.1-1.3 47c0 0 14.8 1.2 15.7-11.4 1.8-23 1.1-46.9 1.1-46.9 0 0 1.6-16.8-14.8-15.8zm0 0l-0.7 27.1-1.3 47c0 0 14.8 1.2 15.7-11.4 1.8-23 1.1-46.9 1.1-46.9 0 0 1.6-16.8-14.8-15.8z"/><path class="i" d="m265.6 1.7c-0.6 0.6-1 1.7-1 2.5 0.1 0.8 0.6 1.9 1.2 2.4 0.6 0.6 1.6 1 2.3 1 0.8 0.1 1.9-0.5 2.5-1.1 0.7-0.7 1.2-1.8 1.2-2.5 0-0.7-0.4-1.8-1-2.3-0.6-0.6-1.7-1-2.6-1-0.8-0.1-2 0.4-2.6 1zm-212.5 4.2c-0.6 0.6-1.1 1.6-1.1 2.2 0 0.6 0.3 1.6 0.8 2.3q0.9 1.4 2.7 1.4 1.7 0 2.6-1.4c0.5-0.7 0.9-1.7 0.9-2.3 0-0.6-0.6-1.6-1.2-2.2-0.6-0.6-1.7-1.2-2.3-1.2-0.7 0-1.7 0.6-2.4 1.2zm-21.8 24.7c-0.2 0.4-0.6 2.1-1 3.7-0.4 1.6-1.1 3.8-1.7 4.9-0.6 1.2-2.3 3.3-3.9 4.7-2.3 2.1-4 3-8 4.3-2.8 0.8-5.1 1.8-5.1 2.2 0 0.3 0.7 0.7 1.6 0.9 0.9 0.2 3.1 0.7 4.8 1.2 1.8 0.5 4.4 1.7 5.7 2.6 1.4 0.9 3.2 2.8 4 4.2 0.8 1.3 1.9 4.4 2.5 6.8 0.7 2.6 1.5 4.4 1.9 4.4 0.4 0 1-1.4 1.5-3.5 0.3-1.9 1.3-4.8 2.1-6.4 0.9-1.6 2.3-3.6 3.2-4.5 0.9-0.9 2.8-2.1 4.3-2.8 1.4-0.6 4-1.4 5.7-1.7 1.7-0.4 3.1-0.9 3.1-1.2 0-0.4-1.6-1.1-3.4-1.6-1.9-0.5-4.4-1.4-5.6-2-1.2-0.6-3.1-2-4.2-3.2-1.1-1.1-2.5-3.1-3.1-4.4-0.6-1.3-1.5-3.8-2-5.7-0.5-1.8-1.1-3.4-1.5-3.5-0.3-0.1-0.7 0.1-0.9 0.6zm248.4 3.5c-0.3 1.1-0.9 2.8-1.5 4-0.5 1.1-2 2.9-3.3 3.9-1.2 1.1-3.6 2.3-5.3 2.8-2.3 0.6-3 1.1-2.9 1.8 0.1 0.6 1.2 1.3 3 1.8 1.7 0.5 3.8 1.5 4.9 2.3 1 0.8 2.5 2.7 3.3 4.2 0.7 1.5 1.5 3.6 1.7 4.7 0.2 1.1 0.7 1.8 1.1 1.7 0.4-0.1 1-1.3 1.4-2.5 0.3-1.3 1.2-3.4 1.9-4.8 0.7-1.4 2.1-3.1 3.1-3.8 1.1-0.7 3.1-1.6 4.6-1.9 1.4-0.4 2.7-1.1 2.8-1.5 0.1-0.5-0.8-1.1-2.4-1.6-1.3-0.5-3.4-1.4-4.5-2.1-1.1-0.7-2.5-2.3-3.3-3.6-0.7-1.3-1.6-3.4-1.9-4.8-0.4-1.5-1-2.5-1.5-2.5-0.5 0-1 0.9-1.2 1.9zm37.5 62c-0.2 1.1-0.9 2.7-1.7 3.6-0.7 1-2.7 2.4-4.4 3.1-1.7 0.8-3 1.7-2.8 2.1 0.1 0.4 1.1 0.9 2.1 1.2 1.1 0.3 2.8 1 3.6 1.6 1 0.7 2.1 2.3 2.8 4.2 0.6 1.7 1.3 3.2 1.6 3.2 0.2 0.1 0.8-1 1.2-2.4 0.4-1.5 1.3-3.4 2-4.2 0.8-0.8 2.4-1.8 3.7-2.3 1.3-0.4 2.4-1.1 2.5-1.5 0.1-0.5-0.9-1.2-2.5-1.9-1.4-0.5-3.2-1.7-3.8-2.6-0.7-0.9-1.5-2.6-1.8-3.8-0.3-1.2-0.9-2.2-1.4-2.2-0.4 0-0.9 0.8-1.1 1.9zm-312.3 7.9c-0.3 0.2-0.5 1-0.4 1.7 0.1 1.1-0.2 1.4-1.2 1.4-0.8 0-1.8 0.3-2.5 0.7-0.7 0.5-0.9 1.1-0.7 1.8 0.2 0.6 1.1 1 2.3 1.1 1.5 0.2 1.9 0.5 2.3 2.1 0.3 1 0.8 2.1 1.2 2.3 0.4 0.2 1.1-0.2 1.5-0.8 0.4-0.6 0.7-1.7 0.7-2.4 0-1.1 0.3-1.3 2-1.3 1.7 0 2.1-0.2 2.1-1.2q0-1.1-2.1-2-2-0.9-2.3-2.4c-0.2-0.9-0.7-1.4-1.4-1.4-0.6 0-1.3 0.2-1.5 0.4z"/><path fill-rule="evenodd" class="j" d="m127 137.9c2.1 0 5.4 0.2 7.2 0.6 1.9 0.4 4.6 1.1 6.1 1.5 1.5 0.5 3.5 1.2 4.5 1.7 1 0.4 3.5 1.8 5.4 3.1 2 1.3 4.6 3.4 5.8 4.6 1.1 1.2 2.5 2.7 3 3.3 0.5 0.6 1.7 2.2 4.3 6l0.7-1.1c0.3-0.6 1.5-2.2 2.5-3.5 1-1.4 3.1-3.7 4.7-5.2 1.6-1.5 4.2-3.5 5.8-4.5 1.6-1.1 3.8-2.3 4.8-2.7 0.9-0.4 3.3-1.3 5.1-1.9 1.9-0.6 5.2-1.3 7.5-1.5 2.2-0.3 5.7-0.4 7.8-0.3 2.2 0.2 6 0.8 8.6 1.5 2.6 0.6 5.4 1.5 6.3 1.8 0.9 0.4 2.5 1.1 3.6 1.6 1.1 0.6 3.5 1.9 5.2 3.1 1.7 1.2 4.4 3.2 5.8 4.6 1.5 1.3 3.9 4 5.3 6 1.4 1.9 3.3 5 4.1 6.7 0.9 1.7 2.1 4.7 2.8 6.5 0.6 1.9 1.5 4.9 1.9 6.8q0.7 3.4 0.8 9.9c0 4.5-0.3 7.6-0.8 9.9-0.4 1.9-1.3 5-2.1 7-0.7 2-2.1 5.1-3 7-0.9 1.8-1.8 3.4-1.9 3.6-0.2 0.1-0.9 1-1.5 2.1-0.7 1-1.3 2.1-1.3 2.4 0 0.2 1.1 2.1 2.4 4.1 1.4 2.1 2.9 4.6 3.4 5.5 0.5 1 1.4 3.2 2.1 4.8 0.6 1.6 1.4 4.1 1.8 5.6 0.3 1.5 0.8 3.8 1.1 5.1 0.3 1.3 0.5 3.5 0.5 4.9 0 1.4-0.3 4.2-0.7 6.2-0.3 2-0.9 4.4-1.2 5.4-0.2 1-1.4 3.7-2.5 6-1 2.3-3 5.7-4.3 7.6-1.3 1.9-4.3 5.5-6.6 7.9-2.4 2.4-6 5.5-8 7-2.1 1.4-4.6 3.1-5.6 3.8-1.1 0.6-3.5 2-5.3 3-1.9 0.9-5.3 2.5-7.6 3.4-2.3 0.9-5.6 2.1-7.4 2.7-1.8 0.6-4.9 1.5-6.9 2-2 0.5-5 1.3-6.6 1.6-1.7 0.4-6.3 1.2-10.2 1.7-5.4 0.7-8.4 0.9-12.7 0.7-3.1-0.2-7.2-0.5-9.2-0.8-2-0.2-6-0.9-8.8-1.4-2.8-0.5-6.6-1.3-8.3-1.8-1.8-0.5-4.8-1.4-6.8-2-2-0.6-5.4-1.9-7.6-2.8-2.3-0.8-5.2-2.2-6.6-2.9-1.3-0.7-3.3-1.8-4.2-2.4-1-0.5-2.5-1.4-3.2-1.8-0.7-0.4-3-2-5-3.5-1.9-1.5-5.3-4.5-7.4-6.6-2.1-2.1-4.8-5.4-6.1-7.2-1.3-1.9-2.9-4.5-3.6-5.9-0.8-1.3-1.9-3.8-2.6-5.6-0.7-1.7-1.6-4.9-1.9-7-0.4-2.1-0.6-5.5-0.6-7.6 0-2.1 0.2-5.2 0.4-6.8 0.3-1.6 1-4.4 1.6-6.3 0.7-1.8 1.9-4.8 2.8-6.5 0.8-1.7 2.6-4.6 3.9-6.4 2.3-3.2 2.3-3.3 1.6-4.7-0.4-0.8-0.9-1.6-1.3-1.9-0.3-0.3-0.8-1-1.1-1.6-0.3-0.7-1.2-2.3-2-3.6-0.7-1.4-1.7-3.7-2.2-5.2-0.6-1.5-1.4-4.1-2-5.9-1-2.9-1-3.9-1.1-22.9l1.5-4.5c0.9-2.5 2.2-6 3.1-7.7 0.9-1.7 2.5-4.5 3.6-6.1 1-1.6 3.1-4.2 4.5-5.7 1.5-1.5 3.9-3.6 5.3-4.7 1.5-1.1 4.1-2.8 5.8-3.7 1.7-0.9 4.1-2.1 5.4-2.6 1.3-0.5 3.5-1.2 4.8-1.6 1.4-0.4 3.9-0.9 5.7-1.3 1.7-0.3 4.8-0.6 6.9-0.6zm71 31.1c-1.3 0.4-3.3 1.3-4.5 1.9-1.3 0.7-3.2 2.2-4.4 3.4-1.1 1.1-2.7 3.1-3.4 4.3-0.7 1.2-1.7 3.7-2.3 5.4-0.5 1.7-1 4.1-1 5.3v2.1c9.3-0.4 12-0.6 12.1-0.6 0 0 0.4-1.3 0.8-2.7 0.4-1.5 1.2-3.3 1.7-4 0.5-0.7 1.8-1.8 2.8-2.4 1.5-0.9 2.4-1.1 5.8-1.1 3.7 0 4.3 0.1 6.1 1.3 1.1 0.7 2.5 1.8 3 2.6 0.5 0.7 1.3 2.6 1.8 4.2l0.8 2.8c3.2-0.4 5.9-0.5 8-0.5h4c-0.5-4.4-1-6.8-1.5-8.1-0.5-1.4-1.3-3-1.8-3.7-0.4-0.7-0.8-1.4-0.8-1.6 0-0.2-0.9-1.3-2-2.5-1.1-1.2-2.2-2.1-2.5-2.1-0.2 0-0.4-0.2-0.4-0.4 0-0.1-1.2-0.9-2.6-1.7-1.5-0.8-3.9-1.7-5.5-2.1-1.7-0.4-3.9-0.8-5-0.9-1.1-0.1-3.1 0-4.5 0.1-1.4 0.2-3.5 0.7-4.7 1zm-89.4 2.1c-1.6 0.7-3.7 2-4.5 2.9-0.9 0.8-2.4 2.6-3.4 3.9-1 1.4-2.3 3.7-2.9 5.2-0.5 1.5-1.1 4.1-1.3 5.8l-0.3 3h12.1c0.5-2.3 1-3.8 1.5-5 0.5-1.1 1.5-2.5 2.2-3.2 0.7-0.7 2.4-1.5 3.8-2 1.8-0.5 3.2-0.7 5-0.5 1.5 0.2 3.4 0.7 4.3 1.2 1 0.5 2.1 1.3 2.7 1.9 0.5 0.6 1.2 1.7 1.6 2.4 0.4 0.8 0.8 2.2 1 3.3l0.2 1.9h12.9c-0.5-3.3-0.9-5.3-1.3-6.5-0.3-1.3-1.1-3.3-1.7-4.5-0.7-1.3-2.4-3.6-3.8-5.2-2.1-2.2-3.5-3.2-6.5-4.6-3.7-1.8-4-1.9-9.2-2-3-0.1-6.4 0-7.5 0.2-1.1 0.2-3.3 1-4.9 1.8zm41.1 30.4c-0.2 0.3-0.9 1.2-1.4 2.1-0.6 0.9-1 2.1-1 2.8 0 0.7 0.3 1.8 0.6 2.5 0.4 0.7 1.1 1.7 1.7 2.2 0.6 0.6 2 1.2 3.1 1.3 1.5 0.3 2.5 0.1 3.8-0.5 0.9-0.5 2.1-1.6 2.6-2.4 0.5-0.9 0.9-2.2 0.9-3 0-0.7-0.2-1.8-0.5-2.4-0.3-0.7-0.9-1.5-1.3-2-0.4-0.5-1.5-1.1-2.3-1.5-0.9-0.3-1.9-0.6-2.3-0.6-0.4 0-1.3 0.3-2 0.6-0.8 0.2-1.6 0.7-1.9 0.9zm17.5 1.6c-0.6 1.1-1 2.3-1 3.4 0 1 0.4 2.4 0.9 3.2 0.4 0.7 1.6 1.7 2.6 2.2 1.3 0.6 2.2 0.8 3.7 0.5 1.2-0.1 2.5-0.7 3.1-1.3 0.6-0.5 1.3-1.5 1.7-2.2 0.3-0.7 0.6-1.9 0.6-2.7 0-0.8-0.4-2.2-1-3.1-0.6-0.8-1.6-1.8-2.4-2.2-0.7-0.3-1.9-0.6-2.7-0.7-0.7-0.1-2 0.2-2.9 0.6-0.8 0.4-2 1.5-2.6 2.3zm-39.7 24.8c-3.6 0.3-8.5 0.7-10.8 0.9-2.4 0.2-5.8 0.7-7.7 1.1-1.8 0.5-4.9 1.4-6.7 2.2-1.9 0.7-4.2 1.9-5.3 2.7-1 0.8-2.3 2.1-2.8 2.8-0.5 0.7-1.3 2.6-1.9 4.1-0.8 2.2-0.9 3.4-0.7 7.2 0.1 3.1 0.5 5.4 1.3 7.6 0.6 1.7 2 4.7 3.1 6.5 1.1 1.9 3.2 4.7 4.7 6.3 1.4 1.6 4 4.1 5.6 5.5 1.6 1.3 4.1 3.1 5.4 4 1.4 0.8 3 1.8 3.6 2.2 0.6 0.3 2.3 1.2 3.6 1.9 1.4 0.6 3.8 1.7 5.4 2.3 1.6 0.7 4.3 1.6 5.9 2.1 1.6 0.5 4.6 1.3 6.7 1.8 2.2 0.5 5.2 1.1 6.8 1.4 1.6 0.2 5.7 0.7 9 1 3.4 0.2 8.5 0.3 11.5 0.2 3-0.2 7.9-0.6 11-1 3.1-0.4 7.8-1.1 10.4-1.6 2.6-0.5 6.1-1.3 7.9-1.8 1.7-0.5 4.6-1.4 6.5-2.1 1.9-0.6 5.8-2.2 8.8-3.7 2.9-1.5 7-3.7 9-5 2-1.3 5.5-4.3 7.9-6.7 2.4-2.3 4.6-4.9 5-5.6 0.4-0.8 1.3-2.5 2.1-4 0.8-1.4 1.7-3.8 2.1-5.4 0.4-1.5 0.8-4.2 0.8-5.9 0-1.8-0.2-4.3-0.6-5.7-0.3-1.3-1.2-3.4-1.9-4.7-0.8-1.2-2.1-2.7-2.8-3.3-0.8-0.7-2.7-1.9-4.3-2.6-1.6-0.8-4.6-1.9-6.7-2.4-2.1-0.6-5.8-1.2-8.3-1.4-2.4-0.2-6.4-0.6-9-0.9-2.5-0.3-17.2-0.5-32.7-0.6-15.5-0.1-29.8-0.1-31.8 0-2 0.1-6.5 0.4-10.1 0.6zm32.7 4.4v24.5l-7.1-0.3c-3.9-0.2-9.2-0.6-16.1-1.4l-0.2-22.3 5.2-0.1c2.9-0.1 8.2-0.2 18.2-0.4zm4.6-0.1h4.4c2.4 0 7.9 0.1 20.3 0.6l-0.2 22.2-4.3 0.5c-2.3 0.2-7.8 0.6-20.2 1.2v-12.3zm-32.1 0.9v10.6c0 5.9-0.1 10.7-0.3 10.8-0.1 0.1-2.9-0.2-6-0.6-3.2-0.5-6.8-1-10.3-1.7v-8.9c0-8.9 0-9 1-9.1 0.5-0.1 2.9-0.4 5.2-0.6 2.4-0.2 5.7-0.4 10.4-0.5zm60.2 0h2.9c1.6 0 5.2 0.2 13.3 1v18.1l-1.2 0.3c-0.6 0.1-2.3 0.4-3.7 0.6-1.4 0.2-4.3 0.7-6.4 1-2.1 0.4-4 0.7-4.3 0.7-0.5 0-0.6-2.5-0.6-10.9zm21.5 1.7c0.3 0 2 0.5 3.8 1.1 1.7 0.5 4 1.4 5 2 1 0.5 2.5 1.7 3.2 2.5 0.8 0.8 1.7 2.6 2.2 4 0.4 1.4 0.6 2.7 0.4 2.9-0.2 0.1-2 0.8-4 1.3-2 0.6-5.1 1.5-6.9 2-1.9 0.5-3.5 0.9-3.8 0.9-0.2 0-0.4-3.1-0.4-8.4 0-6.3 0.1-8.3 0.5-8.3zm-101.7 0.5v8.1c0 7.4 0 8.1-0.7 8.1-0.4 0-2.7-0.4-5-1-2.4-0.5-5.3-1.1-8.8-2v-2.2c0-1.3 0.4-2.8 0.9-3.9 0.5-1 1.5-2.3 2.1-2.8 0.6-0.5 1.8-1.4 2.8-1.9 0.9-0.4 2.8-1.2 4.2-1.6 1.5-0.4 3-0.8 4.5-0.8zm116 16.2c0.3 0 0.6 0.2 0.6 0.4 0 0.2-0.3 1.5-0.7 2.9-0.4 1.3-1.3 3.6-2 5-0.7 1.4-2 3.4-2.8 4.5-0.8 1-2.3 2.6-3.2 3.5-1 0.9-2.7 2.4-3.8 3.3-1.1 0.9-2.2 1.7-2.4 1.7-0.3 0-0.5-3.2-0.5-17.5l1.4-0.4c0.8-0.2 2.7-0.7 4.4-1.1 1.6-0.3 4.2-1 5.7-1.4 1.6-0.5 3-0.9 3.3-0.9zm-129.5 1.4c0.3 0.2 1.9 0.6 3.5 0.9 1.6 0.4 4.5 1.1 9.8 2.3l0.1 8.6c0.1 7.4 0 8.6-0.5 8.6-0.4 0-2.2-1.5-4-3.3-1.8-1.8-3.8-4-4.4-4.8-0.6-0.8-1.7-2.5-2.3-3.6-0.6-1.2-1.6-3.4-2.2-4.9-0.5-1.6-0.9-3.1-0.7-3.4 0.1-0.3 0.5-0.5 0.7-0.4zm17.7 3.8c0.2 0 1.8 0.2 3.7 0.6 1.9 0.3 5.3 0.8 12 1.6l0.1 12.3c0 8-0.1 12.3-0.4 12.3-0.2 0-1.2-0.3-2.2-0.7-1-0.3-2.8-1-4-1.5-1.1-0.5-3.1-1.3-4.4-2-1.3-0.6-3.1-1.5-5.6-3v-9.5c-0.1-5.3 0-9.7 0.2-9.8 0.2-0.2 0.5-0.3 0.6-0.3zm92.2 0l-0.2 19.7-4.5 2.1c-2.4 1.1-5.4 2.3-6.6 2.8-1.1 0.5-2.7 1-4.9 1.4l0.2-23.7 4.1-0.5c2.2-0.3 5.4-0.9 7-1.2 1.7-0.3 3.4-0.6 4.9-0.6zm-72.4 2.8l4.5 0.3c2.5 0.2 7.7 0.4 18.7 0.9l0.3 2.8c0.1 1.5 0.2 7.3 0.2 12.8 0 5.5-0.1 10.2-0.3 10.6-0.2 0.4-1.6 0.5-6.3 0.3-3.2-0.1-7.7-0.5-10-0.9-2.2-0.4-4.7-0.9-7.2-1.5zm52.8 0.1v24.1l-4.2 0.9c-2.2 0.6-6 1.3-8.4 1.6-2.3 0.4-6 0.8-12.1 1.3v-26.4l1.6-0.3c0.8-0.2 3.8-0.3 6.5-0.4 2.7 0 6.2-0.2 7.9-0.3 1.6-0.2 4.2-0.4 8.7-0.5z"/><path fill-rule="evenodd" class="k" d="m160.1 63c4.2 0 12.1 0.3 17.6 0.7 5.5 0.5 14.8 2 20.5 3.4 5.8 1.5 14.1 4.2 18.6 6.2 4.4 2 10.1 4.8 12.5 6.3 2.4 1.5 6 3.9 8.1 5.2 2 1.4 7.3 5.9 11.6 10 4.4 4.2 10.1 10.1 12.6 13.3 2.5 3.1 6.6 9.1 9.1 13.3 2.6 4.2 6 10.4 7.6 13.8 1.7 3.4 4.3 9.6 5.9 13.8 1.6 4.2 3.6 10.4 4.5 13.8 0.8 3.4 1.9 7.7 2.4 9.6 0.5 1.8 0.9 17 0.9 64.2l-2.9 8.6c-1.6 4.7-7.4 17.7-12.9 28.8-5.4 11.1-9.9 21.1-9.9 22.2 0 1 0.8 2 1.7 2.3 0.9 0.2 3 1.9 4.7 3.8 2.9 3.1 3.1 3.9 3.1 9.6 0 3.4-0.4 7-0.9 8.1-0.5 1-1.9 3-3.1 4.3-1.2 1.4-4.7 4.2-7.9 6.3-3.1 2-5.8 3.7-5.9 3.7-0.2 0-2.9 1.2-6.2 2.7-3.3 1.5-8.4 3.9-11.4 5.2-3.1 1.4-5.8 2.5-6.2 2.5-0.4 0-4.2 1.1-8.4 2.4-4.2 1.4-12.5 3.5-18.5 4.8-6.1 1.3-15.5 3-21 3.8-5.5 0.8-15.8 1.4-22.8 1.4-7.1 0-17.8-0.6-23.9-1.4-6-0.7-16-2.4-22.3-3.7-6.3-1.3-15.5-3.6-20.5-5.2-5-1.5-11.2-3.7-13.8-4.9-2.6-1.2-7.6-3.5-10.9-5.1-3.4-1.7-8.4-4.4-11-6.2-2.6-1.7-6.1-4.3-7.6-5.8-1.6-1.4-3.6-4.2-4.6-6.1-0.9-1.9-1.6-5-1.6-6.8 0-1.9 0.4-4.4 0.9-5.7 0.5-1.4 2.3-3.9 3.8-5.8 1.9-2.1 3.7-3.3 5.3-3.3 1.8 0 2.3-0.5 2.3-2.1 0-1.2-3.5-9-7.7-17.4-4.2-8.4-8.7-17.8-10-21-1.3-3.1-3.4-8.7-4.6-12.3-1.5-4.5-2.6-10.9-3.3-19.6-0.7-8.6-0.7-16.1-0.1-22.8 0.5-5.5 0.9-14.3 0.9-19.5 0.1-6.4 0.7-12.1 2-17.2 1.1-4.2 3.3-11 4.9-15.2 1.7-4.2 4.6-10.9 6.5-14.8 1.9-3.9 4.7-9.3 6.2-11.9 1.5-2.6 3.6-6 4.7-7.6 1.1-1.6 4.5-5.9 7.7-9.5 3.1-3.6 8.3-9.1 11.4-12.1 3.2-3 8.3-7.3 11.4-9.6 3.2-2.3 8.3-5.5 11.5-7.1 3.1-1.6 8.3-4 11.4-5.3 3.1-1.3 7.2-2.8 9.1-3.4 1.8-0.5 6.3-1.7 10-2.6 3.6-0.9 9.8-1.9 13.8-2.3 3.9-0.4 10.5-0.7 14.7-0.8zm-31.4 46.4c-4.7 1.2-12 3.5-16.2 5.1-4.2 1.6-11 4.8-15.2 7.1-4.2 2.3-10.6 6.4-14.3 9.1-3.6 2.8-9.4 7.8-12.9 11.2-3.4 3.4-8 8.5-10.2 11.4-2.1 2.9-5.5 8-7.4 11.4-1.9 3.4-4.7 9.4-6.2 13.4-1.4 3.9-3.4 10.8-4.3 15.2-1 5.1-1.7 12.1-1.6 19 0 7.6 0.6 13.7 2 19.8 1.1 4.9 2.5 10 3.1 11.4 0.6 1.5 1.5 3.7 2 5 0.5 1.3 2 4.6 3.3 7.2 1.3 2.6 4.4 7.7 6.8 11.3 2.4 3.7 7 9.4 10.2 12.9 3.2 3.4 8.8 8.7 12.4 11.7 3.6 3 7 5.5 7.5 5.5 0.6 0 2.5 1.2 4.3 2.6 1.9 1.5 7 4.4 11.5 6.5 4.4 2.2 10.6 4.9 13.8 5.9 3.1 1.1 10.4 3.2 16.2 4.6 9.7 2.4 11.9 2.6 30 2.6 18.9 0.1 19.8 0 31.9-3.1 6.8-1.7 15.8-4.6 20-6.4 4.1-1.8 9.9-4.6 12.8-6.2 2.9-1.6 8.6-5.3 12.7-8.2 4.2-3 10.8-8.9 14.8-13.1 4.1-4.1 9.2-10.4 11.5-13.8 2.2-3.4 5.5-8.9 7.2-12.3 1.7-3.4 4.2-9.9 5.6-14.3 1.3-4.5 2.9-12.8 3.6-18.6 0.9-8.8 0.9-12.2-0.4-21.4-0.8-6.1-2.4-13.8-3.5-17.2-1.1-3.4-3.4-8.9-5-12.3-1.6-3.5-4.9-9.2-7.3-12.9-2.4-3.7-8.3-10.7-13.1-15.7-4.8-5-11.3-10.8-14.3-12.9-3.1-2.1-5.8-4-6.1-4.2-0.2-0.3-2.2-1.5-4.3-2.6-2.1-1.1-5.5-3-7.6-4.1-2.1-1.2-6.6-3.2-10-4.4-3.4-1.3-7-2.7-8.1-3.1-1-0.5-4-1.4-6.6-2-2.7-0.7-7.4-1.8-10.5-2.5-3.2-0.8-12.6-1.5-21-1.8-8.3-0.2-18.2 0-21.9 0.3-3.6 0.4-10.5 1.7-15.2 2.9zm-70.5 198.4c0.2 1.2 1.2 3 2.2 4.1 1 1 2.9 2.7 4.1 3.8 1.3 1.1 4.5 3.3 7.3 5 2.7 1.7 7.7 4.2 10.9 5.6 3.3 1.4 10.1 3.9 15 5.6 5 1.6 15.1 4.4 22.4 6 7.4 1.6 17.6 3.4 22.9 4 5.2 0.6 17 1.1 26.2 1.1 9.1 0 20.3-0.5 24.7-1.1 4.5-0.6 13.5-2.4 20-4 6.6-1.6 15.1-4.2 19.1-5.7 3.9-1.5 9.3-3.9 11.9-5.3 2.6-1.3 7.3-4 10.4-5.9 3.1-1.9 6.8-4.5 8.2-5.8 1.3-1.3 3-3.3 3.6-4.5 0.6-1.2 1.1-3.4 1.1-5v-2.9c-5.5 4.7-9.9 7.8-13.3 10-3.4 2.2-9 5.4-12.4 7.1-3.4 1.7-7 3.5-8.1 3.9-1 0.4-4.3 1.6-7.1 2.7-2.9 1-10.4 3.2-16.7 4.7-6.3 1.6-15.5 3.4-20.5 4-5 0.7-17.4 1.2-27.6 1.2-11.9-0.1-22.3-0.6-29-1.6-5.8-0.9-10.7-1.8-11-2-0.3-0.2-3.9-1.3-8.1-2.3-4.2-1.1-10-2.9-12.8-4-2.9-1.1-9.1-3.9-13.9-6.2-4.7-2.3-10.3-5.1-12.4-6.3-2.2-1.2-5.4-3.3-7.2-4.7-1.7-1.4-3.9-3.2-4.6-3.8-0.8-0.7-2-1.6-2.6-2-0.6-0.3-1.5 0-2.1 0.8-0.6 0.7-0.9 2.3-0.6 3.5z"/></svg>