<svg xmlns="http://www.w3.org/2000/svg" width="23.116" height="23.112" viewBox="0 0 23.116 23.112"><defs><style>.a{fill:#3498db;fill-rule:evenodd;}</style></defs><path class="a" d="M93.356,82.011a2.024,2.024,0,0,0,.255,0c.075-.005.021-.011-.121-.011S93.291,82.005,93.356,82.011ZM83.97,88.755c.011.027.008.038-.005.024a1.069,1.069,0,0,0-.156.349c-.07.2-.169.54-.22.747s-.11.481-.132.6a6.19,6.19,0,0,0-.038.7,5,5,0,0,1-.019.524c-.013.046-.011.048.011.013s.03-.029.03-.005a.049.049,0,0,1-.027.046,3.715,3.715,0,0,0-.021.666c0,.481.011.583.021.4a3.761,3.761,0,0,1,.016.771,8.193,8.193,0,0,0,.024,1.008c.016-.011.019.043.008.142-.013.116-.011.15.011.121s.021,0,.011.089,0,.134.016.148.021.051.013.094-.005.083.013.094a.063.063,0,0,1,.013.067c-.011.027-.005.046.008.046s.027.064.027.142a1.321,1.321,0,0,0,.024.261c.016.067.035.14.043.161a.046.046,0,0,1-.024.062c-.032.016-.038.008-.021-.027s.008-.04-.013-.027a.077.077,0,0,0-.035.059.06.06,0,0,0,.035.054c.024.008.024.019-.008.038s-.043.016-.054-.03-.021-.05-.035-.027a.082.082,0,0,0,.016.075c.027.032.027.04-.008.04s-.03.005-.019.019.038,0,.059-.021.048-.03.056-.019,0,.035-.021.056a.089.089,0,0,1-.075.024c-.024-.008-.03,0-.013.011a.31.31,0,0,1,.035.156.34.34,0,0,0,.04.169c.027.03.027.035,0,.035s-.027.013-.016.032a.385.385,0,0,1,.024.1c.005.038.038.183.075.322a6.342,6.342,0,0,0,.212.618c.081.2.231.54.339.752s.288.548.408.739.3.459.4.591.226.29.279.349c.091.1.094.116.094.331,0,.185-.005.22-.04.207s-.031,0-.019.021,0,.027-.04.013-.062-.008-.062.005-.019.021-.046.013-.038-.005-.027.005-.027.043-.081.07a.231.231,0,0,1-.126.027c-.016-.013-.019-.008-.008.013s0,.04-.027.051a.152.152,0,0,1-.067.013c-.011,0-.016.005-.013.016s-.024.054-.067.094-.081.064-.089.054-.013-.008-.011.005a.456.456,0,0,1,0,.062c0,.019-.016.027-.032.019s-.019.005-.005.035.008.04-.008.03a.018.018,0,0,0-.03.013c0,.016,0,.064-.005.1s-.016.067-.032.059-.024.121-.019.371c.005.349.013.4.073.513a1.6,1.6,0,0,0,.218.282,3.7,3.7,0,0,0,.417.341c.145.1.4.269.548.36s.484.271.726.392.588.282.766.355.427.172.551.218.392.134.591.193.556.159.793.215.666.145.954.2.664.113.833.137.575.067.9.1a13.387,13.387,0,0,0,1.639.059c.653,0,1.18-.013,1.4-.035.193-.019.629-.07.967-.116s.758-.1.927-.134.486-.094.7-.142.583-.148.82-.218.613-.188.833-.266.567-.212.766-.3.527-.236.726-.339.473-.245.6-.322.328-.2.43-.277.269-.2.363-.282a2.249,2.249,0,0,0,.253-.245,1.487,1.487,0,0,0,.134-.2c.051-.094.059-.153.062-.524,0-.285,0-.4-.021-.376s-.024.024-.019-.03,0-.064-.016-.054-.019,0-.008-.03.011-.04-.013-.027-.027.005-.013-.027.008-.043-.008-.035-.027,0-.03-.019v-.054c0-.011-.008-.013-.024-.008s-.027.005-.027-.005a.511.511,0,0,0-.083-.116c-.046-.051-.075-.078-.067-.059s0,.021-.051-.008-.067-.051-.067-.067-.011-.019-.027-.013-.027,0-.027-.013-.011-.019-.027-.013-.027,0-.027-.013-.011-.019-.027-.013a.1.1,0,0,1-.067,0c-.021-.008-.03-.027-.019-.043s0-.027-.048-.011-.062.016-.046-.008,0-.032-.035-.032-.054-.019-.056-.153a2.064,2.064,0,0,1,.005-.21,1.522,1.522,0,0,1,.22-.309,6.81,6.81,0,0,0,.408-.551c.107-.161.29-.465.406-.672s.274-.521.349-.7.188-.46.247-.631.129-.4.153-.511.048-.231.051-.269.024-.126.04-.2.023-.143.005-.161-.043-.013-.075.016a.137.137,0,0,1-.094.035c-.027-.005-.048-.021-.048-.038a.029.029,0,0,1,.027-.027c.016,0,.022-.019.013-.046a.8.8,0,0,1,.04-.255.874.874,0,0,0,.04-.25.1.1,0,0,1,.011-.073.5.5,0,0,0,.043-.142,1.2,1.2,0,0,0,.016-.22c0-.062.008-.11.019-.1s.013-.032.008-.086c-.008-.07,0-.094.021-.078s.027,0,.016-.035a.127.127,0,0,1,.021-.094q.032-.043.005-.062a12.89,12.89,0,0,1,.008-1.389,13.557,13.557,0,0,0,.008-1.416c-.019-.03-.019-.043,0-.035a2.447,2.447,0,0,0,.013-.623c-.008-.352-.027-.728-.043-.841s-.07-.371-.121-.578-.142-.521-.2-.7a1.714,1.714,0,0,0-.14-.341c-.016-.011-.019-.019-.005-.019s.013-.013,0-.035a.147.147,0,0,1-.035-.054c0-.011,0-.038,0-.062a.135.135,0,0,0-.04-.081.066.066,0,0,1-.019-.073q.019-.032-.013-.013a.032.032,0,0,1-.048-.021.141.141,0,0,1,0-.067c.008-.013,0-.027-.013-.027s-.019-.016-.013-.04,0-.033-.019-.019-.027.005-.013-.027.011-.04-.013-.027-.027.005-.013-.027.008-.043-.008-.035-.038-.021-.054-.067a.184.184,0,0,1-.005-.113q.019-.035-.013-.013a.032.032,0,0,1-.048-.021.112.112,0,0,1,.008-.073c.013-.024.008-.027-.019-.008s-.038.019-.021-.019.011-.04-.013-.027-.027.005-.013-.027.011-.04-.013-.027-.027.005-.011-.035.011-.043,0-.032-.067-.067-.124-.175a.567.567,0,0,1-.081-.223q.019-.024-.019,0c-.032.024-.038.019-.019-.027.011-.03.011-.043,0-.032s-.038-.005-.056-.035a.1.1,0,0,1-.013-.086q.019-.032-.013-.013c-.019.011-.035.005-.038-.013v-.054c0-.011-.005-.016-.016-.008s-.081-.142-.121-.183-.067-.083-.054-.1.008-.026-.013-.013-.035.005-.038-.013v-.054c0-.011-.008-.013-.024-.008s-.027,0-.03-.019v-.054c0-.011-.008-.013-.024-.008s-.027,0-.03-.019v-.054c0-.011-.008-.013-.024-.008s-.038-.005-.051-.032a.073.073,0,0,1-.008-.073q.016-.02-.008-.008c-.013.008-.051-.016-.081-.056s-.04-.063-.013-.048.016,0-.013-.024-.048-.054-.046-.067-.005-.019-.021-.013-.04-.013-.056-.046a.182.182,0,0,1-.03-.075.05.05,0,0,0-.013-.027c-.008-.005-.005.005.005.027s-.005.011-.035-.027-.046-.078-.035-.094,0-.019-.016-.005-.04,0-.051-.027a.152.152,0,0,1-.013-.067c0-.011-.008-.013-.024-.008s-.035-.005-.043-.032-.019-.056-.022-.064a.071.071,0,0,0-.027-.04c-.013-.013-.016-.005,0,.016s-.011.005-.048-.04-.059-.091-.051-.107.005-.016-.008-.005-.051-.013-.081-.054-.051-.081-.046-.086-.021-.04-.054-.07l-.062-.054c.064.086.054.081.016.043s-.228-.236-.43-.443a3.115,3.115,0,0,0-.314-.309c.03.035-.019-.008-.1-.1s-.14-.137-.118-.107,0,.021-.059-.027-.089-.091-.081-.107,0-.016-.016-.005-.081-.027-.161-.107-.116-.11-.1-.089,0,.019-.043-.013-.064-.064-.054-.081.005-.016-.011-.005-.064-.008-.113-.04-.078-.073-.067-.086.008-.016-.008-.008-.064-.008-.113-.04-.078-.07-.067-.083.008-.019-.008-.016a.4.4,0,0,1-.059,0,.023.023,0,0,1-.021-.032c.008-.013.005-.024-.005-.021a.22.22,0,0,1-.081-.013c-.032-.008-.054-.03-.048-.046s.005-.024-.005-.021h-.054a.023.023,0,0,1-.021-.032c.008-.013.005-.024-.005-.021h-.054c-.019,0-.024-.019-.013-.038s.008-.026-.013-.013a.1.1,0,0,1-.089-.013c-.03-.019-.043-.043-.032-.056s.008-.019-.008-.016a.4.4,0,0,1-.059,0,.023.023,0,0,1-.021-.032c.008-.016-.005-.019-.032-.005s-.04.008-.027-.013.011-.032,0-.03a.221.221,0,0,1-.081-.013c-.032-.008-.054-.03-.048-.046s-.005-.019-.032-.005-.04.008-.027-.013.005-.027-.027-.013-.086-.048-.134-.067-.081-.046-.075-.062-.005-.019-.032-.005-.04.008-.027-.013.005-.027-.027-.013-.04.008-.027-.013.005-.027-.027-.013-.04.008-.027-.013.005-.027-.027-.013-.04.008-.027-.013.005-.027-.027-.013-.043.011-.021-.021.019-.032-.005-.019a.23.23,0,0,1-.142-.027c-.059-.027-.1-.056-.086-.07s-.005-.011-.035,0-.048.013-.032-.011.008-.03-.013-.019a.085.085,0,0,1-.075-.019.127.127,0,0,0-.073-.038.441.441,0,0,1-.062-.005.02.02,0,0,1-.016-.027c.005-.011,0-.021-.019-.024s-.051,0-.078-.005-.043-.013-.038-.024,0-.021-.019-.024-.051,0-.078-.005-.04-.016-.035-.032,0-.019-.027-.013-.04,0-.04-.013-.016-.019-.04-.013-.04,0-.04-.013-.008-.021-.019-.013a.214.214,0,0,1-.107-.019c-.048-.019-.089-.043-.089-.054s-.016-.013-.04-.008-.04,0-.04-.013-.016-.019-.04-.013-.04,0-.04-.013-.024-.019-.054-.013-.054,0-.054-.013-.016-.019-.04-.013-.04,0-.04-.013-.016-.019-.04-.013-.04.005-.04-.005-.038-.021-.086-.024S96,82.36,96,82.344s-.032-.024-.062-.019-.054,0-.054-.013-.03-.019-.073-.008-.07.011-.054-.013,0-.027-.062-.011-.081.011-.081-.008-.03-.021-.067-.019-.067-.005-.067-.021-.024-.019-.054-.013-.054.005-.054-.005-.032-.016-.073-.008-.067,0-.054-.021,0-.027-.062-.011-.081.011-.081-.008-.043-.021-.1-.013c-.073.008-.1,0-.081-.021s-.011-.027-.094-.013-.107.011-.1-.005-.038-.021-.121-.016c-.1.005-.126,0-.1-.019s-.016-.024-.148-.016c-.1.008-.167,0-.14-.008a5.206,5.206,0,0,0-.691-.021,4.743,4.743,0,0,0-.7.024c.016.011-.046.013-.137.005a6.7,6.7,0,0,0-.978.159c.011.013-.019.019-.067.013a1.626,1.626,0,0,0-.417.094c.011.013-.013.019-.054.013s-.064,0-.054.013-.013.019-.054.013-.064,0-.054.013-.005.019-.043.008-.062-.008-.062.005-.024.021-.054.013-.046,0-.032.021,0,.027-.048.011c-.035-.011-.056-.008-.046,0s-.03.035-.094.051a.359.359,0,0,1-.134.021c-.011-.008-.949.382-.967.371s-.027-.011-.008.019.019.035-.027.019c-.03-.011-.043-.011-.032,0s-.054.056-.142.1a.465.465,0,0,1-.193.056c-.019-.011-.024-.008-.013.005s-.067.07-.175.124-2.139,1.467-2.15,1.459-.035.008-.054.035c-.032.043-.03.043.019.005a3.673,3.673,0,0,1-.282.288c-.185.177-.365.352-.4.39s-.046.048-.013.027-.019.032-.107.118-.137.14-.107.118.021,0-.027.056-.091.1-.1.118-.016.013,0-.013.011-.03,0-.016a.071.071,0,0,0-.027.04c0,.008-.011.038-.021.064s-.03.04-.046.032-.021,0-.019.008a.152.152,0,0,1-.035.081c-.021.032-.048.051-.062.04s-.019-.008-.016.005a.163.163,0,0,1-.011.075c-.011.027-.03.04-.046.032s-.024,0-.021.008a.152.152,0,0,1-.013.067c-.011.027-.032.04-.051.03s-.024-.008-.013.005.005.046-.008.073-.04.038-.059.027-.027-.008-.013.005-.008.067-.04.116-.073.078-.086.067-.016-.005-.005.013-.019.07-.07.118-.073.078-.054.067.027-.008,0,.035c-.019.027-.043.046-.054.04s-.019,0-.016.008V86.9c0,.019-.016.027-.032.019s-.024,0-.021.008v.054c0,.019-.019.024-.038.013s-.026-.01-.013.013a.1.1,0,0,1-.013.086c-.019.03-.043.046-.056.035s-.011,0,0,.032.013.048-.011.035-.032-.011-.027,0a.324.324,0,0,1-.027.107q-.035.086-.067.067t-.013.013c.011.019-.008.081-.04.14s-.07.1-.083.089-.011,0,0,.032.013.048-.011.035-.027-.008-.013.027.011.04-.021.019-.032-.016-.019.008a.4.4,0,0,1-.067.193.611.611,0,0,1-.107.161c-.011,0-.013.013-.008.027a.137.137,0,0,1-.019.094c-.019.038-.043.062-.054.054s-.011.008,0,.035.008.04-.013.027-.03-.008-.021.019,0,.04-.013.04-.016.021-.005.048.008.04-.013.027-.03-.008-.021.019,0,.04-.013.04A.667.667,0,0,0,83.97,88.755Zm17.81-6.094c.005.008-.008.03-.03.048s-.04.03-.043.021-.008.024-.008.064.005.073.008.067.024,0,.043.021.035.04.03.046.021.013.054.013.059-.008.051-.019.011-.016.038-.013.043-.011.038-.1c-.005-.059-.019-.11-.032-.113a.02.02,0,0,1-.016-.027c.008-.011-.021-.021-.064-.021s-.07.008-.067.013Zm-16.628.247a.575.575,0,0,0-.021.107c-.005.038,0,.07,0,.07a.126.126,0,0,1,.054.019.141.141,0,0,0,.094,0,.233.233,0,0,1,.067-.019c.008,0,.008-.043,0-.1-.011-.089-.021-.1-.1-.107C85.195,82.876,85.16,82.887,85.152,82.908ZM84.125,84q-.021.027.03.011c.043-.013.046-.011.019.019a.151.151,0,0,0-.035.086c0,.027-.008.043-.019.038s-.016.021-.008.059,0,.064-.021.051-.027,0-.011.04.011.056-.021.032-.032-.016-.019.008a.148.148,0,0,1-.021.113c-.024.054-.051.075-.073.062s-.027-.011-.013.005-.013.062-.054.1-.086.064-.1.054-.016-.005-.005.013-.016.048-.078.073a.206.206,0,0,1-.121.027c-.013-.005-.027,0-.027.013s-.016.021-.04.013-.043,0-.046.019-.046.03-.091.032-.081.016-.073.038.04.032.075.032.067.013.067.027.013.021.027.013a.473.473,0,0,1,.169.04.659.659,0,0,1,.255.175c.062.067.107.129.1.134s.005.035.03.062a.089.089,0,0,1,.027.081c-.008.021,0,.027.019.013s.027,0,.013.04-.011.054.013.04.027,0,.013.04-.008.059.005.059.024.035.021.075,0,.073.032.073.04-.019.035-.073,0-.075.013-.075.013-.032.008-.073,0-.067.019-.054.027,0,.013-.04-.011-.056.021-.035.032.019.019-.005a.126.126,0,0,1,.013-.1c.019-.038.046-.059.059-.048s.019.005.008-.013.021-.075.094-.142.129-.1.148-.094.027,0,.019-.013.011-.032.04-.04a.158.158,0,0,1,.089.008c.024.013.027.011.005-.019s-.013-.038.035-.021.054.011.04-.011,0-.03.064-.021c.046.005.081.005.073,0s.005-.03.024-.048.024-.032-.013-.021-.048.005-.048-.011-.024-.019-.054-.013-.054,0-.054-.013-.016-.019-.04-.013-.04,0-.04-.013-.011-.019-.027-.013a.1.1,0,0,1-.067,0c-.021-.005-.035-.021-.03-.032s-.008-.021-.032-.021-.04-.013-.038-.032-.005-.027-.021-.021-.075-.043-.134-.113-.1-.142-.094-.161,0-.027-.013-.021-.032-.011-.04-.04a.148.148,0,0,1,.008-.086c.013-.024.008-.027-.019-.008s-.035.016-.021-.046c.013-.046.011-.07-.008-.062s-.024-.021-.021-.07-.008-.091-.024-.1a.046.046,0,0,0-.048.019Zm18.272.14c.008.027,0,.048-.013.048s-.019.019-.013.04,0,.04-.013.04-.019.019-.013.04-.043.1-.134.188-.159.142-.175.134a.023.023,0,0,0-.032.013c0,.013-.038.03-.075.035a.215.215,0,0,0-.1.032.069.069,0,0,0-.019.062c.005.019.032.027.062.019s.054,0,.054.013.013.021.027.013a.154.154,0,0,1,.089.019.862.862,0,0,1,.156.126.875.875,0,0,1,.129.159.125.125,0,0,1,.016.086c-.005.016,0,.027.013.027s.021.019.013.04,0,.04.013.04.024.016.019.035,0,.032.021.032.03-.019.024-.046,0-.048.016-.048.021-.016.013-.04,0-.04.013-.04.019-.019.008-.046-.011-.04.013-.027.028.005.019-.021a.317.317,0,0,1,.1-.161c.062-.067.129-.116.148-.107s.032,0,.032-.013.019-.019.04-.013.04,0,.04-.013.03-.021.064-.019.064-.005.062-.019a.163.163,0,0,0-.032-.059c-.013-.016-.035-.027-.046-.021a.165.165,0,0,1-.089,0c-.035-.005-.059-.024-.054-.04s0-.019-.019-.011-.081-.032-.137-.089c-.075-.073-.1-.113-.081-.142s.013-.032-.016-.013-.038.019-.021-.019.008-.043-.008-.035-.032-.016-.04-.054a.259.259,0,0,1,.008-.113c.013-.038.011-.043-.021-.021s-.035.019-.021-.013,0-.04-.021-.04S102.387,84.112,102.4,84.144Zm1.733,2.886c0,.021-.011.038-.027.038s-.019.019-.013.04-.027.081-.081.134-.11.089-.134.081-.04,0-.04.013-.016.021-.04.013-.033,0-.019.021.005.027-.035.011-.048-.019-.013.021a.227.227,0,0,0,.107.054.465.465,0,0,1,.169.121c.056.062.094.126.086.148s0,.04.013.04.032.021.038.048c.011.046.011.046.013,0,0-.027.016-.04.03-.035s.021-.005.011-.032.019-.086.089-.164.126-.118.185-.121.083-.019.081-.038-.035-.046-.075-.059a.647.647,0,0,1-.169-.124c-.051-.051-.086-.1-.081-.121s0-.027-.013-.027-.019-.016-.013-.04a.039.039,0,0,0-.027-.051C104.147,87,104.131,87.006,104.131,87.03Zm-21.2.449a.076.076,0,0,1-.086.051c-.048-.008-.051,0-.019.019s.032.03-.019.03a.1.1,0,0,0-.075.027c-.005.016.008.035.035.043a1.16,1.16,0,0,1,.11.048.152.152,0,0,1,.073.091c.005.032.024.059.038.059s.035-.03.04-.067a.159.159,0,0,1,.107-.107c.054-.021.089-.051.081-.067a.062.062,0,0,0-.054-.027c-.021,0-.04-.011-.04-.027s-.008-.021-.019-.013-.035-.016-.054-.054-.046-.067-.062-.067S82.943,87.447,82.927,87.479Zm-.212,3.426a.149.149,0,0,1-.1.019c-.021-.008-.027,0-.013.021s.005.027-.027.013-.04-.011-.027.013.005.027-.027.013-.043-.011-.035.005,0,.027-.013.027h-.04a.479.479,0,0,0-.081.075c-.04.04-.062.056-.051.032s0-.019-.038.013a.448.448,0,0,0-.059.062c0,.005.013,0,.032-.008s.005.011-.032.046a.361.361,0,0,0-.073.083.126.126,0,0,0-.008.046c0,.016-.013.019-.032.008s-.026-.01-.013.013a.1.1,0,0,1,.005.073c-.005.024-.024.035-.04.027s-.019.005-.005.035.008.04-.013.027-.03-.005-.021.032.005.054-.005.054-.019.911-.016,2.023.005,2.037.008,2.056.019.027.04.019.036,0,.027.027a.057.057,0,0,1-.046.043q-.035,0,.005.024a.114.114,0,0,1,.048.067.241.241,0,0,0,.073.1c.038.032.064.067.062.075s.005,0,.019-.021a.107.107,0,0,1,.062-.032c.019,0,.03.008.021.019a.141.141,0,0,0,.027.086c.038.067.038.067.038.008,0-.043.019-.062.062-.064s.046-.005.013-.013-.04-.021-.035-.038a.029.029,0,0,0-.013-.04c-.013-.005-.027.011-.027.04s-.011.054-.027.054-.019-.011-.013-.027-.005-.04-.027-.059-.048-.027-.067.005-.03.032-.038.021.005-.04.027-.067.049-.039.062-.019.04.027.07.021a.229.229,0,0,0,.1-.056c.027-.027.048-.038.048-.027a.136.136,0,0,1-.048.062c-.04.038-.043.046-.008.067s.048.008.067-.03.038-.054.048-.054.011.021,0,.048-.011.043.027.027.046-.008.048.027,0,.04.021.005.035-.032.062-.013.03.019.016-.005.011-.046.067-.073.091-.03.1-.005a.061.061,0,0,1,.008.051c-.008.011-.046.013-.086,0s-.067-.008-.048.013a.228.228,0,0,0,.089.043c.035.008.054,0,.046-.013s0-.027.013-.027a.027.027,0,0,1,.027.027c0,.016.019.021.04.013a.048.048,0,0,0,.04-.04c0-.013-.016-.019-.04-.013s-.04.008-.04,0a.231.231,0,0,1,.04-.054c.024-.021.046-.035.048-.027a.9.9,0,0,0,.005-.145.468.468,0,0,1,.013-.15c.008.005.013-.038.013-.1s-.008-.1-.019-.1-.021-.019-.019-.046,0-.04.024-.008.027.008.024-.081c0-.11-.005-.113-.024-.04-.011.046-.019-.911-.016-2.126l0-2.209A.8.8,0,0,0,82.715,90.905Zm21.411-.027-.129.005c0,3.714-.008,4.487-.027,4.461s-.024-.024-.024.035c0,.04.008.07.019.062s.019.019.019.054a.137.137,0,0,1-.019.078c-.011.008,0,.032.019.054s.035.051.005.1a.212.212,0,0,0-.027.107c.005.027.019.046.03.046s.016.043.013.094c-.008.094-.005.094.059.054a.507.507,0,0,1,.081-.04c.008,0,.021.021.027.048a.093.093,0,0,1-.013.081.051.051,0,0,1-.059.016c-.027-.013-.024-.008,0,.019s.04.032.054.005a.078.078,0,0,1,.081-.019c.035.005.054,0,.046-.016a.032.032,0,0,0-.04-.013c-.013.008-.027,0-.027-.027A.267.267,0,0,0,104.2,96c-.013-.04-.011-.04.013-.008s.03.03.032-.027.005-.062.024-.013a.069.069,0,0,1-.008.078c-.021.013-.019.027.008.038a.347.347,0,0,1,.091.073c.032.038.046.043.04.013s.005-.035.024-.032.03-.008.027-.024.027-.032.078-.035a.21.21,0,0,0,.1-.021c.011-.011.005-.021-.011-.021a.033.033,0,0,1-.032-.032c0-.027.008-.027.035,0a.076.076,0,0,0,.067.021c.019-.008.032,0,.032.013s.013.021.027.013.011-.03-.013-.054-.048-.035-.059-.027a.1.1,0,0,1-.062-.011c-.03-.016-.032-.027-.005-.038s.032-.005.032.008.021.021.048.013a.235.235,0,0,1,.148.054c.056.038.091.054.083.035a.565.565,0,0,0-.075-.094c-.043-.048-.046-.062-.016-.062a.109.109,0,0,1,.075.054c.027.046.04.048.075.021a.086.086,0,0,0,.027-.094c-.008-.035-.005-.056.011-.048s.038-.03.051-.086a.323.323,0,0,0,0-.161c-.013-.032-.013-.064,0-.073a.554.554,0,0,0,.024-.193c0-.142,0-.164-.016-.091s-.022.043-.022-.121c0-.142.005-.191.019-.148s.021.019.021-.107c0-.153,0-.161-.021-.067-.011.059-.016-.618-.016-1.507,0-1.013-.005-1.61-.021-1.6s-.021-.013-.013-.054,0-.064-.013-.054-.019,0-.008-.03.011-.04-.013-.027-.027.005-.013-.027.008-.043-.008-.035-.027,0-.03-.019v-.054c0-.011-.005-.016-.016-.011s-.051-.027-.086-.073c-.051-.064-.056-.075-.013-.046.027.021.016,0-.03-.046s-.086-.081-.094-.075-.046-.008-.086-.035-.064-.054-.054-.067-.005-.011-.035,0-.048.013-.032-.011.005-.027-.027-.013-.04.008-.027-.013.005-.03-.021-.021-.04,0-.04-.013-.019-.016-.04-.005a.05.05,0,0,1-.062-.008A.282.282,0,0,0,104.126,90.878Zm-.169,1.322c0,.747,0,1.051.008.672s0-.986,0-1.357S103.956,91.456,103.956,92.2Zm-20.879.242c0,.438,0,.613.008.39s.005-.578,0-.793S83.077,92.007,83.077,92.442Zm22,.618c0,.156.005.218.011.134a2.465,2.465,0,0,0,0-.282C105.088,92.84,105.082,92.907,105.082,93.06ZM83.4,93.611c0,.3,0,.425.008.282s.005-.382,0-.537S83.4,93.315,83.4,93.611Zm20.554.188c0,.1.005.14.011.081a1.1,1.1,0,0,0,0-.188C103.956,93.649,103.954,93.7,103.954,93.8Zm0,.752c0,.207.005.288.011.175s.005-.279,0-.376S103.954,94.345,103.954,94.551Zm-20.879.4c0,.1.005.14.011.081a1.094,1.094,0,0,0,0-.188C83.077,94.8,83.075,94.852,83.075,94.955ZM103.432,96c0,.059.011.07.048.054s.04-.011.027.013-.005.032.019.032a.06.06,0,0,1,.054.035c.005.019.011.021.011.005a.335.335,0,0,0-.078-.121l-.081-.094Zm-.024.121c0,.011.024.035.056.051s.051.032.03.046-.035.005-.035-.008a.03.03,0,0,0-.032-.027c-.019,0-.035.024-.035.051a.129.129,0,0,0,.021.073c.011.013.019,0,.019-.024s.013-.04.027-.032a.048.048,0,0,0,.054-.021.039.039,0,0,0-.005-.062.805.805,0,0,0-.064-.048C103.424,96.1,103.408,96.1,103.408,96.118ZM82.446,95.9a.215.215,0,0,1-.094.051.078.078,0,0,1-.073-.021q-.016-.03-.059.016c-.024.027-.035.056-.027.067s.024,0,.038-.019.03-.035.064-.008.038.046.03.062a.017.017,0,0,0,.013.027c.016,0,.027-.027.027-.062s.008-.051.019-.04.043-.008.07-.04.048-.062.046-.067,0-.005-.008-.005A.3.3,0,0,0,82.446,95.9Zm.355.03c-.054.024-.091.027-.1.011a.055.055,0,0,0-.046-.027c-.019,0-.005.024.032.054a.265.265,0,0,0,.089.054c.011,0,.011-.016,0-.032s0-.027.054-.013c.04.011.078.011.083,0s0-.032-.008-.051S82.863,95.9,82.8,95.927Zm21.44.024a.163.163,0,0,0,.059.1.233.233,0,0,0,.081.046c.011,0,.019-.032.019-.075s.008-.064.027-.032.035.03.046.019,0-.032-.019-.046a.058.058,0,0,0-.075.008.075.075,0,0,0-.019.073c.016.035.013.035-.027,0a.3.3,0,0,1-.07-.094l-.021-.054Zm-.8.3c-.011.059-.021.067-.046.04a.1.1,0,0,0-.051-.032.025.025,0,0,0-.021.027c0,.013.024.032.054.04a.09.09,0,0,0,.089-.03c.019-.021.021-.04.005-.038s-.011-.016.008-.04.021-.04.008-.04-.035.032-.046.073Zm-10.8-10.966c-.059.005-.277.035-.484.067s-.545.089-.752.134-.545.129-.752.188-.532.164-.726.231-.529.2-.752.306-.548.266-.726.363-.527.314-.779.484-.588.411-.752.54-.47.406-.683.613-.513.527-.666.712-.384.492-.513.685-.3.481-.384.645-.212.441-.285.618-.167.425-.21.551a1.682,1.682,0,0,1-.091.242.174.174,0,0,0-.024.094.153.153,0,0,1-.03.094.059.059,0,0,0-.021.054.768.768,0,0,1-.013.153c-.016.081-.03.11-.054.094s-.027,0-.013.067.011.083-.013.067-.027.008-.013.089c.011.064.008.091-.005.067s-.027.005-.038.107c-.011.081-.03.336-.048.564a7.829,7.829,0,0,0-.011.833c.013.274.03.4.046.363s.016-.024.005.04a1.68,1.68,0,0,0,0,.288c.011.107.027.191.038.185s.013.032.008.086c-.008.073,0,.094.021.078s.024.008.011.081-.008.094.008.083.019.019.013.067,0,.081.019.064.027,0,.013.067-.008.081.008.073.021.011.019.046,0,.064.013.064.013.035.008.075,0,.064.013.056.019.011.013.054,0,.062.013.054.019.011.013.054,0,.064.019.048.03,0,.019.035,0,.054.013.054.021.019.013.04,0,.04.013.04.019.024.008.059c-.016.051-.011.056.022.035s.032-.019.019.005a.2.2,0,0,0-.008.1c.011.043.024.059.046.046s.027,0,.013.04-.005.062.008.062.021.019.013.04,0,.04.013.04.021.019.013.04,0,.04.013.04.021.019.013.04,0,.04.013.04.021.016.013.032a.072.072,0,0,0,.021.075.1.1,0,0,1,.03.073.076.076,0,0,0,.024.067.119.119,0,0,1,.032.067.377.377,0,0,0,.008.075c0,.021.019.035.032.027s.019.005.008.032-.011.043.013.027.027-.005.019.013a1.1,1.1,0,0,0,.121.309,1.239,1.239,0,0,0,.161.277c.016,0,.024.008.021.019a.213.213,0,0,0,.013.081c.011.035.032.056.046.048s.019.005.008.032-.011.043.019.022.035-.019.021.005a.1.1,0,0,0,.013.089c.019.03.043.043.056.032s.019-.005.008.013a.157.157,0,0,0,.03.116c.024.043.056.073.07.059s.019-.005.008.013a.1.1,0,0,0,.016.089c.019.03.043.043.056.032s.019-.008.008.008.013.073.051.126.078.1.091.1.022.011.013.027.013.046.048.067.048.04.032.04.011.032.054.07.064.059.04.048,0,.024.04.081a1.429,1.429,0,0,0,.148.156c.038.03.051.043.027.035s.016.032.081.094.1.1.081.094a2.336,2.336,0,0,0,.255.279c.164.164.363.357.443.427s.134.107.121.086.019,0,.07.056a3.87,3.87,0,0,0,.347.285c.142.1.328.234.417.29a.838.838,0,0,0,.2.1c.019,0,.027.008.019.016s.024.038.067.062a.157.157,0,0,0,.116.03c.019-.008.024-.005.013.008s.016.046.059.07.1.04.116.027.024-.008.013.008.07.07.183.126a.484.484,0,0,0,.234.081c.024-.013.027-.008.005.022s-.016.035.021.019.046-.011.046,0,.03.038.067.054a.146.146,0,0,0,.094.021c.016-.008.027,0,.027.019s.005.027.013.013.035,0,.062.024a.1.1,0,0,0,.081.027c.021-.011.027-.005.013.016s-.008.027.027.013.046-.008.046.008a.017.017,0,0,0,.027.013c.016-.008.027,0,.027.013s.019.021.04.013.04,0,.04.013a.017.017,0,0,0,.027.013c.016-.008.027,0,.027.013s.019.022.04.013.04,0,.04.013.019.021.04.013.04,0,.04.013.019.021.04.013.04,0,.04.013.019.021.04.013.04,0,.04.013.019.021.04.013.04,0,.04.013.019.022.04.013.04,0,.04.013.019.021.04.013.04,0,.04.013.019.021.04.013.04,0,.04.013.019.021.04.013.04,0,.04.013.024.021.054.013.054,0,.054.013.024.021.054.013.048,0,.035.019-.005.027.04.013.059-.008.059.008.024.021.054.013.054,0,.054.013.019.021.04.013.048,0,.054.013a.047.047,0,0,0,.054.013c.024-.008.04,0,.04.013s.032.021.067.013.062-.005.048.019,0,.03.054.019.073,0,.073.008.032.016.067.008.062-.005.048.019,0,.027.064.019.075,0,.067.013.019.021.07.013.086,0,.086.008.035.019.078.013.07.005.062.019.024.021.081.013.089,0,.081.013.03.021.094.013.1,0,.094.013.027.019.1.008c.086-.013.107-.011.094.013s.011.03.1.019c.075-.005.116,0,.107.013s.043.019.142.008.145-.008.121.005.035.03.175.04c.118.008.392.024.6.032s.572.008.793,0a1.856,1.856,0,0,0,.374-.035c-.016-.011.048-.013.148-.008s.172,0,.161-.013.046-.019.134-.013.145,0,.134-.013.032-.019.107-.013.118,0,.107-.013.027-.019.094-.013.1,0,.091-.019.008-.027.094-.013.107.011.094-.013.005-.027.081-.013.094.011.081-.013.005-.027.081-.013.094.011.081-.013,0-.027.062-.013.081.011.081-.005.03-.024.064-.021.067,0,.067-.013.051-.021.116-.024.116-.016.121-.032.03-.022.067-.011.054.008.043-.005.011-.021.054-.016.064,0,.051-.019-.005-.03.032-.019.054,0,.054-.013.024-.021.054-.013.054,0,.054-.013.019-.021.04-.013.04,0,.04-.013.024-.021.054-.013.054,0,.054-.013.019-.021.04-.013.04,0,.04-.013.019-.021.04-.013.04,0,.04-.013.019-.021.04-.013.04,0,.04-.013.019-.021.04-.013.04,0,.04-.013.019-.021.04-.013.04,0,.04-.013.019-.021.04-.013.04,0,.04-.013.019-.021.04-.013.04,0,.04-.013.019-.021.04-.013.04,0,.04-.013.016-.024.035-.024a.4.4,0,0,0,.081,0c.024,0,.043-.011.035-.024s.005-.021.021-.021.051-.005.078-.008.04-.016.032-.03,0-.021.021-.011a.1.1,0,0,0,.081-.027c.024-.024.054-.035.062-.024s.013.005.013-.013.016-.027.046-.013.04.011.03-.005,0-.027.013-.027a1.487,1.487,0,0,0,.21-.081c.1-.046.175-.091.161-.107s-.005-.019.016-.008.075,0,.126-.027.086-.054.081-.067.008-.011.035,0,.04.011.019-.019-.016-.035.008-.021.07,0,.113-.027.073-.056.062-.07-.005-.016.013-.008a.1.1,0,0,0,.086-.016c.03-.016.046-.043.035-.056s-.005-.016.013-.008a.1.1,0,0,0,.086-.016c.03-.016.046-.043.035-.056s-.008-.019.005-.008a.622.622,0,0,0,.223-.11c.107-.07.188-.134.18-.148s0-.013.008-.005a.1.1,0,0,0,.067-.013c.027-.016.038-.04.027-.062s-.008-.026.013-.013.107-.038.228-.132.274-.218.368-.3.263-.228.371-.325.3-.29.419-.43.29-.344.376-.451.142-.207.132-.228-.008-.024.005-.013.075-.051.134-.134a1.093,1.093,0,0,0,.107-.185c0-.016.008-.027.013-.019s.03-.013.048-.043a.1.1,0,0,0,.013-.089c-.013-.019-.011-.024.005-.013s.062-.043.1-.116a.338.338,0,0,0,.056-.167c-.011-.019-.008-.024.005-.013s.051-.027.086-.086a.231.231,0,0,0,.04-.142q-.019-.032.013-.013c.019.013.038.005.046-.019a.1.1,0,0,0-.005-.075c-.016-.024-.011-.024.019-.005s.035.016.021-.021-.011-.04,0-.032.046-.048.081-.121a.33.33,0,0,0,.04-.169q-.019-.032.013-.013c.021.013.035.005.038-.027s.005-.059.005-.075.013-.027.024-.021.027-.013.032-.043a.138.138,0,0,0-.005-.089c-.016-.024-.011-.024.019-.005s.035.016.021-.021-.008-.046.005-.046.021-.019.013-.04,0-.04.013-.04.021-.019.013-.04,0-.04.013-.04.021-.019.013-.04,0-.04.013-.04.021-.019.013-.04,0-.04.013-.04.021-.019.013-.04,0-.04.013-.04.021-.019.013-.04,0-.04.013-.04.021-.019.013-.04,0-.04.013-.04.021-.019.013-.04,0-.04.013-.04.021-.024.013-.054,0-.054.013-.054.021-.024.013-.054,0-.054.013-.054.021-.024.013-.054,0-.054.013-.054.021-.024.013-.054,0-.054.013-.054.021-.03.013-.067,0-.062.019-.048.03,0,.021-.051,0-.075.008-.075.013-.03.005-.067,0-.067.013-.067.021-.03.013-.067,0-.067.013-.067.021-.03.013-.067,0-.062.019-.048.03-.005.021-.078c-.008-.056,0-.089.013-.081s.019-.024.005-.1-.011-.107.013-.094.03-.008.016-.1c-.011-.073-.008-.1.005-.081s.032-.054.046-.228c.013-.148.021-.443.021-.658s-.011-.519-.021-.68c-.011-.177-.03-.282-.046-.274s-.019-.024-.005-.094.011-.107-.013-.107-.03-.024-.013-.081.011-.083-.013-.081-.03-.021-.021-.048a.082.082,0,0,0-.011-.073,3.145,3.145,0,0,1-.121-.4,5.88,5.88,0,0,0-.2-.631c-.056-.142-.148-.357-.2-.476s-.177-.365-.274-.551-.255-.446-.344-.578-.271-.376-.4-.537-.379-.446-.554-.629-.446-.449-.61-.588-.449-.365-.637-.5-.406-.285-.484-.336-.274-.169-.438-.266-.433-.245-.6-.328-.454-.215-.631-.29-.5-.2-.726-.271-.6-.188-.833-.245-.543-.126-.685-.148-.425-.07-.631-.1a8.087,8.087,0,0,0-1.182-.062c-.443-.005-.855,0-.914,0Zm-7.481,15.8c-.078.073-.134.142-.124.161s0,.035-.013.035-.027.048-.027.107.011.1.027.094.021.008.013.04.019.083.089.153c.054.054.075.083.046.062s-.005.013.054.075a1.119,1.119,0,0,0,.116.113s0-.016-.013-.035.035.021.1.089a3.063,3.063,0,0,0,.371.288.785.785,0,0,0,.282.15c.019-.008.024-.005.013.008s.03.056.094.1a.261.261,0,0,0,.153.059c.024-.008.032-.005.021.008s.059.067.161.121a.621.621,0,0,0,.215.089c.019-.008.027,0,.019.013s.005.032.027.04a.091.091,0,0,0,.075-.008c.024-.013.024-.008.005.021s-.016.035.021.019.04-.011.035,0,.019.038.059.056.075.027.081.019.027.005.054.03a.1.1,0,0,0,.081.027c.019-.011.032,0,.032.016s.005.027.013.013.035,0,.062.024a.1.1,0,0,0,.081.027c.021-.011.027-.005.013.016s-.008.028.019.019a.092.092,0,0,1,.081.021.082.082,0,0,0,.075.024c.021-.011.027-.005.013.016s-.008.027.027.013.046-.008.046.008.019.021.04.013.034,0,.021.019-.008.027.027.013.046-.008.046.008.016.021.035.019a.1.1,0,0,1,.073.027.082.082,0,0,0,.075.024c.019-.011.032-.005.032.011s.019.021.04.013.04,0,.04.013.019.021.04.013.04,0,.04.013.019.021.04.013.04,0,.04.013.024.021.054.013.048,0,.035.019-.005.027.04.013.054-.011.04.013-.005.027.04.013.059-.008.059.008.019.021.04.013.04,0,.04.013.019.022.04.013.04,0,.04.013.024.021.054.013.054,0,.054.013.019.021.04.013.04,0,.04.013.024.021.054.013.054,0,.054.013.019.021.04.013.04,0,.04.013.024.021.054.013.048,0,.035.019-.005.027.04.013.064-.008.073.008a.047.047,0,0,0,.054.013c.024-.008.04,0,.04.013s.027.019.062.008.054-.011.032.019-.011.035.048.024c.04-.005.073,0,.073.008s.032.016.067.008.062-.005.048.019,0,.027.067.013.081-.011.067.013,0,.027.067.019c.046-.005.086,0,.086.008s.03.019.067.013.067,0,.067.013.03.019.067.013.067.005.067.021.032.019.081.005.075-.011.062.013,0,.027.067.019c.046-.005.086,0,.086.008s.038.019.081.013.081,0,.081.013.035.019.078.013.075,0,.07.008.051.022.124.032a.6.6,0,0,0,.207,0c.059-.016.067-.013.046.019s-.008.035.075.019.1-.011.1.013.03.03.107.013.1-.011.089.013.011.03.1.019c.073-.005.116,0,.107.013s.059.019.183.008.18-.008.134.008.021.021.215.016c.156-.005.242,0,.188.008s.091.024.376.038c.261.011.615.016.793.013l.322-.005c-.758-.032-.693-.035-.148-.03a3.529,3.529,0,0,0,.645-.013c-.043-.016.021-.019.175-.013s.22.005.175-.011,0-.021.148-.013.2,0,.161-.013.005-.021.134-.013.175,0,.134-.016-.011-.019.094-.008.142.008.132-.008.032-.021.107-.016c.094.008.116,0,.083-.019s-.005-.024.094-.013.124.008.094-.013-.011-.024.067-.011.1.011.089-.013.005-.027.081-.013.094.011.081-.013.005-.03.081-.016.089.008.059-.013-.011-.024.067-.011.1.011.089-.013.005-.027.081-.013.094.011.081-.013.005-.027.081-.013.094.011.081-.013,0-.027.046-.016.067.005.067-.008.032-.019.067-.016.067-.005.067-.019.024-.021.054-.013.054,0,.054-.013.03-.019.075-.008.067.011.054-.013,0-.03.046-.019.067,0,.067-.013.027-.019.062-.008.054.011.032-.019-.013-.032.035-.019.059.008.059-.008.024-.021.054-.013.054,0,.054-.013.027-.019.062-.008.054.011.04-.013-.005-.03.032-.019.054,0,.054-.013.019-.021.04-.013.04,0,.04-.013.019-.021.04-.013.04,0,.04-.013.027-.019.062-.008.054.011.04-.013-.005-.03.032-.019.054,0,.054-.013.019-.021.04-.013.04,0,.04-.013.019-.021.04-.013.04,0,.04-.013.019-.021.04-.013.04,0,.04-.013.019-.021.04-.013.04,0,.04-.013.019-.021.04-.013.04,0,.04-.013.019-.022.04-.013.04,0,.04-.013.019-.021.04-.013.04,0,.04-.013.019-.022.04-.013.04,0,.04-.013.022-.019.048-.008.04.011.027-.013-.008-.028.019-.019.04,0,.04-.013.016-.024.035-.024a.4.4,0,0,0,.081,0c.024,0,.04-.016.032-.03s0-.021.021-.011a.076.076,0,0,0,.073-.024.1.1,0,0,1,.081-.021q.04.013.021-.019t.019-.019c.024.008.04,0,.04-.013s.021-.019.048-.008.04.011.03-.005,0-.03.013-.03.051-.005.078-.008.04-.016.032-.03.005-.019.035-.008.04.011.019-.019-.016-.035.008-.021a.541.541,0,0,0,.247-.081c.118-.054.21-.107.2-.121s.008-.011.035,0,.04.011.019-.019-.016-.035.008-.021.081-.005.14-.04.1-.073.086-.086-.005-.019.016-.008a.086.086,0,0,0,.073.008c.024-.008.035-.027.027-.04s.005-.019.035-.008.04.011.019-.019-.016-.035.008-.021a.088.088,0,0,0,.086-.013c.03-.016.046-.043.035-.056s-.005-.016.013-.008a.1.1,0,0,0,.086-.016c.03-.016.046-.043.035-.056s-.008-.016.005-.008a.614.614,0,0,0,.228-.121c.113-.075.3-.22.425-.322a1.619,1.619,0,0,0,.223-.2c0-.011-.03.005-.062.035s-.011,0,.054-.062c.081-.081.11-.129.1-.167s0-.048.013-.04.027-.027.027-.081-.011-.094-.027-.094-.019-.019-.013-.04-.032-.089-.1-.156-.1-.094-.091-.073,0,.011-.03-.024-.062-.056-.094-.04a1.273,1.273,0,0,0-.175.169,2.669,2.669,0,0,1-.333.3c-.11.083-.3.218-.43.3s-.408.236-.631.352-.564.277-.766.36-.586.228-.86.322-.691.218-.927.277-.575.14-.752.177-.468.091-.645.121-.473.073-.658.1-.535.059-.779.081-.769.04-1.169.04-.887-.013-1.088-.027-.524-.046-.726-.07-.548-.07-.779-.107-.586-.1-.793-.148-.562-.132-.793-.191-.6-.167-.833-.242-.548-.191-.712-.255-.427-.185-.591-.261-.427-.218-.591-.312-.408-.245-.551-.339a4.53,4.53,0,0,1-.416-.312,1.487,1.487,0,0,1-.22-.245c-.035-.059-.083-.1-.113-.1A.52.52,0,0,0,85.163,101.089ZM89.016,87.75c-.132.064-.331.262-.457.346a3.55,3.55,0,0,0-.32.337,4.849,4.849,0,0,0-.347.352c-.107.126-.263.325-.341.443s-.2.325-.263.457a4.342,4.342,0,0,0-.188.457c-.04.118-.1.331-.126.47a4.582,4.582,0,0,0-.07.6,4.945,4.945,0,0,0,.013.666,1.287,1.287,0,0,0,.051.317c.011,0,.021.043.024.1a.787.787,0,0,0,.048.2c.021.056.035.1.027.1s.008.04.032.089a.674.674,0,0,1,.048.1c0,.008.062.129.132.269s.193.352.271.47a1.97,1.97,0,0,0,.215.282c.038.038.07.083.067.1a.844.844,0,0,1-.142.2c-.078.091-.191.239-.25.328a3.553,3.553,0,0,0-.2.336,4.027,4.027,0,0,0-.175.443,3.429,3.429,0,0,0-.118.478,4.48,4.48,0,0,0-.03.5,4.126,4.126,0,0,0,.03.492c.016.107.048.261.07.341s.078.253.121.376a4.518,4.518,0,0,0,.2.457,5.279,5.279,0,0,0,.7,1.016c.1.113.288.3.408.408a2.309,2.309,0,0,0,.255.215.208.208,0,0,1,.075.054,2.362,2.362,0,0,0,.2.153c.089.059.277.18.417.266s.3.177.363.207a.858.858,0,0,1,.121.07.083.083,0,0,0,.048.024c.019,0,.156.059.309.124s.384.156.516.2.368.116.524.15l.39.094c.059.016.145.032.188.04s.245.038.443.073a6.25,6.25,0,0,0,1.236.059,6.729,6.729,0,0,0,1.25-.062c.207-.032.414-.064.457-.073s.226-.048.4-.091.462-.126.631-.185.419-.156.551-.215.339-.153.457-.21.263-.137.322-.177a.52.52,0,0,1,.134-.073.288.288,0,0,0,.107-.067c.046-.035.091-.059.1-.054s.019,0,.019-.008a.468.468,0,0,1,.121-.107.525.525,0,0,1,.137-.081c.008,0,.027-.013.04-.04a.087.087,0,0,1,.064-.048c.021,0,.04-.011.04-.027s.035-.043.075-.062a3.051,3.051,0,0,0,.355-.317c.156-.153.349-.357.43-.454a4.922,4.922,0,0,0,.293-.4,5.1,5.1,0,0,0,.274-.5,3.778,3.778,0,0,0,.312-.967,3.312,3.312,0,0,0,.027-.712,2.667,2.667,0,0,0-.067-.672c-.03-.11-.091-.3-.134-.417a3.57,3.57,0,0,0-.22-.443,3.4,3.4,0,0,0-.309-.422c-.126-.14-.169-.207-.156-.242a.28.28,0,0,1,.054-.089c.019-.021.027-.051.016-.064s-.008-.016.005-.005.056-.019.094-.059a1.086,1.086,0,0,0,.107-.14c.021-.038.086-.145.145-.239s.159-.285.22-.417a2.616,2.616,0,0,0,.159-.43c.024-.1.051-.226.059-.269s.024-.148.035-.228a5.193,5.193,0,0,0,.013-.6,5.413,5.413,0,0,0-.051-.685c-.024-.126-.064-.309-.094-.4s-.089-.274-.137-.392a3.637,3.637,0,0,0-.167-.363c-.046-.081-.145-.236-.218-.349a4.692,4.692,0,0,0-.462-.524,4.064,4.064,0,0,0-.551-.473c-.126-.083-.314-.193-.422-.247s-.288-.134-.4-.18a4.084,4.084,0,0,0-.489-.14,2.908,2.908,0,0,0-.666-.056,3.384,3.384,0,0,0-.645.056,5.038,5.038,0,0,0-.537.153,3.21,3.21,0,0,0-.484.22,4.441,4.441,0,0,0-.441.3,3.4,3.4,0,0,0-.387.365c-.086.1-.223.29-.3.411s-.156.215-.172.207A1.847,1.847,0,0,1,93.342,89,4.039,4.039,0,0,0,93,88.567a3.88,3.88,0,0,0-.411-.363,4.216,4.216,0,0,0-.43-.277,4,4,0,0,0-.443-.188c-.132-.046-.309-.1-.39-.121l-.215-.051a3.689,3.689,0,0,0-.571-.073h-.528l-.384.046-.3.078Zm4.477-1.145c-.016,0-.021.024-.013.04s-.013.07-.048.116a.521.521,0,0,1-.159.118.578.578,0,0,0-.1.048c-.005,0,.008.024.027.043A.081.081,0,0,0,93.27,87c.019-.005.032,0,.032.019a.017.017,0,0,0,.027.013c.016-.008.059.021.094.067a.3.3,0,0,1,.067.113.122.122,0,0,0,.046.075c.04.035.043.035.027-.008a.191.191,0,0,1,.019-.121.538.538,0,0,1,.094-.121c.032-.024.07-.04.083-.032s.027,0,.027-.013.024-.021.054-.013c.046.011.051.005.027-.04a.088.088,0,0,0-.067-.054c-.021,0-.04-.013-.04-.027s-.013-.021-.032-.011-.062-.019-.1-.062-.056-.089-.048-.1a.057.057,0,0,0-.027-.056A.076.076,0,0,0,93.493,86.606Zm-7.58,4.834a2,2,0,0,0-.376.134,1.269,1.269,0,0,0-.4.3,2.288,2.288,0,0,0-.3.382,1.991,1.991,0,0,0-.156.349,2.313,2.313,0,0,0-.083.39,9.436,9.436,0,0,0-.016.994,5.277,5.277,0,0,0,.081,1.115c.038.185.1.438.14.564s.124.349.183.5a4.142,4.142,0,0,0,.2.43,2.272,2.272,0,0,0,.282.352,1.507,1.507,0,0,0,.392.29,2.557,2.557,0,0,0,.349.137.971.971,0,0,0,.156.032,1.428,1.428,0,0,0-.059-.234c-.038-.126-.086-.331-.11-.457a2.286,2.286,0,0,1-.038-.349.338.338,0,0,0-.021-.142,1.4,1.4,0,0,1-.024-.322c-.005-.218-.016-.306-.04-.32s-.03-.021,0-.021.032-.048.032-.156a.376.376,0,0,0-.032-.191c-.027-.03-.027-.035,0-.021s.03,0,.027-.046-.016-.059-.027-.054-.021,0-.021-.016a.027.027,0,0,1,.027-.027c.016,0,.019-.016.011-.035s-.021-.021-.038.008-.021.035-.032,0-.024-.03-.038-.016-.008.027.011.032a.042.042,0,0,1,.032.038.027.027,0,0,1-.027.027c-.013,0-.032-.03-.04-.067s-.032-.07-.059-.07a.646.646,0,0,0-.1,0c-.048,0-.046,0,.008-.024a.125.125,0,0,1,.113,0q.054.027.067,0a.1.1,0,0,0,0-.067.051.051,0,0,1,.013-.054q.027-.013,0-.067c-.019-.04-.016-.054.008-.054s.027-.005.019-.013-.035-.005-.059.005c-.046.021-.046.024,0,.073s.043.051-.013.032c-.035-.008-.062-.008-.059,0a.174.174,0,0,0,.046.07c.03.03.035.046.013.046a.061.061,0,0,1-.048-.04.058.058,0,0,0-.054-.04c-.021,0-.04-.013-.04-.027s.013-.021.027-.013.03,0,.03-.021a.422.422,0,0,1,.013-.086c.008-.048,0-.046-.046.013-.035.043-.048.048-.04.019s.008-.04-.038-.019-.054.018-.054,0a.025.025,0,0,0-.027-.027c-.013,0-.019.019-.013.04s0,.035-.013.027a.1.1,0,0,1-.027-.075c0-.054.008-.056.081-.04.046.013.081.013.081,0s-.032-.035-.073-.054a.377.377,0,0,0-.094-.032c-.011,0-.027.035-.035.081-.011.073-.019.078-.064.046-.03-.016-.046-.04-.04-.054s.03-.013.051-.005.043-.007.048-.048a.069.069,0,0,1,.067-.067c.032,0,.054.005.046.021s.005.032.027.04.035,0,.021-.035-.011-.04.013-.027.028.008.019-.019a.035.035,0,0,0-.046-.027c-.019.011-.043,0-.054-.027a.076.076,0,0,0-.062-.04c-.021,0-.04.011-.04.027s.019.021.04.013.04-.005.043.005-.04.03-.089.043c-.067.016-.078.027-.048.043s.032.027.008.04a.025.025,0,0,1-.038-.019.179.179,0,0,1,0-.054.1.1,0,0,0-.024-.059.085.085,0,0,0-.094-.027c-.046.008-.059,0-.046-.016s.054-.027.094-.021.073,0,.073-.011-.021-.022-.046-.022a.658.658,0,0,0-.1,0c-.046.005-.048,0-.019-.038s.027-.046-.008-.056-.032-.027-.016-.048-.013-.067-.081-.134-.1-.086-.1-.059-.016.035-.04.027a.043.043,0,0,0-.054.027A.5.5,0,0,0,85,94.1c0,.008.013.013.027.013s.021-.013.013-.027,0-.027.013-.027.024.043.021.094.005.089.019.083.03-.03.032-.059,0-.075.005-.1c0-.048.005-.051.043-.013.024.021.035.046.021.054a.1.1,0,0,0-.024.067l-.005.054c.059-.083.083-.1.1-.089s0,.04-.021.062-.054.038-.073.027-.04.011-.051.046c-.016.062-.016.062-.054.008-.024-.035-.048-.048-.075-.035s-.035.011-.021-.011.005-.03-.021-.019-.043,0-.046-.032.005-.051.019-.051.038.021.054.046.032.04.059.013.019-.038-.051-.059c-.048-.016-.089-.046-.089-.067s.024-.04.054-.04S85,94.017,85,94s-.024-.021-.054-.013c-.051.013-.054,0-.046-.3a.927.927,0,0,1,.116-.543,1.726,1.726,0,0,1,.255-.387,2.125,2.125,0,0,1,.306-.263,2.158,2.158,0,0,1,.371-.177l.207-.073c0-.46.005-.648.011-.72.008-.1,0-.126-.032-.124A1.938,1.938,0,0,0,85.912,91.44Zm14.924.043c.008.048.024.242.038.43l.019.344a2.557,2.557,0,0,1,.43.153,1.941,1.941,0,0,1,.269.169,1.917,1.917,0,0,1,.282.288,1.236,1.236,0,0,1,.207.357,1.353,1.353,0,0,1,.064.309c0,.073.005.2,0,.274-.005.129-.011.14-.059.129-.03-.008-.054,0-.054.013s.019.027.04.027a.058.058,0,0,1,.054.04c.011.03,0,.035-.046.021s-.056-.013-.027.027a.081.081,0,0,1,.019.073c-.008.016.005.019.032.005s.043-.008.032.021a.087.087,0,0,1-.054.048c-.019,0-.048-.021-.064-.054a.2.2,0,0,0-.134-.091c-.073-.021-.121-.024-.148-.005s-.035.024,0,.013a.2.2,0,0,1,.107.016c.038.013.086.03.107.035a.111.111,0,0,1,.054.024c.008.008,0,.03-.019.048s-.035.019-.035.005-.038-.024-.086-.019-.129.008-.183.008c-.083,0-.086,0-.04.027a.514.514,0,0,1,.1.089l.048.056c-.021-.116-.016-.148,0-.148a.067.067,0,0,1,.046.032c.013.027.019.027.032,0s.03-.024.07.005.046.048.035.062-.035.005-.054-.013-.046-.021-.089.021-.064.043-.081.032-.016,0-.005.027.008.043-.008.035a.07.07,0,0,1-.027-.054.132.132,0,0,0-.032-.078c-.027-.032-.043-.032-.067-.008s-.035.021-.035.005-.021-.027-.048-.027-.048.016-.04.032a.036.036,0,0,0,.048.021c.024-.008.048,0,.054.013s0,.027-.027.027-.04.011-.04.027-.016.021-.04.013-.032-.032-.021-.062.011-.04-.021.005-.046.046-.1.016l-.067-.035c.1.1.116.1.145.078s.021-.005-.008.056-.051.089-.062.089a.13.13,0,0,1-.059-.032c-.035-.03-.035-.03-.008.011s.056.046.148.035.118-.005.148.04.027.054-.008.054-.04-.013-.04-.027-.035-.027-.081-.027c-.064,0-.075.008-.059.046s.008.043-.027.027-.046-.005-.035.075.005.094-.027.094-.04.011-.04.027-.021.027-.046.027-.039.007-.021.027a.08.08,0,0,0,.075.013c.024-.008.046-.027.046-.04s.016-.027.035-.027.011.022-.021.054-.047.069-.032.1.016.043-.013.008a1.185,1.185,0,0,0-.1-.094.3.3,0,0,0-.14-.062c-.043,0-.073.005-.064.021a.065.065,0,0,0,.067.013c.03-.008.054-.008.054,0a.233.233,0,0,1-.027.067c-.013.03-.016.054-.005.054a.159.159,0,0,0,.059-.024.056.056,0,0,1,.075.013.124.124,0,0,1,.032.056c0,.013-.013.005-.032-.013a.119.119,0,0,0-.075-.032c-.035,0-.035,0,0,.024s.024.024-.03.021-.07-.019-.067-.064-.011-.062-.03-.062-.035.011-.035.027a.06.06,0,0,0,.035.043c.024.013.024.027-.008.048a.145.145,0,0,0-.048.089c0,.035.005.062.016.064a.388.388,0,0,1,.073.013.147.147,0,0,1,.067.027c.008.011-.024.013-.073.008s-.089,0-.089.008.019.021.04.021.04.011.04.027a.142.142,0,0,0,.04.067c.024.021.03.04.013.04s-.038-.024-.054-.054-.038-.054-.054-.054-.027.035-.027.081.016.089.035.1.024.021,0,.035a.321.321,0,0,0-.04.183.367.367,0,0,0,.011.169c.011,0,.011.016,0,.032a.739.739,0,0,0-.019.183.684.684,0,0,1-.016.175.406.406,0,0,0-.021.121c-.005.051-.024.191-.046.309s-.07.322-.1.457a2.138,2.138,0,0,0-.062.25.868.868,0,0,0,.14-.024,1.862,1.862,0,0,0,.322-.118,1.649,1.649,0,0,0,.39-.274,2.562,2.562,0,0,0,.331-.384,3.854,3.854,0,0,0,.207-.363c.04-.089.113-.282.161-.43s.107-.379.134-.511.064-.382.081-.551a10.494,10.494,0,0,0,.019-1.115,4.3,4.3,0,0,0-.059-.967,2.268,2.268,0,0,0-.124-.322,2.134,2.134,0,0,0-.2-.317,2.029,2.029,0,0,0-.288-.279,2.419,2.419,0,0,0-.331-.2,2.367,2.367,0,0,0-.336-.118,1.378,1.378,0,0,0-.239-.043c-.056,0-.062.008-.046.086Zm-17.009,2.1c0,.148.005.2.011.121a2.239,2.239,0,0,0,0-.269C83.833,93.372,83.827,93.439,83.827,93.587Zm1.158.277a.129.129,0,0,0-.035.059c-.008.032,0,.032.027.005a.133.133,0,0,1,.054-.032c.013,0,.016.019.008.04s0,.04.013.04a.045.045,0,0,0,.038-.035.142.142,0,0,0,0-.067.05.05,0,0,0-.043-.032A.131.131,0,0,0,84.985,93.864Zm16.144.825c-.019.021-.046.035-.062.027s-.032.008-.04.032a.075.075,0,0,0,.019.075c.021.019.024.013.013-.021s0-.051.051-.067c.035-.011.07-.035.073-.054s0-.032-.008-.032A.157.157,0,0,0,101.13,94.689Zm-7.76,7.61c.118.005.3.005.4,0s.008-.008-.215-.008S93.251,102.293,93.369,102.3Zm-8.233-8.2a.352.352,0,0,0,0,.091.089.089,0,0,1-.043.073c-.04.027-.043.043-.019.067s.035.021.048-.027.027-.054.048-.046.051,0,.073-.027.032-.051.021-.062-.038.005-.059.035l-.038.054c.005-.083.019-.113.03-.121s.005-.03-.013-.051S85.144,94.057,85.136,94.1Zm16.647.218.013.075c-.11-.121-.124-.126-.15-.091a.093.093,0,0,0-.021.07c.005.019-.019.043-.051.051a.2.2,0,0,1-.067.013.179.179,0,0,0-.046.043.192.192,0,0,0-.04.067c0,.013.03,0,.064-.019a.508.508,0,0,1,.081-.04c.008,0,.008.011,0,.027s0,.027.013.027.027-.024.027-.054.013-.048.027-.04.019.027.008.046-.01.028.013.013.024-.032.005-.059-.018-.045,0-.054a.029.029,0,0,0,.013-.04c-.005-.016,0-.027.013-.027s.027.024.027.054a.087.087,0,0,0,.027.067c.016.008.019-.005.008-.035s-.011-.038.005-.027.051,0,.081-.032.062-.048.089-.021.043.024.054.013,0-.04-.03-.062-.056-.03-.073-.005-.021.027-.035,0a.068.068,0,0,0-.043-.032c-.013,0-.019.032-.013.073Zm-16.206.215a.088.088,0,0,0-.016.067q0,.048-.038.035c-.021-.008-.046-.005-.051.005s.011.038.04.054c.046.032.054.027.064-.046.008-.048.03-.081.054-.081a.062.062,0,0,0,.054-.027c.008-.016-.008-.027-.035-.027A.137.137,0,0,0,85.577,94.533Zm15.607.352c-.024.035-.013.062.051.126.046.043.073.059.059.032a.087.087,0,0,1,.019-.1c.024-.03.035-.054.021-.054a.025.025,0,0,0-.024.027c0,.013-.021.032-.046.04a.08.08,0,0,1-.075-.013q-.027-.03.021-.027c.024,0,.048-.011.048-.027a.041.041,0,0,0-.021-.038C101.221,94.844,101.2,94.861,101.183,94.885Zm-.118.175c-.051.035-.089.07-.083.081a.36.36,0,0,1,.005.064c0,.04.005.043.04.013s.046-.021.054-.005a.07.07,0,0,0,.054.027c.024,0,.04-.013.04-.027s-.016-.021-.04-.013-.04,0-.04-.027-.016-.035-.059-.024c-.059.013-.059.013-.008-.027a.125.125,0,0,1,.094-.027c.038.013.038.013,0-.013s-.035-.03,0-.03a.119.119,0,0,1,.075.032c.019.019.035.024.038.013s-.016-.04-.04-.062S101.14,95.008,101.065,95.059Zm-11.243-4.99-.215.054a2.2,2.2,0,0,0-.349.14,2.129,2.129,0,0,0-.384.288,2.182,2.182,0,0,0-.314.376,1.879,1.879,0,0,0-.172.376,1.377,1.377,0,0,0-.056.368v.183h.685a2.045,2.045,0,0,1,.142-.427,1.078,1.078,0,0,1,.207-.266,1.615,1.615,0,0,1,.263-.183,1.046,1.046,0,0,1,.269-.086,1.229,1.229,0,0,1,.314,0,1.259,1.259,0,0,1,.282.073,1.445,1.445,0,0,1,.223.134,1.106,1.106,0,0,1,.207.223,1.228,1.228,0,0,1,.142.336l.046.2h.712a2.069,2.069,0,0,0-.043-.425,1.793,1.793,0,0,0-.118-.368,2.257,2.257,0,0,0-.218-.347,1.917,1.917,0,0,0-.306-.3,2.059,2.059,0,0,0-.336-.2,1.727,1.727,0,0,0-.349-.118,2.057,2.057,0,0,0-.376-.035C89.967,90.059,89.852,90.064,89.822,90.069Zm6.758.024a2.322,2.322,0,0,0-.4.15,1.476,1.476,0,0,0-.443.331,1.521,1.521,0,0,0-.314.419,2.279,2.279,0,0,0-.142.363,1.683,1.683,0,0,0-.04.328v.169l.709-.013a1.724,1.724,0,0,1,.134-.457,1.321,1.321,0,0,1,.21-.242,1.005,1.005,0,0,1,.666-.266,1.169,1.169,0,0,1,.336.051,1.051,1.051,0,0,1,.519.384,1.268,1.268,0,0,1,.126.234,1.307,1.307,0,0,1,.054.207l.013.1.712-.013a2.174,2.174,0,0,0-.064-.551,1.885,1.885,0,0,0-.156-.347,2.314,2.314,0,0,0-.29-.363,2.343,2.343,0,0,0-.363-.293,2.23,2.23,0,0,0-.349-.159,1.658,1.658,0,0,0-.457-.064A1.9,1.9,0,0,0,96.58,90.094Zm-3.963,2.413c-.043.019-.107.048-.14.064a.589.589,0,0,0-.142.161.42.42,0,0,0-.081.255.617.617,0,0,0,.038.215.626.626,0,0,0,.148.188.6.6,0,0,0,.226.132.615.615,0,0,0,.207.013.6.6,0,0,0,.2-.091.544.544,0,0,0,.228-.43.548.548,0,0,0-.051-.215.811.811,0,0,0-.126-.172.775.775,0,0,0-.177-.116.525.525,0,0,0-.175-.038A.576.576,0,0,0,92.617,92.507Zm1.478.005a.633.633,0,0,0-.207.145.644.644,0,0,0-.129.218.6.6,0,0,0-.008.207.58.58,0,0,0,.043.156.666.666,0,0,0,.1.129.607.607,0,0,0,.15.118.657.657,0,0,0,.228.04.445.445,0,0,0,.269-.078.546.546,0,0,0,.185-.2.5.5,0,0,0,.064-.239.51.51,0,0,0-.064-.242.537.537,0,0,0-.4-.282A.546.546,0,0,0,94.095,92.512Zm-8.889,1.814c-.024.03-.035.054-.024.054s0,.013-.021.03-.035.027,0,.013a.086.086,0,0,1,.075.019c.027.024.035.024.032,0a.06.06,0,0,0-.032-.048c-.027-.013-.027-.021,0-.035a.045.045,0,0,0,.024-.051C85.254,94.28,85.238,94.288,85.206,94.326Zm3.9.279a2.227,2.227,0,0,0-.4.142,2.346,2.346,0,0,0-.39.239,2.239,2.239,0,0,0-.29.306,3.02,3.02,0,0,0-.207.322,1.582,1.582,0,0,0-.159.739,2.125,2.125,0,0,0,.04.416,2.587,2.587,0,0,0,.094.314,2.744,2.744,0,0,0,.129.3,2.85,2.85,0,0,0,.228.357,5.114,5.114,0,0,0,.347.4c.107.107.261.247.341.312s.247.175.371.25.352.2.511.285.446.2.637.271.489.161.658.2.438.1.591.134.476.075.712.1c.282.027.7.043,1.2.043.422,0,.919-.013,1.1-.032s.519-.062.739-.1.58-.116.793-.175.524-.159.685-.223.4-.164.524-.228.3-.156.39-.21.271-.177.4-.277a4.36,4.36,0,0,0,.481-.43,4.221,4.221,0,0,0,.339-.4,3.221,3.221,0,0,0,.183-.309,4.183,4.183,0,0,0,.156-.39,1.524,1.524,0,0,0,.075-.564,1.427,1.427,0,0,0-.056-.524,1.941,1.941,0,0,0-.161-.357,2.649,2.649,0,0,0-.236-.32,2.027,2.027,0,0,0-.309-.274,2.207,2.207,0,0,0-.376-.207,1.994,1.994,0,0,0-.363-.116c-.116-.021-1.362-.03-4.38-.027C90.209,94.573,89.247,94.581,89.11,94.605Zm.551.551c0,.113.008.492.011.841l0,.64c.207.032.261.048.255.059s.032.013.089,0,.094-.008.083.005.021.021.081.016.091,0,.078.019.008.027.094.013c.07-.011.107-.008.1.005s.027.021.094.016.1,0,.094.013.035.021.107.016c.1-.008.116,0,.083.021s-.032.03.008.016a.385.385,0,0,1,.1-.016c.054,0,.054-.019.056-.922v-.919a1.544,1.544,0,0,0-.357-.04c-.1,0-.183.011-.183.027s-.03.019-.086,0a.194.194,0,0,0-.142.005c-.04.024-.048.021-.032,0s0-.027-.04-.011a.414.414,0,0,1-.129.016.584.584,0,0,1-.081-.011,1.089,1.089,0,0,0-.153-.013l-.137-.008Zm1.37.744c0,.532,0,.755.008.5s0-.7,0-.967S91.031,95.368,91.031,95.9Zm4.676.027c0,.545,0,.763.008.484s0-.728,0-.994S95.707,95.379,95.707,95.927Zm.349-.935c.008.019.013.438.013.935v.9c.167.011.2,0,.193-.013s.032-.019.116-.008.124.013.094-.008-.013-.027.073-.021c.064.005.1,0,.094-.016s.027-.019.1-.005.107.011.094-.013,0-.03.064-.021.075,0,.067-.013.021-.019.083-.005.094.011.081-.013.005-.03.086-.016.1.01.067-.008-.024-.024.035-.024h.073c.008-1.032.011-1.413.011-1.513l0-.18A5.655,5.655,0,0,0,96.056,94.992ZM89.164,95a.094.094,0,0,1-.081.005c-.03-.013-.032-.005-.019.03s.008.048-.008.048a.056.056,0,0,1-.04-.035c-.011-.027-.016-.027-.027,0a.032.032,0,0,1-.04.021c-.013-.008-.075.021-.134.067s-.107.07-.1.059-.032.013-.073.054a.277.277,0,0,1-.094.075c-.013,0-.019.024-.011.054s0,.046-.013.04a.083.083,0,0,0-.073.019.148.148,0,0,0-.056.075.2.2,0,0,1-.067.089c-.032.03-.056.067-.051.089s-.005.03-.021.024-.035.024-.046.07a.207.207,0,0,1-.04.094.027.027,0,0,0-.008.038c.008.013,0,.027-.013.027s-.038.054-.054.121a.281.281,0,0,0,0,.175c.016.03.043.048.062.043a.194.194,0,0,1,.107.027.2.2,0,0,0,.1.024.023.023,0,0,1,.035.013c0,.013.059.032.126.04a.238.238,0,0,1,.129.04c0,.013.03.019.059.013s.054-.005.054.005.035.016.075.008c.059-.011.067-.005.046.027s-.016.035.008.019a.293.293,0,0,1,.14,0c.056.011.1.03.094.04s.013.011.043,0,.064-.008.081.021a1.948,1.948,0,0,0,.027-.5c0-.3.005-.661.008-.809,0-.226,0-.271-.038-.274A.22.22,0,0,0,89.164,95Zm2.255-.019s-.013.435-.021.962l-.016.954c.142-.016.153-.011.121.008s.011.024.134.016.156-.005.121.011.024.021.161.013.191,0,.148.013.054.019.228.013c.212-.005.274,0,.215.019s-.056.021.054.011c.075-.005.279-.013.457-.013l.322,0-.011-2.015C91.851,94.973,91.418,94.976,91.418,94.979Zm2.314,1.029v1.035a3.026,3.026,0,0,1,.717-.059,3.241,3.241,0,0,0,.551-.03c-.024-.011.056-.016.183-.011.15.008.21,0,.175-.013s0-.02.121-.011.161,0,.134-.013-.032-.024.008-.024.046-.064.046-.954v-.954H93.732Zm4.041-.758c.005.15.011.5.013.777,0,.481.005.505.056.519.03.005.054,0,.054-.008a.408.408,0,0,1,.161-.054.487.487,0,0,1,.2-.013c.024.013.027.011.005-.019s-.011-.035.062-.019c.054.011.081.008.073-.008s.024-.035.067-.04a.23.23,0,0,1,.107,0c.016.005.027,0,.027-.008s.035-.021.075-.027a1.166,1.166,0,0,0,.191-.04.363.363,0,0,0,.126-.054.263.263,0,0,0,0-.113c-.008-.054-.021-.091-.032-.083s-.024-.032-.027-.081a.79.79,0,0,0-.086-.234,2.052,2.052,0,0,0-.269-.336c-.1-.107-.2-.188-.218-.18s-.027,0-.027-.013-.043-.051-.094-.081-.107-.046-.126-.035-.027.011-.008-.019.019-.038-.019-.021-.046.011-.043,0-.03-.035-.073-.046-.107-.024-.14-.03C97.765,94.976,97.763,94.979,97.773,95.25Zm-9.7,1.448c.011.048.03.091.04.094s.019.019.011.035a.607.607,0,0,0,.07.207,2.486,2.486,0,0,0,.134.255.81.81,0,0,1,.059.094.022.022,0,0,0,.027.013c.011,0,.019.005.019.021a.237.237,0,0,0,.005.046.136.136,0,0,0,.032.048,1.39,1.39,0,0,1,.11.118c.046.048.062.081.04.07s-.031-.013-.013,0,.118.11.228.212a1.587,1.587,0,0,1,.2.207.023.023,0,0,0,.021.021.37.37,0,0,1,.1.054.5.5,0,0,0,.094.054c.008,0,.013-.3.013-.658,0-.642,0-.658-.054-.658-.03,0-.048-.011-.043-.021s-.043-.021-.107-.024-.124-.016-.132-.032a.06.06,0,0,0-.067-.016c-.03.005-.054,0-.054-.013s-.024-.021-.054-.013-.054,0-.054-.013-.024-.019-.059-.008-.054.008-.043-.008-.013-.021-.054-.013-.067,0-.051-.019-.013-.032-.1-.032-.116-.011-.1-.032,0-.027-.035-.013a.19.19,0,0,1-.126-.024l-.075-.038Zm10.853-.07a1.12,1.12,0,0,0-.121.043c-.038.013-.086.03-.107.035s-.07.013-.107.021a.416.416,0,0,0-.1.043.148.148,0,0,1-.1.021c-.035-.005-.056,0-.046.019s-.013.019-.056.013-.075-.005-.075.008-.03.013-.067.005-.062,0-.048.019,0,.03-.048.021-.067-.005-.062.008-.038.024-.1.032l-.107.013c0,1.193.005,1.3.038,1.3s.035-.005.03-.013.013-.03.043-.046.048-.027.035,0,.019-.008.059-.054.089-.089.1-.089a.237.237,0,0,0,.086-.067c.035-.038.07-.059.078-.046s.011.005.005-.013.046-.081.113-.145.1-.1.081-.091-.011-.008.027-.04.048-.051.027-.04-.013-.005.021-.032.062-.064.059-.081.011-.035.027-.035.021-.011.013-.027.008-.038.032-.051a.512.512,0,0,0,.121-.18c.038-.089.089-.2.11-.253a.706.706,0,0,0,.054-.161c.008-.038.021-.089.03-.113s.013-.046.008-.046a.25.25,0,0,1-.059.016Zm-9.257,1.177c0,.72,0,.766.046.747s.043-.011.021.019-.019.035.005.019a.266.266,0,0,1,.156.043c.067.032.121.067.121.081s.021.011.046,0,.043-.011.021.019-.019.035.005.019a.174.174,0,0,1,.116.016c.046.016.073.04.062.051s0,.019.019.016h.086c.027,0,.043.019.035.032s.005.021.027.013.04,0,.04.013.021.019.046.008.043-.011.027.013-.005.028.021.019.04,0,.04.013.019.021.04.013.04,0,.04.013.019.021.04.013.04,0,.04.013.019.021.04.013.04,0,.04.013.019.021.04.013.04,0,.04.013.011.021.027.013a6.869,6.869,0,0,0,.027-.927v-.914c-.14,0-.142-.005-.094-.027.032-.013-.008-.016-.107-.008-.118.008-.15.005-.121-.016s0-.024-.107-.011c-.091.011-.142.008-.129-.005s-.03-.021-.094-.016c-.083.008-.107,0-.094-.019s-.005-.03-.073-.019c-.051.008-.094.005-.094-.005s-.032-.019-.067-.013-.067,0-.067-.013-.062-.024-.134-.027l-.137-.008Zm7.414-.728c.011.016-.024.021-.081.013s-.091,0-.081.013-.024.021-.081.013-.091,0-.081.016-.021.016-.083.005-.094-.011-.081.013-.011.027-.091.019c-.062-.005-.107,0-.1.011s-.07.024-.164.032l-.175.013c0,1.779,0,1.8.054,1.814.03.008.054,0,.054-.013s.024-.021.054-.013.046,0,.032-.019,0-.027.04-.013.062.008.062-.008.016-.021.04-.013.04,0,.04-.013.016-.021.04-.013.04,0,.04-.013.016-.021.04-.013.032,0,.027-.013.005-.03.032-.03.062-.005.078-.008.021-.013.013-.03,0-.019.03-.005.048.008.048-.008.016-.021.04-.013.033,0,.019-.019-.005-.027.027-.013.043.011.035,0,.062-.054.156-.094a.421.421,0,0,1,.193-.054q.024.019,0-.021c-.021-.03-.019-.035.019-.019s.04.011.027-.013-.005-.027.027-.013.048-.027.048-.747V97.04c-.25.011-.309.024-.3.038Zm-6.057.594c0,.266,0,.368.008.228s.005-.357,0-.484S91.031,97.405,91.031,97.671Zm.465-.4-.1.008,0,1.894c.124-.021.137-.013.124.008s0,.027.067.013.083-.011.067.013.005.027.081.013.094-.008.083.008.021.019.081.013.091,0,.081.013.035.022.107.016c.091-.008.116,0,.086.019s.005.024.121.013.148-.005.121.011.032.024.188.019c.14-.008.2,0,.148.011s.064.016.242.008.322-.013.325-.016.011-.441.019-.975l.019-.975c-.532-.005-.623-.013-.564-.024s-.064-.016-.255-.011c-.215,0-.32,0-.269-.016s-.016-.016-.175-.011c-.18.008-.245.005-.215-.016s-.011-.021-.134-.013-.164.008-.134-.013.027-.027.013-.024S91.553,97.268,91.5,97.274Zm3.945.008c.038.021,0,.024-.148.016s-.191,0-.161.016-.032.021-.188.013-.21,0-.175.011-.064.021-.269.013c-.18-.005-.293,0-.255.011s-.04.021-.223.024l-.288,0v1.962a4.906,4.906,0,0,1,.5.013c.1.011.1.011.027-.013s-.019-.021.161-.016c.15.005.22,0,.188-.016s.011-.016.121-.011.161.005.134-.013-.005-.024.086-.013.124.008.107-.016.008-.027.078-.019.091,0,.081-.013.021-.019.083-.008.1.011.081-.013.005-.027.067-.019.086,0,.086-.016.032-.019.075-.008l.075.019c-.013-1.838-.019-1.905-.062-1.905a1.132,1.132,0,0,1-.14-.013c-.078-.011-.086-.008-.04.013Zm.266.914c0,.524,0,.736.008.47s.005-.7,0-.954S95.707,97.671,95.707,98.2Zm-2.338.82c0,.207,0,.285.008.175s.005-.279,0-.376S93.369,98.808,93.369,99.015Z" transform="translate(-81.981 -82)"/></svg>